<?xml version="1.0" standalone="no"?>
<!DOCTYPE svg PUBLIC "-//W3C//DTD SVG 20010904//EN"
 "http://www.w3.org/TR/2001/REC-SVG-20010904/DTD/svg10.dtd">
<svg version="1.0" xmlns="http://www.w3.org/2000/svg"
 width="128.000000pt" height="128.000000pt" viewBox="0 0 128.000000 128.000000"
 preserveAspectRatio="xMidYMid meet">
<metadata>
Created by potrace 1.11, written by Peter Selinger 2001-2013
</metadata>
<g transform="translate(0.000000,128.000000) scale(0.100000,-0.100000)"
fill="#000000" stroke="none">
<path d="M178 1244 c-16 -8 -28 -12 -28 -9 0 7 -20 -9 -71 -57 -35 -32 -52
-61 -67 -108 -9 -31 -8 -475 1 -481 6 -4 20 3 32 15 12 11 73 68 135 126 62
58 129 121 150 140 20 19 90 85 155 145 185 172 229 216 231 231 3 19 -485 21
-505 2 -11 -10 -13 -10 -7 0 9 15 8 15 -26 -4z"/>
<path d="M1015 1250 c-6 -9 -9 -413 -6 -717 l1 -52 116 2 c64 1 118 -1 121 -5
2 -5 10 -2 17 5 10 9 13 79 13 290 0 152 -3 277 -7 277 -4 0 -6 11 -5 25 2 14
-1 25 -6 25 -5 0 -9 7 -9 14 0 20 -78 100 -116 120 -45 22 -110 31 -119 16z"/>
<path d="M787 1038 c-13 -13 -66 -61 -117 -108 -51 -47 -111 -102 -134 -124
-22 -21 -81 -75 -129 -120 -167 -153 -199 -185 -193 -195 3 -5 56 -8 117 -7
61 0 113 -2 116 -7 2 -4 10 -4 16 0 17 10 107 10 107 -1 0 -5 5 -5 13 0 6 5
62 9 124 8 74 -1 113 3 116 10 6 19 2 555 -5 561 -3 3 -17 -4 -31 -17z"/>
<path d="M10 290 c-5 -3 -7 -19 -4 -35 4 -17 7 -37 8 -45 9 -60 78 -141 150
-175 50 -23 58 -23 354 -24 238 -1 302 1 303 11 6 58 4 246 -3 259 -7 15 -47
17 -403 16 -217 0 -399 -3 -405 -7z"/>
<path d="M1020 288 c0 -5 -3 -7 -7 -5 -5 3 -7 -56 -7 -131 l2 -137 27 -3 c14
-2 32 -1 38 1 7 2 14 4 17 4 3 0 24 10 46 21 43 22 114 96 114 119 0 7 4 13 8
13 8 0 9 7 13 65 4 66 11 63 -126 62 -69 0 -125 -4 -125 -9z"/>
</g>
</svg>
