<svg width="1111" height="605" viewBox="0 0 1111 605" fill="none" xmlns="http://www.w3.org/2000/svg">
<path d="M951.333 259.333H934.667V242.667C934.667 241.667 934 241 933 241H913C912 241 911.333 241.667 911.333 242.667V259.333H894.667C893.667 259.333 893 260 893 261V281C893 282 893.667 282.667 894.667 282.667H911.333V299.333C911.333 300.333 912 301 913 301H933C934 301 934.667 300.333 934.667 299.333V282.667H951.333C952.333 282.667 953 282 953 281V261C953 260 952.333 259.333 951.333 259.333ZM949.667 279.333H931.333V297.667H914.667V279.333H896.333V262.667H914.667V244.333H931.333V262.667H949.667V279.333Z" fill="#2694FF"/>
<path d="M773.333 563.333H756.667V546.667C756.667 545.667 756 545 755 545H735C734 545 733.333 545.667 733.333 546.667V563.333H716.667C715.667 563.333 715 564 715 565V585C715 586 715.667 586.667 716.667 586.667H733.333V603.333C733.333 604.333 734 605 735 605H755C756 605 756.667 604.333 756.667 603.333V586.667H773.333C774.333 586.667 775 586 775 585V565C775 564 774.333 563.333 773.333 563.333ZM771.667 583.333H753.333V601.667H736.667V583.333H718.333V566.667H736.667V548.333H753.333V566.667H771.667V583.333Z" fill="#2591FA"/>
<path d="M939.333 66.3333H922.667V49.6667C922.667 48.6667 922 48 921 48H901C900 48 899.333 48.6667 899.333 49.6667V66.3333H882.667C881.667 66.3333 881 67 881 68V88C881 89 881.667 89.6667 882.667 89.6667H899.333V106.333C899.333 107.333 900 108 901 108H921C922 108 922.667 107.333 922.667 106.333V89.6667H939.333C940.333 89.6667 941 89 941 88V68C941 67 940.333 66.3333 939.333 66.3333ZM937.667 86.3333H919.333V104.667H902.667V86.3333H884.333V69.6667H902.667V51.3333H919.333V69.6667H937.667V86.3333Z" fill="#2591FA"/>
<path d="M1109.33 58.3333H1092.67V41.6667C1092.67 40.6667 1092 40 1091 40H1071C1070 40 1069.33 40.6667 1069.33 41.6667V58.3333H1052.67C1051.67 58.3333 1051 59 1051 60V80C1051 81 1051.67 81.6667 1052.67 81.6667H1069.33V98.3333C1069.33 99.3333 1070 100 1071 100H1091C1092 100 1092.67 99.3333 1092.67 98.3333V81.6667H1109.33C1110.33 81.6667 1111 81 1111 80V60C1111 59 1110.33 58.3333 1109.33 58.3333ZM1107.67 78.3333H1089.33V96.6667H1072.67V78.3333H1054.33V61.6667H1072.67V43.3333H1089.33V61.6667H1107.67V78.3333Z" fill="#128AFF"/>
<path d="M679.333 18.3333H662.667V1.66667C662.667 0.666667 662 0 661 0H641C640 0 639.333 0.666667 639.333 1.66667V18.3333H622.667C621.667 18.3333 621 19 621 20V40C621 41 621.667 41.6667 622.667 41.6667H639.333V58.3333C639.333 59.3333 640 60 641 60H661C662 60 662.667 59.3333 662.667 58.3333V41.6667H679.333C680.333 41.6667 681 41 681 40V20C681 19 680.333 18.3333 679.333 18.3333ZM677.667 38.3333H659.333V56.6667H642.667V38.3333H624.333V21.6667H642.667V3.33333H659.333V21.6667H677.667V38.3333Z" fill="#2591FA"/>
<path d="M373.333 58.3333H356.667V41.6667C356.667 40.6667 356 40 355 40H335C334 40 333.333 40.6667 333.333 41.6667V58.3333H316.667C315.667 58.3333 315 59 315 60V80C315 81 315.667 81.6667 316.667 81.6667H333.333V98.3333C333.333 99.3333 334 100 335 100H355C356 100 356.667 99.3333 356.667 98.3333V81.6667H373.333C374.333 81.6667 375 81 375 80V60C375 59 374.333 58.3333 373.333 58.3333ZM371.667 78.3333H353.333V96.6667H336.667V78.3333H318.333V61.6667H336.667V43.3333H353.333V61.6667H371.667V78.3333Z" fill="#2591FA"/>
<path d="M58.3333 91.3333H41.6667V74.6667C41.6667 73.6667 41 73 40 73H20C19 73 18.3333 73.6667 18.3333 74.6667V91.3333H1.66667C0.666667 91.3333 0 92 0 93V113C0 114 0.666667 114.667 1.66667 114.667H18.3333V131.333C18.3333 132.333 19 133 20 133H40C41 133 41.6667 132.333 41.6667 131.333V114.667H58.3333C59.3333 114.667 60 114 60 113V93C60 92 59.3333 91.3333 58.3333 91.3333ZM56.6667 111.333H38.3333V129.667H21.6667V111.333H3.33333V94.6667H21.6667V76.3333H38.3333V94.6667H56.6667V111.333Z" fill="#138BFF"/>
<path d="M343.333 507.333H326.667V490.667C326.667 489.667 326 489 325 489H305C304 489 303.333 489.667 303.333 490.667V507.333H286.667C285.667 507.333 285 508 285 509V529C285 530 285.667 530.667 286.667 530.667H303.333V547.333C303.333 548.333 304 549 305 549H325C326 549 326.667 548.333 326.667 547.333V530.667H343.333C344.333 530.667 345 530 345 529V509C345 508 344.333 507.333 343.333 507.333ZM341.667 527.333H323.333V545.667H306.667V527.333H288.333V510.667H306.667V492.333H323.333V510.667H341.667V527.333Z" fill="#2591FA"/>
<path d="M1109.33 220.333H1092.67V203.667C1092.67 202.667 1092 202 1091 202H1071C1070 202 1069.33 202.667 1069.33 203.667V220.333H1052.67C1051.67 220.333 1051 221 1051 222V242C1051 243 1051.67 243.667 1052.67 243.667H1069.33V260.333C1069.33 261.333 1070 262 1071 262H1091C1092 262 1092.67 261.333 1092.67 260.333V243.667H1109.33C1110.33 243.667 1111 243 1111 242V222C1111 221 1110.33 220.333 1109.33 220.333ZM1107.67 240.333H1089.33V258.667H1072.67V240.333H1054.33V223.667H1072.67V205.333H1089.33V223.667H1107.67V240.333Z" fill="#2591FA"/>
<path d="M761.333 322.333H744.667V305.667C744.667 304.667 744 304 743 304H723C722 304 721.333 304.667 721.333 305.667V322.333H704.667C703.667 322.333 703 323 703 324V344C703 345 703.667 345.667 704.667 345.667H721.333V362.333C721.333 363.333 722 364 723 364H743C744 364 744.667 363.333 744.667 362.333V345.667H761.333C762.333 345.667 763 345 763 344V324C763 323 762.333 322.333 761.333 322.333ZM759.667 342.333H741.333V360.667H724.667V342.333H706.333V325.667H724.667V307.333H741.333V325.667H759.667V342.333Z" fill="#2493FF"/>
<path d="M1049.33 446.333H1032.67V429.667C1032.67 428.667 1032 428 1031 428H1011C1010 428 1009.33 428.667 1009.33 429.667V446.333H992.667C991.667 446.333 991 447 991 448V468C991 469 991.667 469.667 992.667 469.667H1009.33V486.333C1009.33 487.333 1010 488 1011 488H1031C1032 488 1032.67 487.333 1032.67 486.333V469.667H1049.33C1050.33 469.667 1051 469 1051 468V448C1051 447 1050.33 446.333 1049.33 446.333ZM1047.67 466.333H1029.33V484.667H1012.67V466.333H994.333V449.667H1012.67V431.333H1029.33V449.667H1047.67V466.333Z" fill="#2591FA"/>
</svg>