<svg width="302" height="483" viewBox="0 0 302 483" fill="none" xmlns="http://www.w3.org/2000/svg">
<path d="M35.9722 346.306H25.6944V336.028C25.6944 335.411 25.2833 335 24.6667 335H12.3333C11.7167 335 11.3056 335.411 11.3056 336.028V346.306H1.02778C0.411111 346.306 0 346.717 0 347.333V359.667C0 360.283 0.411111 360.694 1.02778 360.694H11.3056V370.972C11.3056 371.589 11.7167 372 12.3333 372H24.6667C25.2833 372 25.6944 371.589 25.6944 370.972V360.694H35.9722C36.5889 360.694 37 360.283 37 359.667V347.333C37 346.717 36.5889 346.306 35.9722 346.306ZM34.9444 358.639H23.6389V369.944H13.3611V358.639H2.05556V348.361H13.3611V337.056H23.6389V348.361H34.9444V358.639Z" fill="#178DFF"/>
<path d="M224.972 277.306H214.694V267.028C214.694 266.411 214.283 266 213.667 266H201.333C200.717 266 200.306 266.411 200.306 267.028V277.306H190.028C189.411 277.306 189 277.717 189 278.333V290.667C189 291.283 189.411 291.694 190.028 291.694H200.306V301.972C200.306 302.589 200.717 303 201.333 303H213.667C214.283 303 214.694 302.589 214.694 301.972V291.694H224.972C225.589 291.694 226 291.283 226 290.667V278.333C226 277.717 225.589 277.306 224.972 277.306ZM223.944 289.639H212.639V300.944H202.361V289.639H191.056V279.361H202.361V268.056H212.639V279.361H223.944V289.639Z" fill="#178DFF"/>
<path d="M300.972 376.306H290.694V366.028C290.694 365.411 290.283 365 289.667 365H277.333C276.717 365 276.306 365.411 276.306 366.028V376.306H266.028C265.411 376.306 265 376.717 265 377.333V389.667C265 390.283 265.411 390.694 266.028 390.694H276.306V400.972C276.306 401.589 276.717 402 277.333 402H289.667C290.283 402 290.694 401.589 290.694 400.972V390.694H300.972C301.589 390.694 302 390.283 302 389.667V377.333C302 376.717 301.589 376.306 300.972 376.306ZM299.944 388.639H288.639V399.944H278.361V388.639H267.056V378.361H278.361V367.056H288.639V378.361H299.944V388.639Z" fill="#178DFF"/>
<path d="M67.9722 442.306H57.6944V432.028C57.6944 431.411 57.2833 431 56.6667 431H44.3333C43.7167 431 43.3056 431.411 43.3056 432.028V442.306H33.0278C32.4111 442.306 32 442.717 32 443.333V455.667C32 456.283 32.4111 456.694 33.0278 456.694H43.3056V466.972C43.3056 467.589 43.7167 468 44.3333 468H56.6667C57.2833 468 57.6944 467.589 57.6944 466.972V456.694H67.9722C68.5889 456.694 69 456.283 69 455.667V443.333C69 442.717 68.5889 442.306 67.9722 442.306ZM66.9444 454.639H55.6389V465.944H45.3611V454.639H34.0556V444.361H45.3611V433.056H55.6389V444.361H66.9444V454.639Z" fill="#178DFF"/>
<path d="M198.972 457.306H188.694V447.028C188.694 446.411 188.283 446 187.667 446H175.333C174.717 446 174.306 446.411 174.306 447.028V457.306H164.028C163.411 457.306 163 457.717 163 458.333V470.667C163 471.283 163.411 471.694 164.028 471.694H174.306V481.972C174.306 482.589 174.717 483 175.333 483H187.667C188.283 483 188.694 482.589 188.694 481.972V471.694H198.972C199.589 471.694 200 471.283 200 470.667V458.333C200 457.717 199.589 457.306 198.972 457.306ZM197.944 469.639H186.639V480.944H176.361V469.639H165.056V459.361H176.361V448.056H186.639V459.361H197.944V469.639Z" fill="#178DFF"/>
<path d="M295.972 100.306H285.694V90.0278C285.694 89.4111 285.283 89 284.667 89H272.333C271.717 89 271.306 89.4111 271.306 90.0278V100.306H261.028C260.411 100.306 260 100.717 260 101.333V113.667C260 114.283 260.411 114.694 261.028 114.694H271.306V124.972C271.306 125.589 271.717 126 272.333 126H284.667C285.283 126 285.694 125.589 285.694 124.972V114.694H295.972C296.589 114.694 297 114.283 297 113.667V101.333C297 100.717 296.589 100.306 295.972 100.306ZM294.944 112.639H283.639V123.944H273.361V112.639H262.056V102.361H273.361V91.0556H283.639V102.361H294.944V112.639Z" fill="#2694FF"/>
<path d="M260.972 218.306H250.694V208.028C250.694 207.411 250.283 207 249.667 207H237.333C236.717 207 236.306 207.411 236.306 208.028V218.306H226.028C225.411 218.306 225 218.717 225 219.333V231.667C225 232.283 225.411 232.694 226.028 232.694H236.306V242.972C236.306 243.589 236.717 244 237.333 244H249.667C250.283 244 250.694 243.589 250.694 242.972V232.694H260.972C261.589 232.694 262 232.283 262 231.667V219.333C262 218.717 261.589 218.306 260.972 218.306ZM259.944 230.639H248.639V241.944H238.361V230.639H227.056V220.361H238.361V209.056H248.639V220.361H259.944V230.639Z" fill="#369CFF"/>
<path d="M91.9722 245.306H81.6944V235.028C81.6944 234.411 81.2833 234 80.6667 234H68.3333C67.7167 234 67.3056 234.411 67.3056 235.028V245.306H57.0278C56.4111 245.306 56 245.717 56 246.333V258.667C56 259.283 56.4111 259.694 57.0278 259.694H67.3056V269.972C67.3056 270.589 67.7167 271 68.3333 271H80.6667C81.2833 271 81.6944 270.589 81.6944 269.972V259.694H91.9722C92.5889 259.694 93 259.283 93 258.667V246.333C93 245.717 92.5889 245.306 91.9722 245.306ZM90.9444 257.639H79.6389V268.944H69.3611V257.639H58.0556V247.361H69.3611V236.056H79.6389V247.361H90.9444V257.639Z" fill="#2992F8"/>
<path d="M111.778 13.4444H99.5556V1.22222C99.5556 0.488889 99.0667 0 98.3333 0H83.6667C82.9333 0 82.4444 0.488889 82.4444 1.22222V13.4444H70.2222C69.4889 13.4444 69 13.9333 69 14.6667V29.3333C69 30.0667 69.4889 30.5556 70.2222 30.5556H82.4444V42.7778C82.4444 43.5111 82.9333 44 83.6667 44H98.3333C99.0667 44 99.5556 43.5111 99.5556 42.7778V30.5556H111.778C112.511 30.5556 113 30.0667 113 29.3333V14.6667C113 13.9333 112.511 13.4444 111.778 13.4444ZM110.556 28.1111H97.1111V41.5556H84.8889V28.1111H71.4444V15.8889H84.8889V2.44444H97.1111V15.8889H110.556V28.1111Z" fill="#389DFF"/>
<path d="M47.7778 120.444H35.5556V108.222C35.5556 107.489 35.0667 107 34.3333 107H19.6667C18.9333 107 18.4444 107.489 18.4444 108.222V120.444H6.22222C5.48889 120.444 5 120.933 5 121.667V136.333C5 137.067 5.48889 137.556 6.22222 137.556H18.4444V149.778C18.4444 150.511 18.9333 151 19.6667 151H34.3333C35.0667 151 35.5556 150.511 35.5556 149.778V137.556H47.7778C48.5111 137.556 49 137.067 49 136.333V121.667C49 120.933 48.5111 120.444 47.7778 120.444ZM46.5556 135.111H33.1111V148.556H20.8889V135.111H7.44444V122.889H20.8889V109.444H33.1111V122.889H46.5556V135.111Z" fill="#2493FF"/>
<path d="M219.917 21.9167H209.083V11.0833C209.083 10.4333 208.65 10 208 10H195C194.35 10 193.917 10.4333 193.917 11.0833V21.9167H183.083C182.433 21.9167 182 22.35 182 23V36C182 36.65 182.433 37.0833 183.083 37.0833H193.917V47.9167C193.917 48.5667 194.35 49 195 49H208C208.65 49 209.083 48.5667 209.083 47.9167V37.0833H219.917C220.567 37.0833 221 36.65 221 36V23C221 22.35 220.567 21.9167 219.917 21.9167ZM218.833 34.9167H206.917V46.8333H196.083V34.9167H184.167V24.0833H196.083V12.1667H206.917V24.0833H218.833V34.9167Z" fill="#2694FF"/>
<path d="M191.917 171.917H181.083V161.083C181.083 160.433 180.65 160 180 160H167C166.35 160 165.917 160.433 165.917 161.083V171.917H155.083C154.433 171.917 154 172.35 154 173V186C154 186.65 154.433 187.083 155.083 187.083H165.917V197.917C165.917 198.567 166.35 199 167 199H180C180.65 199 181.083 198.567 181.083 197.917V187.083H191.917C192.567 187.083 193 186.65 193 186V173C193 172.35 192.567 171.917 191.917 171.917ZM190.833 184.917H178.917V196.833H168.083V184.917H156.167V174.083H168.083V162.167H178.917V174.083H190.833V184.917Z" fill="#2493FF"/>
</svg>
