<svg xmlns="http://www.w3.org/2000/svg" viewBox="0 0 409.82 45.71"><defs><style>.cls-1{fill:#393839;}.cls-2{fill:#0ad3b6;}.cls-3{fill:#0a86ff;}</style></defs><title>Asset 16</title><g id="Layer_2" data-name="Layer 2"><g id="Layer_1-2" data-name="Layer 1"><path class="cls-1" d="M24.31,36.2V16L16.65,27.9H13.52L5.78,16V36.2H0V6.06H6.17L15,20.23,23.92,6.06h6.17V36.2Z"/><path class="cls-1" d="M45.8,36.6A13.46,13.46,0,0,1,41,35.72a9.17,9.17,0,0,1-3.59-2.48,10.73,10.73,0,0,1-2.27-3.6,11.21,11.21,0,0,1-.78-4.23,11.38,11.38,0,0,1,.78-4.32,12.15,12.15,0,0,1,2.27-3.6A11.62,11.62,0,0,1,41,15a11.86,11.86,0,0,1,4.85-.87,12.91,12.91,0,0,1,4.77.87,11.62,11.62,0,0,1,3.59,2.48,10.73,10.73,0,0,1,2.27,3.6,11.38,11.38,0,0,1,.78,4.32,11,11,0,0,1-.78,4.23,10.73,10.73,0,0,1-2.27,3.6,11.62,11.62,0,0,1-3.59,2.48A12.41,12.41,0,0,1,45.8,36.6ZM40.09,25.41A7.19,7.19,0,0,0,40.56,28a7.29,7.29,0,0,0,1.25,2.08,6.07,6.07,0,0,0,1.8,1.36,5.58,5.58,0,0,0,4.53,0,5.11,5.11,0,0,0,1.8-1.36A6,6,0,0,0,51.19,28a7.62,7.62,0,0,0,0-5.27,6,6,0,0,0-1.25-2.08,6,6,0,0,0-1.8-1.36,5.58,5.58,0,0,0-4.53,0,5.2,5.2,0,0,0-1.8,1.36,6.34,6.34,0,0,0-1.25,2.08A6.1,6.1,0,0,0,40.09,25.41Z"/><path class="cls-1" d="M73.78,36.6a9,9,0,0,1-4.46-1.12,8.28,8.28,0,0,1-3.12-3V36.2H61.27V6.06H66.9V18.37a8.21,8.21,0,0,1,7.5-4.23,9.19,9.19,0,0,1,3.91.87,10.28,10.28,0,0,1,3,2.48,11.37,11.37,0,0,1,2,3.6A13.14,13.14,0,0,1,84,25.41a11.69,11.69,0,0,1-.78,4.39,10.82,10.82,0,0,1-2.19,3.52,11,11,0,0,1-3.29,2.4A8.13,8.13,0,0,1,73.78,36.6Zm-1.56-4.72a6.62,6.62,0,0,0,2.5-.48,5.8,5.8,0,0,0,2-1.36,6.48,6.48,0,0,0,1.25-2,6.66,6.66,0,0,0,.47-2.47A9.38,9.38,0,0,0,78,23a7.42,7.42,0,0,0-1.17-2.08A5.22,5.22,0,0,0,75,19.49a5.65,5.65,0,0,0-2.35-.56,5.11,5.11,0,0,0-3.36,1.2,8.25,8.25,0,0,0-2.26,3v5.19a4.14,4.14,0,0,0,.86,1.52,5.47,5.47,0,0,0,1.25,1.12,5.54,5.54,0,0,0,1.56.72A4.16,4.16,0,0,0,72.22,31.88Z"/><path class="cls-1" d="M88.08,11.5V6.06h5.63v5.52H88.08Zm0,24.7V14.54h5.63V36.2Z"/><path class="cls-1" d="M98.94,6.06h5.63V29.32a2.29,2.29,0,0,0,.63,1.84,1.93,1.93,0,0,0,1.64.64,6,6,0,0,0,1.09-.16,6.74,6.74,0,0,0,1.17-.4l.79,4.24a11.73,11.73,0,0,1-2.66.8,19.12,19.12,0,0,1-2.74.32,5.7,5.7,0,0,1-4.06-1.36,5.36,5.36,0,0,1-1.49-3.92Z"/><path class="cls-1" d="M112.47,11.5V6.06h5.62v5.52h-5.62Zm0,24.7V14.54h5.62V36.2Z"/><path class="cls-1" d="M136.54,35.08a26.41,26.41,0,0,1-2.74,1,12.27,12.27,0,0,1-3.44.48,6.64,6.64,0,0,1-2.19-.32,4.74,4.74,0,0,1-3-2.64,5.72,5.72,0,0,1-.47-2.48V18.77h-2.89V14.54h2.89V6.06h5.62v8.56h4.62v4.23h-4.62V29.4a1.9,1.9,0,0,0,.63,1.6,2.37,2.37,0,0,0,1.49.48,4.07,4.07,0,0,0,1.71-.32,8.08,8.08,0,0,0,1.33-.48Z"/><path class="cls-1" d="M140.21,40.43a9,9,0,0,0,1.41.32,6.23,6.23,0,0,0,1.09.08,2.16,2.16,0,0,0,1-.24,2.53,2.53,0,0,0,.86-.72,10.44,10.44,0,0,0,.78-1.43,23.65,23.65,0,0,0,.78-2.24l-8.68-21.66h5.79L149.2,31.4l5.31-16.86h5.32l-9.3,26a8.07,8.07,0,0,1-2.74,3.76A7.7,7.7,0,0,1,143,45.71a6.94,6.94,0,0,1-1.32-.08,12.59,12.59,0,0,1-1.49-.32Z"/><path class="cls-2" d="M165,19.45,181.8,3.76,185,.66a.39.39,0,0,0-.3-.66H171.89a7.5,7.5,0,0,0-7.58,7.37V19.16A.4.4,0,0,0,165,19.45Z"/><path class="cls-2" d="M171.28,22.56h16.41a.35.35,0,0,0,.37-.38V6.34a.4.4,0,0,0-.67-.3L171,21.81A.44.44,0,0,0,171.28,22.56Z"/><path class="cls-3" d="M193.84,0a.41.41,0,0,0-.44.37V22.19a.35.35,0,0,0,.37.37h7a.35.35,0,0,0,.37-.37V7.3A7.38,7.38,0,0,0,193.84,0Z"/><path class="cls-3" d="M164.31,28.41a.54.54,0,0,1,.46-.51h22.84a.48.48,0,0,1,.45.43v7.45a.41.41,0,0,1-.38.43H172A7.81,7.81,0,0,1,164.31,28.41Z"/><path class="cls-3" d="M200.75,27.9h-7a.35.35,0,0,0-.37.37v7.58a.34.34,0,0,0,.37.36H194a7.36,7.36,0,0,0,7.13-7.14v-.73C201.12,28.05,201,27.9,200.75,27.9Z"/><path class="cls-1" d="M231.52,7.75V34.16a1.8,1.8,0,1,1-3.58,0V22.45H212.28V34.08a1.8,1.8,0,1,1-3.58,0V7.67a1.79,1.79,0,1,1,3.58,0V19h15.66V7.75a1.88,1.88,0,0,1,1.79-1.92A1.83,1.83,0,0,1,231.52,7.75Z"/><path class="cls-1" d="M285,5.83a1.81,1.81,0,0,1,1.79,1.84V30.32a2.69,2.69,0,0,0,.59,1.84,2.12,2.12,0,0,0,1.72.64,5.39,5.39,0,0,0,1-.16,1.07,1.07,0,0,1,1.34.88l.15.72a1.15,1.15,0,0,1-.74,1.28,5.11,5.11,0,0,0-1.12.33,11,11,0,0,1-2.09.24,4.23,4.23,0,0,1-3.2-1.21,4.46,4.46,0,0,1-1.2-3.36v-24A1.72,1.72,0,0,1,285,5.83Z"/><path class="cls-1" d="M305.24,33.76a1.13,1.13,0,0,1-.6,1.36c-.37.16-.74.32-1.19.48A7.36,7.36,0,0,1,302,36a10.36,10.36,0,0,1-1.64.16A5.52,5.52,0,0,1,297,35a4.21,4.21,0,0,1-1.42-3.52V16.31h-1.41a1.52,1.52,0,0,1,0-3h1.41V7.67a1.79,1.79,0,1,1,3.58,0v5.6h3.28a1.52,1.52,0,0,1,0,3H299.2v14a2.74,2.74,0,0,0,.75,1.84,2.22,2.22,0,0,0,1.56.56,4.66,4.66,0,0,0,1.87-.4c.07,0,.07-.08.14-.08a1,1,0,0,1,1.35.72Z"/><path class="cls-1" d="M325.14,36.12a1.81,1.81,0,0,1-1.79-1.84V23.84a9,9,0,0,0-1.11-5,3.67,3.67,0,0,0-3.28-1.6,6.4,6.4,0,0,0-2.09.4,7.24,7.24,0,0,0-1.94,1.2,8.33,8.33,0,0,0-1.57,1.77,7.09,7.09,0,0,0-1,2,1.36,1.36,0,0,0-.08.56V34.36a1.87,1.87,0,0,1-1.79,1.84,1.81,1.81,0,0,1-1.79-1.84V7.67a1.87,1.87,0,0,1,1.79-1.84,1.81,1.81,0,0,1,1.79,1.84V19a9.09,9.09,0,0,1,3.36-3.68,8.59,8.59,0,0,1,4.62-1.28,6.54,6.54,0,0,1,3.13.72,5.38,5.38,0,0,1,2,1.92,8.1,8.1,0,0,1,1.12,2.88,18.61,18.61,0,0,1,.37,3.53V34.44A1.83,1.83,0,0,1,325.14,36.12Z"/><path class="cls-1" d="M387.73,15.75a1.25,1.25,0,0,1-1,1.27,8.29,8.29,0,0,0-3.59,1.36,7.17,7.17,0,0,0-2.76,3.54,1.43,1.43,0,0,0-.09.5V34a1.81,1.81,0,0,1-1.75,1.87h0A1.81,1.81,0,0,1,376.75,34V14.64a1.22,1.22,0,0,1,1.16-1.28h.94A1.22,1.22,0,0,1,380,14.64V18.8a10.39,10.39,0,0,1,2.83-3.72,6.74,6.74,0,0,1,3.67-1.58h.74a3.08,3.08,0,0,1,.48,0Z"/><path class="cls-1" d="M257.16,24.08a12,12,0,0,0-2.85-7.48,10,10,0,0,0-1.68-1.51,11,11,0,0,0-1.63-1,9.28,9.28,0,0,0-3-.85l-.31,0c-.28,0-.56,0-.85,0h-.2a10.11,10.11,0,0,0-4.35.91,10.5,10.5,0,0,0-3.34,2.46,10.78,10.78,0,0,0-2.17,3.61,12.64,12.64,0,0,0-.76,4.4v.05a12.58,12.58,0,0,0,.78,4.42A11.22,11.22,0,0,0,239,32.7a10.11,10.11,0,0,0,7.69,3.39,10.49,10.49,0,0,0,3-.43,10.65,10.65,0,0,0,2.59-1.14,8.45,8.45,0,0,0,2-1.74l.08-.09a1.8,1.8,0,0,0-.8-2.81l-.17-.05a1.47,1.47,0,0,0-.69,0,1.71,1.71,0,0,0-1.06.68,3.88,3.88,0,0,1-.26.31A6.29,6.29,0,0,1,250,31.85a6.62,6.62,0,0,1-1.64.74,6,6,0,0,1-1.83.28,5.84,5.84,0,0,1-2.7-.64,6.77,6.77,0,0,1-2.21-1.75,8.66,8.66,0,0,1-1.5-2.65,7.93,7.93,0,0,1-.38-1.37c0-.19-.05-.38-.06-.57h17.36a5.42,5.42,0,0,0,.06-.6C257.16,24.94,257.16,24.54,257.16,24.08Zm-3.33-.94H239.64a8.58,8.58,0,0,1,.7-2.87A7.53,7.53,0,0,1,241.86,18a7,7,0,0,1,2.19-1.48,6.87,6.87,0,0,1,5.29,0A7.12,7.12,0,0,1,251.53,18a7.6,7.6,0,0,1,1.09,1.4,8,8,0,0,1,.47.87,8.32,8.32,0,0,1,.74,2.89Z"/><path class="cls-1" d="M409.82,24.08a10.68,10.68,0,0,0-.2-2A11.72,11.72,0,0,0,407,16.6a9.71,9.71,0,0,0-1.69-1.51,10.85,10.85,0,0,0-1.62-1,9.34,9.34,0,0,0-3-.85l-.3,0c-.28,0-.57,0-.85,0h-.2a10.11,10.11,0,0,0-4.35.91,10.57,10.57,0,0,0-5.51,6.07,12.65,12.65,0,0,0-.77,4.4v.05a12.36,12.36,0,0,0,.79,4.42,11.2,11.2,0,0,0,2.18,3.66A10.42,10.42,0,0,0,395,35.18a10.27,10.27,0,0,0,4.33.91,10.54,10.54,0,0,0,3-.43,10.41,10.41,0,0,0,2.58-1.14,8.5,8.5,0,0,0,2-1.74l.08-.09a1.8,1.8,0,0,0-.81-2.81l-.16-.05a1.48,1.48,0,0,0-.69,0,1.76,1.76,0,0,0-1.07.68,3.88,3.88,0,0,1-.26.31,6.23,6.23,0,0,1-1.3,1.08,6.86,6.86,0,0,1-1.65.74,6,6,0,0,1-1.82.28,5.88,5.88,0,0,1-2.71-.64,6.84,6.84,0,0,1-2.2-1.75,8.83,8.83,0,0,1-1.88-4c0-.19-.05-.38-.07-.57h17.36a3.73,3.73,0,0,0,.06-.6C409.82,24.94,409.83,24.54,409.82,24.08Zm-3.32-.94H392.3a8.83,8.83,0,0,1,.7-2.87A7.56,7.56,0,0,1,394.53,18a7,7,0,0,1,2.18-1.48,6.89,6.89,0,0,1,5.3,0A7.19,7.19,0,0,1,404.19,18a7.6,7.6,0,0,1,1.09,1.4,8,8,0,0,1,.47.87,8.11,8.11,0,0,1,.75,2.89Z"/><path class="cls-1" d="M331,24.65a12.94,12.94,0,0,1,.75-4.42,11,11,0,0,1,2.14-3.63,10.34,10.34,0,0,1,3.3-2.46,9.86,9.86,0,0,1,4.3-.91,9.1,9.1,0,0,1,7.35,3.26,1.82,1.82,0,0,1-.76,2.84l-.05,0a1.63,1.63,0,0,1-1.84-.55,5.67,5.67,0,0,0-1.62-1.47,5.94,5.94,0,0,0-3.16-.87,6.06,6.06,0,0,0-2.69.61,6.38,6.38,0,0,0-2.18,1.72,8.46,8.46,0,0,0-1.44,2.59,10,10,0,0,0,0,6.54,8.62,8.62,0,0,0,1.48,2.65,6.86,6.86,0,0,0,2.18,1.77,5.83,5.83,0,0,0,2.67.63,6.24,6.24,0,0,0,1.8-.27,6.67,6.67,0,0,0,1.62-.75,5.86,5.86,0,0,0,1.28-1.08,3.56,3.56,0,0,0,.26-.31,1.55,1.55,0,0,1,1.73-.64l.17,0a1.82,1.82,0,0,1,.79,2.82l-.08.1a8.17,8.17,0,0,1-2,1.74,10.59,10.59,0,0,1-2.55,1.15,10.19,10.19,0,0,1-2.94.42,9.76,9.76,0,0,1-4.28-.93,10.45,10.45,0,0,1-3.32-2.51,11.48,11.48,0,0,1-2.16-3.67A12.87,12.87,0,0,1,331,24.65Z"/><path class="cls-1" d="M359.86,36.2a7.18,7.18,0,0,1-2.76-.53,6.78,6.78,0,0,1-4.23-6.35,6,6,0,0,1,.64-2.77,6.17,6.17,0,0,1,1.82-2.13,8.91,8.91,0,0,1,2.79-1.4,11.67,11.67,0,0,1,3.53-.5,16.11,16.11,0,0,1,3.07.29c.52.1,1,.22,1.46.35a1.05,1.05,0,0,0,1.3-1.07v-.25A6,6,0,0,0,366,17.6,5.28,5.28,0,0,0,362,16.05,10.49,10.49,0,0,0,356.29,18a1,1,0,0,1-1.47-.43l-.2-.43a1.13,1.13,0,0,1,.36-1.43,13.49,13.49,0,0,1,7.31-2.33,8.62,8.62,0,0,1,6.4,2.32,8.92,8.92,0,0,1,2.3,6.55v9a1.24,1.24,0,0,0,.56,1.22,1.05,1.05,0,0,1,.55,1v1.42a1.07,1.07,0,0,1-.91,1.08h0a6.06,6.06,0,0,1-.76.05,2.18,2.18,0,0,1-1.66-.66,2.67,2.67,0,0,1-.73-1.58L368,32.15a9.2,9.2,0,0,1-3.54,3A10.43,10.43,0,0,1,359.86,36.2Zm.91-2.79a8.23,8.23,0,0,0,3.5-.74,5.79,5.79,0,0,0,2.45-2,2.43,2.43,0,0,0,.76-1.65V26.58a1.07,1.07,0,0,0-.69-1,13.69,13.69,0,0,0-4.62-.8,7.19,7.19,0,0,0-4.29,1.19A3.62,3.62,0,0,0,356.22,29a4.48,4.48,0,0,0,.34,1.73,4.26,4.26,0,0,0,1,1.4,4.48,4.48,0,0,0,1.46.92A4.64,4.64,0,0,0,360.77,33.41Z"/><path class="cls-1" d="M266.38,36.2a7.22,7.22,0,0,1-2.76-.53,6.78,6.78,0,0,1-4.23-6.35,6,6,0,0,1,.64-2.77,6.17,6.17,0,0,1,1.82-2.13,8.91,8.91,0,0,1,2.79-1.4,11.72,11.72,0,0,1,3.53-.5,16.29,16.29,0,0,1,3.08.29c.51.1,1,.22,1.46.35A1,1,0,0,0,274,22.09v-.25a6,6,0,0,0-1.44-4.24,5.28,5.28,0,0,0-4.07-1.55A10.49,10.49,0,0,0,262.81,18a1,1,0,0,1-1.47-.43l-.2-.43a1.14,1.14,0,0,1,.37-1.43,13.45,13.45,0,0,1,7.3-2.33,8.64,8.64,0,0,1,6.41,2.32,9,9,0,0,1,2.29,6.55v9a1.23,1.23,0,0,0,.57,1.22,1.07,1.07,0,0,1,.55,1v1.42a1.07,1.07,0,0,1-.91,1.08h0A6.06,6.06,0,0,1,277,36a2.15,2.15,0,0,1-1.65-.66,2.68,2.68,0,0,1-.74-1.58l-.08-1.56a9.17,9.17,0,0,1-3.53,3A10.51,10.51,0,0,1,266.38,36.2Zm.92-2.79a8.19,8.19,0,0,0,3.49-.74,5.79,5.79,0,0,0,2.45-2,2.39,2.39,0,0,0,.76-1.65V26.58a1.07,1.07,0,0,0-.69-1,13.69,13.69,0,0,0-4.62-.8,7.23,7.23,0,0,0-4.29,1.19A3.61,3.61,0,0,0,262.75,29a4.31,4.31,0,0,0,.34,1.73,4.09,4.09,0,0,0,1,1.4,4.58,4.58,0,0,0,1.46.92A4.69,4.69,0,0,0,267.3,33.41Z"/></g></g></svg>