<svg id="Layer_1" data-name="Layer 1" xmlns="http://www.w3.org/2000/svg" viewBox="0 0 24.72 24.72"><defs><style>.cls-1{fill:#fff;}</style></defs><title>icon-insta</title><path class="cls-1" d="M15.78,7.15a46.14,46.14,0,0,0-6.45,0,2.21,2.21,0,0,0-2.07,2,43.82,43.82,0,0,0,0,6.61,2.15,2.15,0,0,0,1.63,1.85,39,39,0,0,0,6.75.09,2.22,2.22,0,0,0,2.08-2,47,47,0,0,0,0-6.43A2.22,2.22,0,0,0,15.78,7.15Zm-3.29,8.59a3.36,3.36,0,1,1,3.36-3.36A3.36,3.36,0,0,1,12.49,15.74ZM16,9.69a.79.79,0,1,1,.79-.78A.79.79,0,0,1,16,9.69Z"/><circle class="cls-1" cx="12.49" cy="12.38" r="2.17" transform="translate(-0.01 24.76) rotate(-89.48)"/><path class="cls-1" d="M12.36,0A12.36,12.36,0,1,0,24.72,12.36,12.36,12.36,0,0,0,12.36,0Zm6.48,16.17A3.32,3.32,0,0,1,16,18.78a38.83,38.83,0,0,1-7.25,0A3.31,3.31,0,0,1,6.1,15.88a36.55,36.55,0,0,1,.07-7.35A3.3,3.3,0,0,1,9,6a47.23,47.23,0,0,1,6.48-.07,3.63,3.63,0,0,1,2.4,1,3.47,3.47,0,0,1,1.06,2.23A41.14,41.14,0,0,1,18.84,16.17Z"/></svg>