<svg width="49" height="49" viewBox="0 0 49 49" fill="none" xmlns="http://www.w3.org/2000/svg">
<path fill-rule="evenodd" clip-rule="evenodd" d="M24.5 0C10.8669 0 0 10.8669 0 24.5C0 37.9355 10.8669 49 24.5 49C38.1331 49 49 38.1331 49 24.5C48.8024 10.8669 37.9355 0 24.5 0ZM30.625 15.4113C30.4274 15.4113 30.4274 15.4113 30.2298 15.4113C29.2419 15.4113 28.4516 15.4113 27.6613 15.4113C26.4758 15.4113 25.4879 16.004 25.4879 17.3871C25.4879 18.5726 25.4879 21.1411 25.4879 21.1411C25.4879 21.1411 28.254 21.1411 29.6371 21.1411C30.0323 21.1411 30.2298 21.1411 30.625 21.1411C30.4274 22.9194 30.2298 24.6976 30.0323 26.2782H25.6855V39.3186H20.3508V26.2782H15.6089V21.1411H19.9556V20.746C19.9556 19.7581 19.9556 18.7702 19.9556 17.5847C19.9556 16.9919 19.9556 16.2016 20.1532 15.6089C20.3508 14.0282 21.1411 12.6452 22.5242 11.6573C23.7097 10.8669 24.8952 10.4718 26.4758 10.4718C27.4637 10.4718 28.254 10.4718 29.2419 10.4718C29.8347 10.4718 30.2298 10.4718 30.625 10.6694V15.4113Z" fill="#DCDCDC"/>
</svg>
