<svg width="49" height="49" viewBox="0 0 49 49" fill="none" xmlns="http://www.w3.org/2000/svg">
<path d="M31.2178 14.2258C29.0444 13.8306 20.746 13.8306 18.3751 14.0282C16.2017 14.4234 14.621 15.8064 14.4235 17.9798C14.0283 20.3508 14.2259 29.2419 14.4235 31.0202C14.8186 32.7984 15.8065 34.1814 17.5847 34.5766C19.5606 35.1693 28.8468 34.9718 31.0202 34.7742C33.1936 34.5766 34.7743 33.1935 35.1694 30.8226C35.5646 28.4516 35.367 20.1532 35.1694 18.1774C34.7743 16.004 33.3912 14.4234 31.2178 14.2258ZM24.6977 31.0202C20.9436 31.0202 17.9799 28.0564 17.9799 24.3024C17.9799 20.5484 20.9436 17.5847 24.6977 17.5847C28.4517 17.5847 31.4154 20.5484 31.4154 24.3024C31.2178 28.0564 28.2541 31.0202 24.6977 31.0202ZM31.613 19.1653C30.8227 19.1653 30.0323 18.375 30.0323 17.5847C30.0323 16.7943 30.8227 16.004 31.613 16.004C32.4033 16.004 33.1936 16.7943 33.1936 17.5847C33.1936 18.375 32.4033 19.1653 31.613 19.1653Z" fill="#DCDCDC"/>
<path d="M29.0551 24.4853C29.0767 22.0847 27.1481 20.1211 24.7474 20.0995C22.3468 20.0779 20.3831 22.0065 20.3616 24.4071C20.34 26.8078 22.2686 28.7714 24.6692 28.793C27.0699 28.8146 29.0335 26.886 29.0551 24.4853Z" fill="#DCDCDC"/>
<path d="M24.5 0C10.8669 0 0 10.8669 0 24.5C0 37.9355 10.8669 49 24.5 49C37.9355 49 49 38.1331 49 24.5C48.8024 10.8669 37.9355 0 24.5 0ZM37.1452 32.0081C36.3548 34.9718 34.379 36.75 31.4153 37.1452C29.2419 37.5403 19.1653 37.5403 17.1895 37.1452C14.2258 36.3548 12.4476 34.379 12.0524 31.4153C11.6573 29.2419 11.6573 19.1653 12.25 16.7944C13.0403 14.0282 14.8185 12.25 17.7823 11.8548C20.3508 11.4597 27.4637 11.4597 30.625 11.6573C32.4032 11.6573 33.9839 12.25 35.3669 13.6331C36.5524 14.8185 37.3427 16.3992 37.5403 17.9798C37.5403 20.1532 37.7379 29.6371 37.1452 32.0081Z" fill="#DCDCDC"/>
</svg>
