<svg width="40" height="40" viewBox="0 0 40 40" fill="none" xmlns="http://www.w3.org/2000/svg">
<path d="M25.4839 11.6129C23.7097 11.2904 16.9355 11.2904 15.0001 11.4516C13.2259 11.7742 11.9355 12.9033 11.7743 14.6775C11.4517 16.6129 11.613 23.871 11.7743 25.3226C12.0968 26.7742 12.9033 27.9033 14.3549 28.2258C15.9678 28.7097 23.5484 28.5484 25.3226 28.3871C27.0968 28.2258 28.3872 27.0968 28.7097 25.1613C29.0323 23.2258 28.871 16.4516 28.7097 14.8387C28.3872 13.0646 27.2581 11.7742 25.4839 11.6129ZM20.1614 25.3226C17.0968 25.3226 14.6775 22.9033 14.6775 19.8387C14.6775 16.7742 17.0968 14.3549 20.1614 14.3549C23.2259 14.3549 25.6452 16.7742 25.6452 19.8387C25.4839 22.9033 23.0646 25.3226 20.1614 25.3226ZM25.8065 15.6452C25.1614 15.6452 24.5162 15 24.5162 14.3549C24.5162 13.7097 25.1614 13.0646 25.8065 13.0646C26.4517 13.0646 27.0968 13.7097 27.0968 14.3549C27.0968 15 26.4517 15.6452 25.8065 15.6452Z" fill="#0AD3B6"/>
<path d="M23.7184 19.9881C23.736 18.0284 22.1617 16.4254 20.202 16.4078C18.2422 16.3902 16.6393 17.9645 16.6216 19.9243C16.604 21.884 18.1784 23.4869 20.1381 23.5046C22.0978 23.5222 23.7008 21.9478 23.7184 19.9881Z" fill="#0AD3B6"/>
<path d="M20 0C8.87097 0 0 8.87097 0 20C0 30.9677 8.87097 40 20 40C30.9677 40 40 31.129 40 20C39.8387 8.87097 30.9677 0 20 0ZM30.3226 26.129C29.6774 28.5484 28.0645 30 25.6452 30.3226C23.871 30.6452 15.6452 30.6452 14.0323 30.3226C11.6129 29.6774 10.1613 28.0645 9.83871 25.6452C9.51613 23.871 9.51613 15.6452 10 13.7097C10.6452 11.4516 12.0968 10 14.5161 9.67742C16.6129 9.35484 22.4194 9.35484 25 9.51613C26.4516 9.51613 27.7419 10 28.871 11.129C29.8387 12.0968 30.4839 13.3871 30.6452 14.6774C30.6452 16.4516 30.8065 24.1936 30.3226 26.129Z" fill="#0AD3B6"/>
</svg>
