<svg width="40" height="40" viewBox="0 0 40 40" fill="none" xmlns="http://www.w3.org/2000/svg">
<path fill-rule="evenodd" clip-rule="evenodd" d="M20 0C8.87097 0 0 8.87097 0 20C0 30.9677 8.87097 40 20 40C31.129 40 40 31.129 40 20C39.8387 8.87097 30.9677 0 20 0ZM25 12.5806C24.8387 12.5806 24.8387 12.5806 24.6774 12.5806C23.871 12.5806 23.2258 12.5806 22.5806 12.5806C21.6129 12.5806 20.8065 13.0645 20.8065 14.1936C20.8065 15.1613 20.8065 17.2581 20.8065 17.2581C20.8065 17.2581 23.0645 17.2581 24.1935 17.2581C24.5161 17.2581 24.6774 17.2581 25 17.2581C24.8387 18.7097 24.6774 20.1613 24.5161 21.4516H20.9677V32.0968H16.6129V21.4516H12.7419V17.2581H16.2903V16.9355C16.2903 16.129 16.2903 15.3226 16.2903 14.3548C16.2903 13.871 16.2903 13.2258 16.4516 12.7419C16.6129 11.4516 17.2581 10.3226 18.3871 9.51613C19.3548 8.87097 20.3226 8.54839 21.6129 8.54839C22.4194 8.54839 23.0645 8.54839 23.871 8.54839C24.3548 8.54839 24.6774 8.54839 25 8.70968V12.5806Z" fill="#0AD3B6"/>
</svg>
