<svg id="Layer_1" data-name="Layer 1" xmlns="http://www.w3.org/2000/svg" viewBox="0 0 24.72 24.72"><defs><style>.cls-1{fill:#fff;fill-rule:evenodd;}</style></defs><title>icon-facebook</title><path class="cls-1" d="M12.36,0A12.36,12.36,0,1,0,24.72,12.36,12.36,12.36,0,0,0,12.36,0Zm3.12,7.77H15.3c-.45,0-.9,0-1.35,0-.62,0-1.07.26-1.09,1,0,.56,0,1.86,0,1.86h2.58l-.34,2.62H12.85v6.56H10.13V13.27H7.91V10.66h2.24v-.2c0-.53,0-1,0-1.57a6.82,6.82,0,0,1,.08-1,2.93,2.93,0,0,1,1.17-2,3.39,3.39,0,0,1,2-.6c.46,0,.92,0,1.38,0,.25,0,.5,0,.74.07Z"/></svg>