<svg width="49" height="49" viewBox="0 0 49 49" fill="none" xmlns="http://www.w3.org/2000/svg">
<path fill-rule="evenodd" clip-rule="evenodd" d="M24.5 0C11.0645 0 0 10.8669 0 24.5C0 37.9355 10.8669 49 24.5 49C37.9355 49 49 38.1331 49 24.5C48.8024 10.8669 37.9355 0 24.5 0ZM38.7258 17.3871C38.1331 18.1774 37.3427 18.7702 36.5524 19.3629C36.5524 19.3629 36.5524 19.3629 36.5524 19.5605C36.5524 20.3508 36.5524 21.3387 36.3548 22.129C36.1573 23.9073 35.5645 25.6855 34.9718 27.2661C34.1815 28.8468 33.1936 30.4274 31.8105 31.8105C29.6371 33.9839 27.0686 35.5645 23.9073 36.1573C22.9194 36.3548 21.7339 36.5524 20.746 36.5524C17.3871 36.5524 14.4234 35.7621 11.4597 34.1814C11.4597 34.1814 11.4597 34.1814 11.2621 34.1814C13.2379 34.379 15.2137 34.1814 16.9919 33.3911C17.9798 32.996 18.7702 32.4032 19.7581 31.8105C16.7944 31.6129 14.8185 29.6371 14.4234 27.8589C15.2137 28.0565 16.004 28.0565 16.7944 27.8589C15.2137 27.4637 14.0282 26.6734 13.0403 25.2903C12.4476 24.3024 12.25 23.3145 12.25 22.3266C13.0403 22.7218 13.8306 22.9194 14.8185 23.1169C13.6331 22.3266 12.8427 21.1411 12.4476 19.5605C12.0524 18.1774 12.25 16.7944 13.0403 15.4113C16.2016 19.1653 20.1532 21.1411 24.8952 21.3387C24.8952 21.1411 24.8952 20.9435 24.8952 20.746C24.6976 19.3629 25.0927 18.1774 25.6855 16.9919C26.6734 15.6089 27.8589 14.621 29.6371 14.4234C31.6129 14.0282 33.1936 14.621 34.5766 16.004C34.5766 16.004 34.7742 16.2016 34.9718 16.004C36.1573 15.8065 37.3427 15.4113 38.3307 14.8185C37.9355 16.2016 37.1452 17.1895 35.9597 17.9798C37.1452 17.7823 38.1331 17.5847 39.121 17.1895C39.121 16.7944 38.9234 17.1895 38.7258 17.3871Z" fill="#DCDCDC"/>
</svg>
