<svg width="40" height="40" viewBox="0 0 40 40" fill="none" xmlns="http://www.w3.org/2000/svg">
<path fill-rule="evenodd" clip-rule="evenodd" d="M20 0C9.03226 0 0 8.87097 0 20C0 30.9677 8.87097 40 20 40C30.9677 40 40 31.129 40 20C39.8387 8.87097 30.9677 0 20 0ZM31.6129 14.1935C31.129 14.8387 30.4839 15.3226 29.8387 15.8065C29.8387 15.8065 29.8387 15.8065 29.8387 15.9677C29.8387 16.6129 29.8387 17.4194 29.6774 18.0645C29.5161 19.5161 29.0323 20.9677 28.5484 22.2581C27.9032 23.5484 27.0968 24.8387 25.9677 25.9677C24.1936 27.7419 22.0968 29.0323 19.5161 29.5161C18.7097 29.6774 17.7419 29.8387 16.9355 29.8387C14.1935 29.8387 11.7742 29.1935 9.35484 27.9032C9.35484 27.9032 9.35484 27.9032 9.19355 27.9032C10.8065 28.0645 12.4194 27.9032 13.871 27.2581C14.6774 26.9355 15.3226 26.4516 16.129 25.9677C13.7097 25.8065 12.0968 24.1935 11.7742 22.7419C12.4194 22.9032 13.0645 22.9032 13.7097 22.7419C12.4194 22.4194 11.4516 21.7742 10.6452 20.6452C10.1613 19.8387 10 19.0323 10 18.2258C10.6452 18.5484 11.2903 18.7097 12.0968 18.871C11.129 18.2258 10.4839 17.2581 10.1613 15.9677C9.83871 14.8387 10 13.7097 10.6452 12.5806C13.2258 15.6452 16.4516 17.2581 20.3226 17.4194C20.3226 17.2581 20.3226 17.0968 20.3226 16.9355C20.1613 15.8065 20.4839 14.8387 20.9677 13.871C21.7742 12.7419 22.7419 11.9355 24.1935 11.7742C25.8065 11.4516 27.0968 11.9355 28.2258 13.0645C28.2258 13.0645 28.3871 13.2258 28.5484 13.0645C29.5161 12.9032 30.4839 12.5806 31.2903 12.0968C30.9677 13.2258 30.3226 14.0323 29.3548 14.6774C30.3226 14.5161 31.129 14.3548 31.9355 14.0323C31.9355 13.7097 31.7742 14.0323 31.6129 14.1935Z" fill="#0A86FF"/>
</svg>
