<svg id="Layer_1" data-name="Layer 1" xmlns="http://www.w3.org/2000/svg" viewBox="0 0 24.72 24.72"><defs><style>.cls-1{fill:#fff;fill-rule:evenodd;}</style></defs><title>icon-twitter</title><path class="cls-1" d="M12.36,0A12.36,12.36,0,1,0,24.72,12.36,12.36,12.36,0,0,0,12.36,0Zm7.27,8.84a5.69,5.69,0,0,1-1.06,1,.1.1,0,0,0,0,.09,8,8,0,0,1-.05,1.29,8.55,8.55,0,0,1-.75,2.59,8.37,8.37,0,0,1-1.57,2.29,7.77,7.77,0,0,1-4,2.23,8.7,8.7,0,0,1-1.62.19,8.21,8.21,0,0,1-4.65-1.25l-.07,0a5.88,5.88,0,0,0,2.91-.4A5.76,5.76,0,0,0,10.11,16a2.91,2.91,0,0,1-2.7-2,2.89,2.89,0,0,0,1.25,0l0,0A2.9,2.9,0,0,1,6.8,12.62a2.82,2.82,0,0,1-.43-1.55,2.86,2.86,0,0,0,1.29.35,2.92,2.92,0,0,1-1.2-1.76,2.88,2.88,0,0,1,.31-2.11,8.32,8.32,0,0,0,6,3c0-.11,0-.22,0-.32a2.91,2.91,0,0,1,4.94-2.4.15.15,0,0,0,.15,0,5.86,5.86,0,0,0,1.69-.65l0,0h0a3,3,0,0,1-1.24,1.58A5.58,5.58,0,0,0,20,8.39h0Z"/></svg>