<svg width="360" height="315" viewBox="0 0 360 315" fill="none" xmlns="http://www.w3.org/2000/svg">
<g filter="url(#filter0_d)">
<path fill-rule="evenodd" clip-rule="evenodd" d="M85.7952 195.187C79.5287 192.441 70.6869 207.714 76.5242 211.747C76.8676 212.004 78.8419 213.463 79.2711 213.548C72.7471 209.945 82.7907 192.87 88.9713 196.988C88.7138 196.731 86.1385 195.358 85.7952 195.187Z" fill="#333333"/>
<path fill-rule="evenodd" clip-rule="evenodd" d="M146.314 182.402L120.132 197.589L110.432 211.575L95.8391 225.905V235L155.671 200.507V185.663L146.314 182.402Z" fill="#00CCCC"/>
<path fill-rule="evenodd" clip-rule="evenodd" d="M146.485 184.376L136.184 190.296V198.791L153.868 188.752V186.864L146.485 184.376ZM134.639 191.24L122.965 198.019V206.427L134.639 199.821V191.24ZM121.334 198.877L111.719 212.691L121.334 207.2V198.877Z" fill="#CCCCCC"/>
<path fill-rule="evenodd" clip-rule="evenodd" d="M70 210.717L95.8385 225.904V234.999L70 219.812V210.717Z" fill="#00CCCC"/>
<path fill-rule="evenodd" clip-rule="evenodd" d="M71.8027 213.807V218.783L77.3825 222.13V217.153L71.8027 213.807ZM88.4561 228.651L94.1217 231.911V226.935L88.4561 223.674V228.651Z" fill="#333399"/>
<path fill-rule="evenodd" clip-rule="evenodd" d="M120.819 167.473L94.465 182.488L84.679 196.474L110.432 211.575L120.132 197.59L146.314 182.402L120.819 167.473Z" fill="#99FFCC"/>
<path fill-rule="evenodd" clip-rule="evenodd" d="M94.465 182.488L84.679 196.474L110.432 211.576L120.132 197.59L94.465 182.488Z" fill="#99FFCC"/>
<path d="M94.9802 184.805L87.2544 195.873L109.917 209.173L117.557 198.104L94.9802 184.805Z" fill="white"/>
<path fill-rule="evenodd" clip-rule="evenodd" d="M84.5932 196.389L105.539 208.744L110.432 211.576L95.8385 225.905L70 210.718L84.5932 196.389Z" fill="#99FFCC"/>
<path fill-rule="evenodd" clip-rule="evenodd" d="M118.587 214.149C112.32 211.404 103.479 226.677 109.316 230.709C109.659 230.967 111.634 232.425 112.063 232.511C105.539 228.908 115.582 211.833 121.763 215.951C121.506 215.694 119.016 214.321 118.587 214.149Z" fill="#333333"/>
<path fill-rule="evenodd" clip-rule="evenodd" d="M121.334 215.694C118.415 214.321 115.582 216.895 113.866 218.783C111.548 221.443 109.488 225.733 110.003 229.337C110.518 232.94 113.522 233.798 116.613 232.082C120.733 229.851 124.252 223.588 123.566 219.04C123.308 217.667 122.707 216.295 121.334 215.694Z" fill="#333333"/>
<path fill-rule="evenodd" clip-rule="evenodd" d="M151.207 195.358C144.941 192.613 136.099 207.886 141.936 211.918C142.28 212.176 144.254 213.634 144.683 213.72C138.159 210.117 148.203 193.042 154.383 197.16C154.126 196.817 151.636 195.53 151.207 195.358Z" fill="#333333"/>
<path fill-rule="evenodd" clip-rule="evenodd" d="M153.954 196.903C151.035 195.53 148.203 198.104 146.486 199.992C144.168 202.652 142.108 206.942 142.623 210.546C143.138 214.149 146.142 215.007 149.233 213.377C153.353 211.06 156.873 204.883 156.186 200.249C155.928 198.791 155.328 197.503 153.954 196.903Z" fill="#333333"/>
<path fill-rule="evenodd" clip-rule="evenodd" d="M132.58 172.106L120.819 167.473L145.971 182.317L155.671 185.663L132.58 172.106Z" fill="#99FFCC"/>
<path fill-rule="evenodd" clip-rule="evenodd" d="M132.322 172.621L127.257 170.562L146.228 181.802L150.606 183.346L132.322 172.621Z" fill="#CCCCCC"/>
<path fill-rule="evenodd" clip-rule="evenodd" d="M119.359 219.297C117.728 218.525 116.011 219.984 115.067 221.099C113.693 222.644 112.578 225.132 112.835 227.191C113.178 229.251 114.895 229.765 116.612 228.822C119.016 227.535 120.99 223.931 120.561 221.271C120.561 220.413 120.217 219.641 119.359 219.297Z" fill="#333399"/>
<path fill-rule="evenodd" clip-rule="evenodd" d="M151.98 200.421C150.349 199.649 148.632 201.108 147.688 202.223C146.314 203.768 145.198 206.256 145.456 208.315C145.799 210.375 147.516 210.889 149.233 209.946C151.636 208.659 153.611 205.055 153.181 202.395C153.181 201.537 152.752 200.765 151.98 200.421Z" fill="#333399"/>
</g>
<g filter="url(#filter1_d)">
<path d="M287.512 155.656L256.015 137.379C249.314 133.551 238.496 133.551 231.89 137.379L168.513 173.837C165.162 175.751 163.534 178.239 163.534 180.823C163.534 183.311 165.162 185.895 168.513 187.808L200.01 206.086C206.616 209.913 217.529 209.913 224.135 206.086L260.706 185.033L278.513 174.794L287.512 169.627C290.863 167.713 292.491 165.225 292.491 162.641C292.586 160.058 290.863 157.57 287.512 155.656Z" fill="#99CCFF"/>
<path d="M255.92 148.287L268.652 155.656C269.131 155.943 269.706 156.038 270.28 156.038C270.759 156.038 271.333 155.943 271.716 155.656C272.578 155.177 272.578 154.412 271.716 153.933L258.983 146.565C258.122 146.086 256.781 146.086 255.92 146.565C255.537 146.756 255.345 147.043 255.345 147.33C255.249 147.713 255.441 148.096 255.92 148.287Z" fill="#333333"/>
<path d="M197.329 194.124C197.808 193.837 198.191 193.454 198.478 193.167C199.34 192.018 198.957 190.679 197.329 189.722C195.702 188.765 193.404 188.573 191.393 189.052C190.819 189.243 190.149 189.435 189.67 189.722C187.564 190.966 187.564 192.88 189.67 194.124C191.776 195.368 195.223 195.368 197.329 194.124Z" fill="#333333"/>
<path d="M240.985 146.086C237.634 144.172 232.273 144.172 228.922 146.086L183.352 171.636C180.097 173.549 180.001 176.516 183.16 178.43L270.663 163.215L240.985 146.086Z" fill="white"/>
<path d="M272.482 164.267L270.663 163.215L183.16 178.43C183.256 178.43 183.256 178.526 183.352 178.526L214.849 196.803C218.2 198.717 223.561 198.717 226.912 196.803L272.482 171.253C275.833 169.339 275.833 166.181 272.482 164.267Z" fill="#CCCCCC"/>
<path d="M287.512 169.531L278.513 174.699L260.706 184.938L224.135 205.99C217.434 209.818 206.616 209.818 200.01 205.99L168.513 187.713C165.162 185.799 163.534 183.215 163.534 180.727V191.541C163.534 194.029 165.162 196.612 168.513 198.526L200.01 216.803C206.616 220.631 217.529 220.631 224.135 216.803L260.706 195.751L278.513 185.512L287.512 180.345C290.863 178.431 292.491 175.943 292.491 173.359V162.546C292.491 165.13 290.863 167.618 287.512 169.531Z" fill="#333399"/>
<path d="M244.335 152.498L238.591 155.847L242.325 166.852L248.069 163.598L244.335 152.498Z" fill="#00CCCC"/>
<path d="M249.409 119.58L219.636 102.355C217.721 101.207 215.902 101.111 214.657 101.877L208.817 105.226C210.062 104.46 211.881 104.556 213.796 105.704L243.57 122.929C247.495 125.225 250.654 130.68 250.654 135.177V154.699C250.654 156.995 249.888 158.526 248.548 159.292L254.388 155.943C255.632 155.177 256.494 153.646 256.494 151.349V131.828C256.494 127.331 253.335 121.781 249.409 119.58Z" fill="#00CCCC"/>
<path d="M213.796 105.608L243.57 122.833C247.495 125.129 250.654 130.584 250.654 135.081V154.602C250.654 156.899 249.888 158.43 248.548 159.196C247.303 159.961 245.484 159.865 243.57 158.717L242.804 158.334L238.496 155.846L242.229 166.851L226.337 148.765L213.7 141.493C209.775 139.196 206.616 133.741 206.616 129.244V109.723C206.616 107.426 207.382 105.895 208.722 105.129C210.062 104.364 211.881 104.46 213.796 105.608Z" fill="#99FFCC"/>
<path d="M228.731 126.469C227.39 125.704 226.146 125.608 225.188 126.086L221.646 128.096C222.508 127.617 223.752 127.617 225.188 128.479C227.965 130.105 230.167 133.933 230.167 137.091C230.167 138.718 229.592 139.77 228.731 140.345L232.273 138.335C233.135 137.857 233.709 136.708 233.709 135.081C233.613 131.924 231.411 128 228.731 126.469Z" fill="#333399"/>
<path d="M220.21 131.35C220.21 134.508 222.412 138.335 225.188 139.962C226.529 140.728 227.773 140.823 228.731 140.345C229.592 139.866 230.167 138.718 230.167 137.091C230.167 133.933 227.965 130.106 225.188 128.479C223.848 127.713 222.604 127.618 221.646 128.096C220.785 128.575 220.21 129.723 220.21 131.35Z" fill="#99CCFF"/>
<path d="M215.71 120.536C214.657 119.962 213.796 119.866 213.126 120.249L210.541 121.685C211.211 121.302 212.073 121.398 213.126 121.972C215.136 123.12 216.764 125.991 216.764 128.287C216.764 129.436 216.381 130.297 215.71 130.68L218.295 129.244C218.966 128.862 219.348 128 219.348 126.852C219.348 124.555 217.721 121.685 215.71 120.536Z" fill="#333399"/>
<path d="M209.488 124.077C209.488 126.374 211.115 129.244 213.126 130.393C214.179 130.967 215.04 131.063 215.71 130.68C216.381 130.297 216.764 129.436 216.764 128.288C216.764 125.991 215.136 123.12 213.126 121.972C212.072 121.398 211.211 121.302 210.541 121.685C209.871 122.068 209.488 122.929 209.488 124.077Z" fill="#99CCFF"/>
<path d="M241.559 135.369C240.506 134.795 239.645 134.699 238.974 135.082L236.39 136.518C237.06 136.135 237.921 136.231 238.974 136.805C240.985 137.953 242.612 140.824 242.612 143.12C242.612 144.269 242.229 145.13 241.559 145.513L244.144 144.077C244.814 143.695 245.197 142.833 245.197 141.685C245.197 139.388 243.57 136.518 241.559 135.369Z" fill="#333399"/>
<path d="M235.336 138.909C235.336 141.206 236.964 144.076 238.974 145.225C240.027 145.799 240.889 145.895 241.559 145.512C242.229 145.129 242.612 144.268 242.612 143.12C242.612 140.823 240.985 137.952 238.974 136.804C237.921 136.23 237.06 136.134 236.389 136.517C235.815 136.9 235.336 137.761 235.336 138.909Z" fill="#99CCFF"/>
</g>
<g filter="url(#filter2_d)">
<path d="M166.905 134.329L152.656 126.174L138.525 134.329L152.656 142.544L166.905 134.329Z" fill="#DBF3FF"/>
<path d="M166.905 134.329V117.959L152.657 109.804V126.174L166.905 134.329Z" fill="#DCFFFF"/>
<path d="M152.656 126.174V109.804L138.525 117.959V134.329L152.656 126.174Z" fill="#A3DAFF"/>
<path d="M152.656 142.544L138.525 134.329L124.276 142.544L138.525 150.758L152.656 142.544Z" fill="#DBF3FF"/>
<path d="M166.905 117.959V101.589L152.657 93.375V109.804L166.905 117.959Z" fill="#DCFFFF"/>
<path d="M181.095 142.543V126.173L166.905 117.959V134.329L181.095 142.543Z" fill="#DCFFFF"/>
<path d="M138.525 134.329V117.959L124.276 126.173V142.543L138.525 134.329Z" fill="#A3DAFF"/>
<path d="M181.095 142.544L166.905 134.329L152.657 142.544L166.905 150.758L181.095 142.544Z" fill="#DBF3FF"/>
<path d="M152.656 109.804V93.375L138.525 101.589V117.959L152.656 109.804Z" fill="#A3DAFF"/>
<path d="M183.578 154.659L181.804 153.595L191.028 148.276L192.801 149.281L183.578 154.659Z" fill="#333399"/>
<path d="M112.57 149.281L114.344 148.276L123.567 153.595L121.794 154.659L112.57 149.281Z" fill="#333399"/>
<path d="M166.905 150.758L152.656 142.544L138.525 150.758L152.656 158.914L166.905 150.758Z" fill="#DBF3FF"/>
<path d="M181.095 126.174V109.804L166.905 101.59V117.96L181.095 126.174Z" fill="#DCFFFF"/>
<path d="M195.285 150.758V134.329L181.095 126.174V142.544L195.285 150.758Z" fill="#DCFFFF"/>
<path d="M138.525 117.96V101.59L124.276 109.804V126.174L138.525 117.96Z" fill="#A3DAFF"/>
<path d="M192.801 149.281L191.028 148.276V137.639L192.801 138.643V149.281Z" fill="#333399"/>
<path d="M112.57 138.643L114.344 137.639V148.276L112.57 149.281V138.643Z" fill="#333399"/>
<path d="M152.656 93.375L166.905 101.589L152.656 109.804L138.525 101.589L152.656 93.375Z" fill="#DBF3FF"/>
<path d="M138.525 150.758L124.276 158.913L126.819 160.391L138.525 150.758Z" fill="#DBF3FF"/>
<path d="M124.277 158.913L122.858 159.74L125.341 161.159L126.819 160.391L124.277 158.913Z" fill="#DBF3FF"/>
<path d="M181.804 153.595V142.957L191.028 137.639V148.276L181.804 153.595Z" fill="#333333"/>
<path d="M114.343 148.276V137.639L123.567 142.957V153.595L114.343 148.276Z" fill="#333333"/>
<path d="M183.578 143.962L181.804 142.957V153.595L183.578 154.658V143.962Z" fill="#DCFFFF"/>
<path d="M192.801 138.643L191.028 137.639L181.804 142.957L183.578 143.962L192.801 138.643Z" fill="#DBF3FF"/>
<path d="M121.794 143.962L123.567 142.957L114.344 137.639L112.57 138.643L121.794 143.962Z" fill="#DBF3FF"/>
<path d="M121.794 154.658L123.567 153.595V142.957L121.794 143.962V154.658Z" fill="#A3DAFF"/>
<path d="M136.042 165.709L152.656 158.913L138.525 150.758L126.819 160.391L136.042 165.709Z" fill="#DBF3FF"/>
<path d="M192.801 132.911L191.028 131.906V121.269L192.801 122.273V132.911Z" fill="#333399"/>
<path d="M183.578 138.23L181.804 137.225L191.028 131.906L192.801 132.911L183.578 138.23Z" fill="#333399"/>
<path d="M169.388 162.815L167.615 161.81L176.838 156.491L178.612 157.496L169.388 162.815Z" fill="#333399"/>
<path d="M112.57 122.273L114.344 121.269V131.906L112.57 132.911V122.273Z" fill="#333399"/>
<path d="M112.57 132.911L114.344 131.906L123.567 137.225L121.794 138.23L112.57 132.911Z" fill="#333399"/>
<path d="M152.656 158.913L136.042 165.709L138.525 167.128L152.656 158.913Z" fill="#DBF3FF"/>
<path d="M166.905 101.59L181.095 109.804L166.905 117.96L152.657 109.804L166.905 101.59Z" fill="#DBF3FF"/>
<path d="M138.525 101.59L152.656 109.804L138.525 117.96L124.276 109.804L138.525 101.59Z" fill="#DBF3FF"/>
<path d="M178.612 157.496L176.838 156.491V145.854L178.612 146.858V157.496Z" fill="#333399"/>
<path d="M125.341 147.685V158.322V161.159L126.819 160.391V157.495V146.857L125.341 147.685Z" fill="#00CCCC"/>
<path d="M124.277 142.544L122.858 143.371V159.741L124.277 158.914V142.544Z" fill="#A3DAFF"/>
<path d="M136.042 165.71L134.623 166.537L137.106 167.956L138.525 167.128L136.042 165.71Z" fill="#DBF3FF"/>
<path d="M136.042 162.814L134.623 163.642V166.538L136.042 165.71V162.814Z" fill="#A3DAFF"/>
<path d="M181.804 137.225V126.587L191.028 121.269V131.906L181.804 137.225Z" fill="#333333"/>
<path d="M114.343 131.906V121.269L123.567 126.587V137.225L114.343 131.906Z" fill="#333333"/>
<path d="M167.615 161.81V151.172L176.838 145.854V156.491L167.615 161.81Z" fill="#333333"/>
<path d="M183.578 127.593L181.804 126.588V137.225L183.578 138.23V127.593Z" fill="#DCFFFF"/>
<path d="M192.801 122.273L191.028 121.269L181.804 126.587L183.578 127.592L192.801 122.273Z" fill="#DBF3FF"/>
<path d="M121.794 127.592L123.567 126.587L114.344 121.269L112.57 122.273L121.794 127.592Z" fill="#DBF3FF"/>
<path d="M121.794 138.23L123.567 137.225V126.588L121.794 127.593V138.23Z" fill="#A3DAFF"/>
<path d="M169.388 152.177L167.615 151.172V161.809L169.388 162.814V152.177Z" fill="#DCFFFF"/>
<path d="M178.612 146.858L176.838 145.854L167.615 151.172L169.388 152.177L178.612 146.858Z" fill="#DBF3FF"/>
<path d="M126.819 146.857V157.495V160.391L136.042 165.709V162.814V152.176L126.819 146.857Z" fill="#333333"/>
<path d="M126.819 146.857L125.341 147.685L134.624 153.004L136.043 152.176L126.819 146.857Z" fill="#DBF3FF"/>
<path d="M136.042 152.177L134.623 153.004V163.642L136.042 162.814V152.177Z" fill="#A3DAFF"/>
<path d="M178.612 141.125L176.838 140.12V129.424L178.612 130.488V141.125Z" fill="#333399"/>
<path d="M169.388 146.444L167.615 145.439L176.838 140.12L178.612 141.125L169.388 146.444Z" fill="#333399"/>
<path d="M164.422 165.71L162.648 164.646V154.009L164.422 155.013V165.71Z" fill="#333399"/>
<path d="M155.198 171.029L153.425 169.965L162.648 164.646L164.422 165.71L155.198 171.029Z" fill="#333399"/>
<path d="M141.008 155.013L142.782 154.009V164.646L141.008 165.71V155.013Z" fill="#333399"/>
<path d="M141.008 165.71L142.782 164.646L152.006 169.965L150.232 171.029L141.008 165.71Z" fill="#333399"/>
<path d="M126.819 130.488L128.593 129.424V140.12L126.819 141.125V130.488Z" fill="#333399"/>
<path d="M126.819 141.125L128.593 140.12L137.816 145.439L136.042 146.444L126.819 141.125Z" fill="#333399"/>
<path d="M181.095 109.804L195.285 117.959L181.095 126.174L166.905 117.959L181.095 109.804Z" fill="#DBF3FF"/>
<path d="M152.656 109.804L166.905 117.959L152.656 126.174L138.525 117.959L152.656 109.804Z" fill="#DBF3FF"/>
<path d="M124.276 109.804L138.525 117.959L124.276 126.174L110.087 117.959L124.276 109.804Z" fill="#DBF3FF"/>
<path d="M138.526 167.128L137.107 167.955V151.585L138.526 150.758V167.128Z" fill="#00CCCC"/>
<path d="M167.615 145.439V134.743L176.838 129.424V140.12L167.615 145.439Z" fill="#333333"/>
<path d="M153.425 169.965V159.328L162.648 154.009V164.646L153.425 169.965Z" fill="#333333"/>
<path d="M128.592 140.12V129.424L137.816 134.743V145.439L128.592 140.12Z" fill="#333333"/>
<path d="M142.782 164.646V154.009L152.006 159.328V169.965L142.782 164.646Z" fill="#333333"/>
<path d="M169.388 135.807L167.615 134.743V145.44L169.388 146.444V135.807Z" fill="#DCFFFF"/>
<path d="M178.612 130.488L176.838 129.424L167.615 134.743L169.388 135.806L178.612 130.488Z" fill="#DBF3FF"/>
<path d="M155.198 160.391L153.425 159.327V169.965L155.198 171.028V160.391Z" fill="#DCFFFF"/>
<path d="M164.422 155.013L162.648 154.009L153.425 159.328L155.198 160.391L164.422 155.013Z" fill="#DBF3FF"/>
<path d="M150.232 160.391L152.006 159.328L142.782 154.009L141.008 155.013L150.232 160.391Z" fill="#DBF3FF"/>
<path d="M150.232 171.028L152.006 169.965V159.327L150.232 160.391V171.028Z" fill="#A3DAFF"/>
<path d="M136.042 135.806L137.816 134.743L128.593 129.424L126.819 130.488L136.042 135.806Z" fill="#DBF3FF"/>
<path d="M136.042 146.444L137.816 145.44V134.743L136.042 135.807V146.444Z" fill="#A3DAFF"/>
<path d="M166.905 117.959L181.095 126.173L166.905 134.329L152.657 126.173L166.905 117.959Z" fill="#DBF3FF"/>
<path d="M164.422 149.281L162.648 148.276V137.639L164.422 138.643V149.281Z" fill="#333399"/>
<path d="M155.198 154.659L153.425 153.595L162.648 148.276L164.422 149.281L155.198 154.659Z" fill="#333399"/>
<path d="M141.008 138.643L142.782 137.639V148.276L141.008 149.281V138.643Z" fill="#333399"/>
<path d="M141.008 149.281L142.782 148.276L152.006 153.595L150.232 154.659L141.008 149.281Z" fill="#333399"/>
<path d="M138.525 117.959L152.656 126.173L138.525 134.329L124.276 126.173L138.525 117.959Z" fill="#DBF3FF"/>
<path d="M153.425 153.595V142.957L162.648 137.639V148.276L153.425 153.595Z" fill="#333333"/>
<path d="M142.782 148.276V137.639L152.006 142.957V153.595L142.782 148.276Z" fill="#333333"/>
<path d="M155.198 143.962L153.425 142.957V153.595L155.198 154.658V143.962Z" fill="#DCFFFF"/>
<path d="M164.422 138.643L162.648 137.639L153.425 142.957L155.198 143.962L164.422 138.643Z" fill="#DBF3FF"/>
<path d="M150.232 143.962L152.006 142.957L142.782 137.639L141.008 138.643L150.232 143.962Z" fill="#DBF3FF"/>
<path d="M150.232 154.658L152.006 153.595V142.957L150.232 143.962V154.658Z" fill="#A3DAFF"/>
<path d="M181.095 126.173L166.905 134.388L152.715 142.602V158.972V175.342L166.905 167.128L181.095 158.913L195.285 150.699V134.329V117.959L181.095 126.173ZM178.612 130.488V141.125L169.388 146.444V135.806L178.612 130.488ZM155.199 143.962L164.422 138.643V149.28L155.199 154.599V143.962ZM155.199 171.028V160.391L164.422 155.072V165.709L155.199 171.028ZM169.388 162.814V152.176L178.612 146.857V157.495L169.388 162.814ZM192.802 149.28L183.578 154.599V143.962L192.802 138.643V149.28ZM183.578 138.229V127.592L192.802 122.273V132.911L183.578 138.229Z" fill="#99CCFF"/>
<path d="M138.525 134.329L124.335 126.115L110.146 117.9V134.27V150.64L124.335 158.855V142.544L138.525 150.758V167.128L152.715 175.343V158.973V142.544L138.525 134.329ZM121.793 154.659L112.57 149.34V138.703L121.793 144.021V154.659ZM121.793 138.23L112.57 132.911V122.274L121.793 127.592V138.23ZM136.042 146.444L126.819 141.126V130.488L136.042 135.807V146.444ZM150.232 171.029L141.008 165.71V155.072L150.232 160.391V171.029ZM150.232 154.659L141.008 149.34V138.703L150.232 144.021V154.659Z" fill="#99CCFF"/>
<path d="M152.656 126.174L166.905 134.329L152.656 142.544L138.525 134.329L152.656 126.174Z" fill="#DBF3FF"/>
<path d="M138.525 150.758L137.106 151.586L122.858 143.371L124.277 142.544L138.525 150.758Z" fill="#00CCCC"/>
<path d="M122.858 143.371V159.741L125.341 161.159V158.323V147.685L134.623 153.004V163.641V166.537L137.106 167.955V151.586L122.858 143.371Z" fill="#99FFCC"/>
<path d="M197.058 117.959V113.881L152.656 88.292V92.3697L197.058 117.959Z" fill="#333399"/>
<path d="M152.656 92.3697V88.292L108.313 113.881V117.959L152.656 92.3697Z" fill="#333399"/>
<path d="M152.656 91.1294V89.1201L192.092 111.813V113.882L152.656 91.1294Z" fill="#333399"/>
<path d="M197.058 113.881V111.813L152.656 86.2236V88.292L197.058 113.881Z" fill="#333399"/>
<path d="M113.279 113.882V111.813L152.656 89.1201V91.1294L113.279 113.882Z" fill="#333399"/>
<path d="M152.656 88.292V86.2236L108.313 111.813V113.881L152.656 88.292Z" fill="#333399"/>
<path d="M197.058 111.813H192.092L152.656 89.1194V86.2236L197.058 111.813Z" fill="#333399"/>
<path d="M152.656 86.2236V89.1194L113.28 111.813H108.313L152.656 86.2236Z" fill="#333399"/>
<path d="M152.656 91.1289L192.092 113.881L152.656 136.634L113.279 113.881L152.656 91.1289Z" fill="#333399"/>
<path d="M192.092 113.881V111.812L152.656 134.565V136.633L192.092 113.881Z" fill="#333399"/>
<path d="M152.656 136.633V134.565L113.279 111.812V113.881L152.656 136.633Z" fill="#333399"/>
<path d="M152.656 143.548V139.47L197.058 113.881V117.959L152.656 143.548Z" fill="#333399"/>
<path d="M108.313 117.959V113.881L152.656 139.47V143.548L108.313 117.959Z" fill="#333399"/>
<path d="M152.656 139.47V137.402L197.058 111.812V113.881L152.656 139.47Z" fill="#333399"/>
<path d="M108.313 113.881V111.812L152.656 137.402V139.47L108.313 113.881Z" fill="#333399"/>
<path d="M152.656 137.402V134.565L192.092 111.812H197.058L152.656 137.402Z" fill="#333399"/>
<path d="M108.313 111.812H113.28L152.656 134.565V137.402L108.313 111.812Z" fill="#333399"/>
<path d="M166.904 105.667L152.715 97.5117L138.525 105.667L152.715 113.882L166.904 105.667Z" fill="#DBF3FF"/>
<path d="M166.904 105.667V89.297L152.714 81.1416V97.5115L166.904 105.667Z" fill="#DCFFFF"/>
<path d="M152.715 97.5115V81.1416L138.525 89.297V105.667L152.715 97.5115Z" fill="#A3DAFF"/>
<path d="M152.715 113.881L138.525 105.667L124.335 113.881L138.525 122.096L152.715 113.881Z" fill="#DBF3FF"/>
<path d="M138.525 105.668V89.2979L124.335 97.5123V113.882L138.525 105.668Z" fill="#A3DAFF"/>
<path d="M181.094 113.881L166.904 105.667L152.714 113.881L166.904 122.096L181.094 113.881Z" fill="#DBF3FF"/>
<path d="M152.715 81.1416L166.904 89.297L152.715 97.5115L138.525 89.297L152.715 81.1416Z" fill="#DBF3FF"/>
<path d="M181.095 113.882V97.5123L166.905 89.2979V105.668L181.095 113.882Z" fill="#DCFFFF"/>
<path d="M166.904 122.095L152.714 113.881L164.421 123.514L166.904 122.095Z" fill="#DBF3FF"/>
<path d="M152.714 113.881L164.421 124.755V123.514L152.714 113.881Z" fill="#DBF3FF"/>
<path d="M164.421 124.755L165.131 125.168L166.195 124.518L164.421 123.514V124.755Z" fill="#DBF3FF"/>
<path d="M164.421 123.514L166.195 124.519V121.682L164.421 120.618V123.514Z" fill="#DCFFFF"/>
<path d="M164.421 124.755L152.715 113.881L138.525 122.095L157.326 128.832L164.421 124.755Z" fill="#DBF3FF"/>
<path d="M138.525 122.096L155.198 128.833H157.326L138.525 122.096Z" fill="#DBF3FF"/>
<path d="M157.326 128.833L158.036 129.247V128.005L157.326 127.592V128.833Z" fill="#DCFFFF"/>
<path d="M155.198 128.832L156.972 129.837L158.036 129.246L157.326 128.832H155.198Z" fill="#DBF3FF"/>
<path d="M138.525 89.2979L152.715 97.5123L138.525 105.668L124.335 97.5123L138.525 89.2979Z" fill="#DBF3FF"/>
<path d="M138.525 122.096L152.715 130.251L155.198 128.833L138.525 122.096Z" fill="#DBF3FF"/>
<path d="M166.904 105.667L152.714 113.882V130.251L155.198 128.833V125.937V115.3L164.421 109.981V120.619V123.514L166.904 122.096L181.094 113.882V97.5117L166.904 105.667Z" fill="#99CCFF"/>
<path d="M166.904 89.2979L181.094 97.5123L166.904 105.668L152.714 97.5123L166.904 89.2979Z" fill="#DBF3FF"/>
<path d="M157.326 127.592L158.036 128.006V126.351L157.326 125.938V127.592Z" fill="#DCFFFF"/>
<path d="M164.421 112.464V121.86V123.515V124.756L165.131 125.17V123.929V122.274V112.878L164.421 112.464Z" fill="#00CCCC"/>
<path d="M157.326 116.542V125.938V127.593V128.834L164.421 124.756V123.515V121.86V112.464L157.326 116.542Z" fill="#333333"/>
<path d="M157.326 125.937L158.036 126.351V116.955L157.326 116.541V125.937Z" fill="#DCFFFF"/>
<path d="M157.326 116.542L158.036 116.955L165.131 112.878L164.421 112.464L157.326 116.542Z" fill="#DBF3FF"/>
<path d="M155.198 115.3V125.937V128.833L156.972 129.838V127.001V116.364L155.198 115.3Z" fill="#00CCCC"/>
<path d="M164.421 109.98L166.195 110.985L156.972 116.363L155.198 115.299L164.421 109.98Z" fill="#00CCCC"/>
<path d="M166.195 110.985L156.972 116.363V127.001V129.837L158.036 129.246V128.005V126.351V116.954L165.131 112.876V122.273V123.928V125.169L166.195 124.519V121.682V110.985Z" fill="#99FFCC"/>
<path d="M152.715 97.5117L166.904 105.667L152.715 113.882L138.525 105.667L152.715 97.5117Z" fill="#DBF3FF"/>
<path d="M138.525 105.667L124.335 97.5117V113.882L138.525 122.096L152.715 130.251V113.882L138.525 105.667Z" fill="#99CCFF"/>
<path d="M182.869 97.5113V93.3745L152.716 76V80.0777L182.869 97.5113Z" fill="#DCFFFF"/>
<path d="M152.716 80.0777V76L122.563 93.3745V97.5113L152.716 80.0777Z" fill="#B4D9FF"/>
<path d="M182.869 97.5118L152.716 80.0781L122.563 97.5118L152.716 114.886L182.869 97.5118Z" fill="#DBF3FF"/>
<path d="M152.716 76L182.87 93.3745L152.716 110.808L122.563 93.3745L152.716 76Z" fill="#99CCFF"/>
<path d="M152.716 114.886V110.809L182.869 93.375V97.5118L152.716 114.886Z" fill="#333399"/>
<path d="M122.563 97.5118V93.375L152.716 110.809V114.886L122.563 97.5118Z" fill="#333399"/>
<path d="M152.716 84.2734V82.4414L146.744 83.1506V84.9826L152.716 84.2734Z" fill="white"/>
<path d="M158.688 84.9826V83.1506L152.716 82.4414V84.2734L158.688 84.9826Z" fill="white"/>
<path d="M163.773 86.9326V85.1006L158.688 83.1504V84.9824L163.773 86.9326Z" fill="white"/>
<path d="M146.744 84.9824V83.1504L141.659 85.1006V86.9326L146.744 84.9824Z" fill="white"/>
<path d="M141.66 86.9326V85.1006L138.231 87.9963V89.8284L141.66 86.9326Z" fill="white"/>
<path d="M167.142 89.8284V87.9963L163.772 85.1006V86.9326L167.142 89.8284Z" fill="white"/>
<path d="M152.716 93.3149L138.23 89.8281L137.048 93.3149H152.716Z" fill="white"/>
<path d="M152.716 93.3151L141.66 86.9326L138.231 89.8284L152.716 93.3151Z" fill="white"/>
<path d="M152.716 93.3151L146.744 84.9824L141.659 86.9326L152.716 93.3151Z" fill="white"/>
<path d="M152.716 93.3153V84.2734L146.744 84.9826L152.716 93.3153Z" fill="white"/>
<path d="M152.716 93.3153L158.688 84.9826L152.716 84.2734V93.3153Z" fill="white"/>
<path d="M152.716 93.3151L163.772 86.9326L158.688 84.9824L152.716 93.3151Z" fill="white"/>
<path d="M152.716 93.3151L167.142 89.8284L163.772 86.9326L152.716 93.3151Z" fill="white"/>
<path d="M152.716 93.3149H168.325L167.142 89.8281L152.716 93.3149Z" fill="white"/>
<path d="M138.23 89.8291V87.9971L137.048 91.4838V93.3158L138.23 89.8291Z" fill="white"/>
<path d="M168.325 93.3158V91.4838L167.142 87.9971V89.8291L168.325 93.3158Z" fill="#CCCCCC"/>
<path d="M152.716 93.3154H137.048L138.23 96.7431L152.716 93.3154Z" fill="white"/>
<path d="M152.716 93.3154L167.142 96.7431L168.325 93.3154H152.716Z" fill="white"/>
<path d="M137.048 93.3154V91.4834L138.23 94.911V96.743L137.048 93.3154Z" fill="#CCCCCC"/>
<path d="M167.142 96.743V94.911L168.325 91.4834V93.3154L167.142 96.743Z" fill="#CCCCCC"/>
<path d="M152.716 93.3154L138.231 96.7431L141.66 99.6388L152.716 93.3154Z" fill="white"/>
<path d="M152.716 93.3154L163.772 99.6388L167.142 96.7431L152.716 93.3154Z" fill="white"/>
<path d="M138.231 96.7431V94.9111L141.66 97.866V99.6389L138.231 96.7431Z" fill="#CCCCCC"/>
<path d="M163.772 99.6389V97.866L167.142 94.9111V96.7431L163.772 99.6389Z" fill="#CCCCCC"/>
<path d="M152.716 93.3154L158.688 101.648L163.772 99.6388L152.716 93.3154Z" fill="white"/>
<path d="M152.716 93.3154L141.659 99.6388L146.744 101.648L152.716 93.3154Z" fill="white"/>
<path d="M152.716 93.3154V102.298L158.688 101.648L152.716 93.3154Z" fill="white"/>
<path d="M152.716 93.3154L146.744 101.648L152.716 102.298V93.3154Z" fill="white"/>
<path d="M158.688 101.648V99.8164L163.773 97.8662V99.6391L158.688 101.648Z" fill="#CCCCCC"/>
<path d="M141.659 99.6391V97.8662L146.744 99.8164V101.648L141.659 99.6391Z" fill="#CCCCCC"/>
<path d="M152.716 102.298V100.466L158.688 99.8164V101.648L152.716 102.298Z" fill="#CCCCCC"/>
<path d="M167.142 87.9965L163.772 85.1008L158.687 83.1506L152.716 82.4414L146.685 83.1506L141.659 85.1008L138.23 87.9965L137.048 91.4833L138.23 94.9109L141.659 97.8657L146.685 99.8159L152.716 100.466L158.687 99.8159L163.772 97.8657L167.142 94.9109L168.324 91.4833L167.142 87.9965Z" fill="white"/>
<path d="M146.744 101.648V99.8164L152.716 100.466V102.298L146.744 101.648Z" fill="#CCCCCC"/>
<path d="M143.197 93.3151V92.5469L140.063 90.7148V91.4831L143.197 93.3151Z" fill="#006DC1"/>
<path d="M155.849 85.9875V85.2783L143.197 92.5473V93.3155L155.849 85.9875Z" fill="#003C90"/>
<path d="M154.253 94.2013V93.4921L147.986 89.8281V90.5373L154.253 94.2013Z" fill="#006DC1"/>
<path d="M140.063 90.7143L152.716 83.4453L155.85 85.2773L151.12 87.9958L157.446 91.6598L162.176 88.9413L165.309 90.7143L152.716 98.0423L149.523 96.2103L154.253 93.4918L147.986 89.8278L143.197 92.5463L140.063 90.7143Z" fill="#333399"/>
<path d="M152.716 98.7521V98.0429L149.523 96.2109V96.9201L152.716 98.7521Z" fill="#006DC1"/>
<path d="M165.309 91.4831V90.7148L152.716 98.0429V98.752L165.309 91.4831Z" fill="#003C90"/>
<path d="M179.144 97.217V116.01V117.665L180.563 116.837V96.3896L179.144 97.217Z" fill="white"/>
<path d="M173.467 112.169V112.937L177.724 110.514L178.966 109.805V108.978L173.467 112.169Z" fill="white"/>
<path d="M173.467 108.032V108.859L177.724 106.436L178.966 105.668V104.899L173.467 108.032Z" fill="white"/>
<path d="M178.966 113.055L173.467 116.246V117.073L177.724 114.591L178.966 113.882V113.055Z" fill="white"/>
<path d="M173.467 103.954V104.781L177.724 102.299L178.966 101.59V100.763L173.467 103.954Z" fill="white"/>
<path d="M173.468 115.006V112.937V112.169V110.928V108.86V108.032V106.791V104.782V103.954V102.713V100.468L172.049 101.295V120.147V121.743L173.468 120.974V117.074V116.247V115.006Z" fill="white"/>
<path d="M180.562 96.3889L179.143 95.5615L177.725 96.3889L179.143 97.2162L180.562 96.3889Z" fill="#CCCCCC"/>
<path d="M179.143 97.216L177.725 96.3887V100.289L177.902 100.171L178.966 100.762V101.589L177.725 102.298V104.367L177.902 104.249L178.966 104.899V105.667L177.725 106.435V108.444L177.902 108.326L178.966 108.976V109.804L177.725 110.513V112.522L177.902 112.463L178.966 113.054V113.881L177.725 114.591V116.836L179.143 117.664V116.009V97.216Z" fill="#CCCCCC"/>
<path d="M173.468 112.167L178.966 108.976L177.902 108.326L177.725 108.444L173.468 110.926V112.167Z" fill="#CCCCCC"/>
<path d="M173.468 108.031L178.966 104.899L177.902 104.249L177.725 104.367L173.468 106.79V108.031Z" fill="#CCCCCC"/>
<path d="M173.468 116.246L178.966 113.055L177.902 112.464L177.725 112.523L173.468 115.005V116.246Z" fill="#CCCCCC"/>
<path d="M173.468 103.953L178.966 100.762L177.902 100.171L177.725 100.289L173.468 102.712V103.953Z" fill="#CCCCCC"/>
<path d="M173.468 100.467L172.049 99.6396L170.63 100.467L172.049 101.294L173.468 100.467Z" fill="#CCCCCC"/>
<path d="M172.049 101.294L170.63 100.467V120.973L172.049 121.742V120.146V101.294Z" fill="#CCCCCC"/>
<path d="M143.551 143.784V124.814C143.551 120.854 140.713 115.949 137.284 113.94L120.847 104.425C119.133 103.421 117.536 103.362 116.413 104.012L119.251 102.357C120.374 101.707 121.971 101.766 123.685 102.771L140.122 112.285C143.551 114.295 146.389 119.141 146.389 123.159V142.129C146.389 144.139 145.679 145.498 144.556 146.148L141.718 147.803C142.841 147.212 143.551 145.793 143.551 143.784Z" fill="#CCCCCC"/>
<path d="M137.284 147.449L120.848 137.934C117.418 135.925 114.581 131.079 114.581 127.06V108.149C114.581 106.14 115.29 104.781 116.413 104.131C117.537 103.48 119.133 103.54 120.848 104.544L137.284 114.059C140.713 116.068 143.551 120.914 143.551 124.933V143.903C143.551 145.912 142.842 147.271 141.718 147.921C140.595 148.512 138.999 148.394 137.284 147.449Z" fill="white"/>
<path d="M138.289 131.256C138.289 137.165 134.15 139.529 129.066 136.574C123.981 133.62 119.842 126.469 119.842 120.618C119.842 114.768 123.981 112.345 129.066 115.3C134.15 118.254 138.289 125.405 138.289 131.256Z" fill="#00CCCC"/>
<path d="M135.215 127L131.253 124.696V120.145L126.937 117.663V122.214L122.976 119.909V124.932L126.937 127.237V131.787L131.253 134.269V129.719L135.215 132.024V127Z" fill="white"/>
</g>
<defs>
<filter id="filter0_d" x="-10" y="87.4727" width="246.272" height="227.527" filterUnits="userSpaceOnUse" color-interpolation-filters="sRGB">
<feFlood flood-opacity="0" result="BackgroundImageFix"/>
<feColorMatrix in="SourceAlpha" type="matrix" values="0 0 0 0 0 0 0 0 0 0 0 0 0 0 0 0 0 0 127 0"/>
<feOffset/>
<feGaussianBlur stdDeviation="40"/>
<feColorMatrix type="matrix" values="0 0 0 0 1 0 0 0 0 1 0 0 0 0 1 0 0 0 0.5 0"/>
<feBlend mode="normal" in2="BackgroundImageFix" result="effect1_dropShadow"/>
<feBlend mode="normal" in="SourceGraphic" in2="effect1_dropShadow" result="shape"/>
</filter>
<filter id="filter1_d" x="83.5343" y="25.3818" width="288.96" height="278.292" filterUnits="userSpaceOnUse" color-interpolation-filters="sRGB">
<feFlood flood-opacity="0" result="BackgroundImageFix"/>
<feColorMatrix in="SourceAlpha" type="matrix" values="0 0 0 0 0 0 0 0 0 0 0 0 0 0 0 0 0 0 127 0"/>
<feOffset dy="4"/>
<feGaussianBlur stdDeviation="40"/>
<feColorMatrix type="matrix" values="0 0 0 0 1 0 0 0 0 1 0 0 0 0 1 0 0 0 0.5 0"/>
<feBlend mode="normal" in2="BackgroundImageFix" result="effect1_dropShadow"/>
<feBlend mode="normal" in="SourceGraphic" in2="effect1_dropShadow" result="shape"/>
</filter>
<filter id="filter2_d" x="28.3132" y="0" width="248.745" height="259.343" filterUnits="userSpaceOnUse" color-interpolation-filters="sRGB">
<feFlood flood-opacity="0" result="BackgroundImageFix"/>
<feColorMatrix in="SourceAlpha" type="matrix" values="0 0 0 0 0 0 0 0 0 0 0 0 0 0 0 0 0 0 127 0"/>
<feOffset dy="4"/>
<feGaussianBlur stdDeviation="40"/>
<feColorMatrix type="matrix" values="0 0 0 0 1 0 0 0 0 1 0 0 0 0 1 0 0 0 0.5 0"/>
<feBlend mode="normal" in2="BackgroundImageFix" result="effect1_dropShadow"/>
<feBlend mode="normal" in="SourceGraphic" in2="effect1_dropShadow" result="shape"/>
</filter>
</defs>
</svg>
