<svg width="36" height="36" viewBox="0 0 36 36" fill="none" xmlns="http://www.w3.org/2000/svg">
<g clip-path="url(#clip0)">
<path fill-rule="evenodd" clip-rule="evenodd" d="M20 18.2224L18.6666 18.9632C18.2222 19.1113 17.7778 19.1113 17.4815 18.9632L16 18.2224C15.8518 18.0743 15.7037 18.2224 15.5555 18.2224L9.33331 22.815V23.5558H26.9629V22.815L20.5926 18.2224C20.4444 18.0743 20.1481 18.0743 20 18.2224Z" fill="#0A86FF"/>
<path fill-rule="evenodd" clip-rule="evenodd" d="M14.3704 17.3329C14.5185 17.1848 14.5185 16.8885 14.3704 16.7403L9.48148 14.37C9.33333 14.2218 9.18518 14.37 9.18518 14.5181V20.8885C9.18518 21.0366 9.33333 21.1848 9.48148 21.0366L14.3704 17.3329Z" fill="#0A86FF"/>
<path fill-rule="evenodd" clip-rule="evenodd" d="M17.7778 17.3329C17.9259 17.3329 18.0741 17.3329 18.2222 17.3329L26.6667 12.8885C26.963 12.7403 26.8148 12.2959 26.5185 12.2959H9.62964C9.18519 12.2959 9.03704 12.7403 9.48149 12.8885L17.7778 17.3329Z" fill="#0A86FF"/>
<path fill-rule="evenodd" clip-rule="evenodd" d="M26.6666 14.37L21.7778 16.8885C21.6296 17.0366 21.4815 17.3329 21.7778 17.4811L26.6666 21.1848C26.8148 21.3329 26.9629 21.1848 26.9629 21.0366V14.5181C27.1111 14.37 26.8148 14.2218 26.6666 14.37Z" fill="#0A86FF"/>
<path fill-rule="evenodd" clip-rule="evenodd" d="M18.0741 0C8 0 0 8 0 18.0741C0 28.1481 8 36.1481 18.0741 36.1481C28 36.1481 36.1481 28.1481 36.1481 18.0741C36.1481 8 28 0 18.0741 0ZM28.1481 23.4074C28.1481 24.2963 27.4074 25.037 26.5185 25.037H9.48148C8.59259 25.037 7.85185 24.2963 7.85185 23.4074V12.5926C7.85185 11.7037 8.59259 10.963 9.48148 10.963H26.5185C27.4074 10.963 28.1481 11.7037 28.1481 12.5926V23.4074Z" fill="#0A86FF"/>
</g>
<defs>
<clipPath id="clip0">
<rect width="36" height="36" fill="white"/>
</clipPath>
</defs>
</svg>
