<svg width="24" height="24" viewBox="0 0 24 24" fill="none" xmlns="http://www.w3.org/2000/svg">
<path d="M14.2336 4.14563L5.13239 14.1569C4.84498 14.4731 5.06053 15 5.44374 15H14.5449C14.7844 15 15 14.7629 15 14.4994V4.48812C15 4.06659 14.521 3.82948 14.2336 4.14563Z" fill="#0AD3B6"/>
<path d="M3.05192 0C1.3681 0 0 1.36534 0 3.04575V12.4456C0 12.9444 0.605123 13.1808 0.947148 12.8394L11.3131 2.49437L12.8391 0.97149C13.1811 0.630156 12.9443 0.0262565 12.4445 0.0262565H3.05192V0Z" fill="#0AD3B6"/>
<path d="M14.5324 19H0.491306C0.206865 19 0 19.2332 0 19.4922V20.9948C0 22.6529 1.34463 24 2.99957 24H14.0928H14.5065C14.791 24 14.9978 23.7668 14.9978 23.5078V23.4819V21.0207V19.4922C15.0237 19.2073 14.8168 19 14.5324 19Z" fill="#0A86FF"/>
<path d="M23.5153 19H19.4847C19.2296 19 19 19.2073 19 19.4922V21.0207V23.4819V23.5078C19 23.7668 19.2041 24 19.4847 24H20.148H21.0408C22.6735 24 24 22.6529 24 20.9948V19.4922C24 19.2073 23.7704 19 23.5153 19Z" fill="#0A86FF"/>
<path d="M24 2.44007C23.9746 1.10445 22.8832 0 21.5381 0H19.736H19.4822C19.2284 0 19 0.205479 19 0.488014V2.44007V12.5599V14.512C19 14.7688 19.2031 15 19.4822 15H21.5127H23.5685C23.797 15 23.9746 14.8202 23.9746 14.589V12.5086V2.49144L24 2.44007Z" fill="#0A86FF"/>
</svg>
