<svg xmlns="http://www.w3.org/2000/svg" viewBox="0 0 88.89 87.46"><defs><style>.cls-1{fill:#0ad3b6;}.cls-2{fill:#0a86ff;}</style></defs><title>Asset 18</title><g id="Layer_2" data-name="Layer 2"><g id="Layer_1-2" data-name="Layer 1"><path class="cls-1" d="M1.65,47,42.24,9.08,49.92,1.6A1,1,0,0,0,49.19,0H18.29C8.23,0,0,8,0,17.8V46.27A1,1,0,0,0,1.65,47Z"/><path class="cls-1" d="M15.42,54.48h41a.86.86,0,0,0,.93-.9V15.31a1,1,0,0,0-1.67-.72l-41,38.09A1,1,0,0,0,15.42,54.48Z"/><path class="cls-2" d="M71.32,0a1,1,0,0,0-1.07.9V53.58a.85.85,0,0,0,.89.9H88a.85.85,0,0,0,.89-.9v-36A17.81,17.81,0,0,0,71.32,0Z"/><path class="cls-2" d="M0,68.61a1.3,1.3,0,0,1,1.1-1.23H56.25a1.16,1.16,0,0,1,1.1,1.05v18a1,1,0,0,1-.91,1H18.63A18.86,18.86,0,0,1,0,68.61Z"/><path class="cls-2" d="M88,67.38H71.14a.84.84,0,0,0-.89.88V86.58a.84.84,0,0,0,.89.88h.53A17.81,17.81,0,0,0,88.89,70.2V68.44C88.89,67.74,88.53,67.38,88,67.38Z"/></g></g></svg>