<svg width="263" height="281" viewBox="0 0 263 281" fill="none" xmlns="http://www.w3.org/2000/svg">
<g filter="url(#filter0_d)">
<path d="M154.534 130.617C152.678 129.69 150.822 126.908 150.822 124.59C150.822 123.662 151.286 122.735 151.75 122.271L144.79 126.444C144.326 126.908 143.862 127.372 143.862 128.763C143.862 131.081 145.254 133.863 147.574 134.79C148.502 135.254 149.43 135.254 149.894 135.254L156.854 131.081C156.39 131.081 155.462 131.081 154.534 130.617Z" fill="url(#paint0_linear)"/>
<path d="M141.543 123.199C139.687 121.808 137.831 119.49 137.831 117.172C137.831 116.244 138.295 115.317 138.759 114.854L131.799 119.026C131.335 119.026 130.871 119.954 130.871 121.345C130.871 123.663 132.263 126.445 134.583 127.372C135.511 127.836 136.439 127.836 136.903 127.836L143.863 123.663C143.399 123.663 142.471 123.663 141.543 123.199Z" fill="url(#paint1_linear)"/>
<path d="M128.552 115.78C126.696 114.853 124.84 112.071 124.84 109.753C124.84 108.826 125.304 107.898 125.768 107.435L118.808 111.607C118.344 112.071 117.88 112.535 117.88 113.926C117.88 116.244 119.272 119.026 121.592 119.953C122.52 120.417 123.448 120.417 123.912 120.417L130.872 116.244C130.408 116.244 129.48 116.244 128.552 115.78Z" fill="url(#paint2_linear)"/>
<path d="M116.024 108.361C114.168 107.434 112.312 104.652 112.312 102.334C112.312 101.407 112.776 100.479 113.24 100.016L106.28 104.188C105.816 104.652 105.352 105.116 105.352 106.507C105.352 108.825 106.744 111.607 109.064 112.534C109.992 112.998 110.92 112.998 111.384 112.534L118.344 108.361C117.88 108.825 116.952 108.825 116.024 108.361Z" fill="url(#paint3_linear)"/>
<path d="M103.033 100.944C101.177 100.017 99.7847 97.2351 99.7847 94.9169C99.7847 93.9896 100.249 93.0623 100.713 92.5986L93.7528 96.7714C92.8248 97.2351 92.3608 97.6987 92.3608 99.0897C92.3608 101.408 93.7528 104.19 96.0728 105.117C97.0008 105.581 97.9287 105.581 98.3927 105.117L105.353 100.944C104.889 101.408 103.961 101.408 103.033 100.944Z" fill="url(#paint4_linear)"/>
<path d="M90.0401 93.5253C88.1841 92.598 86.7921 89.8161 86.7921 87.4979C86.7921 86.5706 87.2561 85.6433 87.7201 85.1797L80.7603 89.3525C80.2963 89.8161 79.8323 90.2798 79.8323 91.6707C79.8323 93.989 81.2242 96.3072 83.0802 97.6981C84.0082 98.1618 84.9362 98.1618 85.4002 98.1618L92.824 93.989C91.896 93.989 91.4321 93.989 90.0401 93.5253Z" fill="url(#paint5_linear)"/>
<path d="M160.103 198.309V144.527C160.103 136.645 154.535 126.908 147.575 122.735L83.5442 85.6436C79.8323 83.789 76.5844 83.789 74.2644 85.18C71.9445 86.1072 70.5525 88.8891 70.5525 93.0619V146.381C70.5525 154.263 76.1204 164 83.0803 168.173L147.111 205.264C150.359 207.119 153.607 207.582 155.927 206.191C158.711 204.8 160.103 202.019 160.103 198.309ZM79.8323 91.671C79.8323 90.2801 80.2963 89.8164 80.7603 89.3528C81.2243 88.8891 82.1523 88.8891 83.0803 89.3528C84.9362 90.2801 86.7922 93.0619 86.7922 95.3802C86.7922 96.3074 86.3282 97.2347 85.8642 97.6984C84.9362 98.162 84.0082 98.162 83.0803 97.6984C81.2243 96.3074 79.8323 93.9892 79.8323 91.671ZM92.3601 99.0893C92.3601 98.162 92.8241 97.2347 93.2881 96.7711C93.752 96.3074 94.68 96.3074 95.608 97.2347C97.464 98.162 99.3199 100.944 99.3199 103.262C99.3199 104.189 98.8559 105.117 98.392 105.58C97.928 105.58 97 105.58 96.072 105.117C94.216 103.726 92.3601 101.408 92.3601 99.0893ZM105.352 106.508C105.352 105.58 105.816 104.653 106.28 104.189C107.208 103.726 107.672 103.726 109.064 104.189C110.92 105.58 112.312 108.362 112.312 110.217C112.312 111.608 111.848 112.535 111.384 112.535C110.92 112.999 109.992 112.999 109.064 112.535C106.744 111.144 105.352 108.362 105.352 106.508ZM118.344 113.926C118.344 112.999 118.808 112.071 119.272 111.608C119.736 111.144 120.664 111.144 121.592 112.071C123.447 112.999 125.303 115.781 125.303 118.099C125.303 119.026 124.839 119.953 124.375 120.417C123.911 120.881 122.983 120.881 122.056 119.953C119.736 118.562 118.344 115.781 118.344 113.926ZM130.871 121.344C130.871 120.417 131.335 119.49 131.799 119.026C132.263 118.562 133.191 118.562 134.119 119.49C135.975 120.417 137.831 123.199 137.831 125.517C137.831 126.444 137.367 127.372 136.903 127.835C136.439 128.299 135.511 128.299 134.583 127.372C132.727 125.981 130.871 123.199 130.871 121.344ZM143.863 128.299C143.863 127.372 144.327 126.444 144.791 125.981C145.255 125.517 146.183 125.517 147.111 126.444C148.967 127.372 150.823 130.154 150.823 132.472C150.823 133.399 150.359 134.326 149.895 134.79C149.431 135.254 148.503 135.254 147.575 134.326C145.255 133.399 143.863 130.617 143.863 128.299Z" fill="#FAFAFA"/>
<path d="M85.8635 148.236L137.367 177.91V181.619L85.8635 151.945V148.236Z" fill="#393839"/>
<path d="M85.8635 137.108L144.79 171.418V175.127L85.8635 141.281V137.108Z" fill="#393839"/>
<path d="M85.8635 126.445L144.79 160.291V164.464L85.8635 130.154V126.445Z" fill="#393839"/>
<path d="M85.8638 115.78L144.791 149.626V153.336L85.8638 119.489V115.78Z" fill="#393839"/>
<path d="M154.534 119.026L90.5034 81.9342C86.7914 79.6159 83.5435 79.6159 81.2235 81.0069L74.2637 85.1797C76.5836 83.7887 79.8316 83.7887 83.0795 85.6433L147.11 122.735C154.07 126.908 159.638 136.644 159.638 144.526V197.846C159.638 202.018 158.246 204.8 155.926 205.728L162.886 201.555C165.206 200.164 166.598 197.382 166.598 193.673V140.354C167.062 132.472 161.494 122.735 154.534 119.026Z" fill="url(#paint6_linear)"/>
<path d="M161.054 70.1946C152.537 65.2289 144.729 64.8742 139.051 68.0665L125.565 75.8698C131.243 72.3228 139.051 73.0322 147.923 77.9979C165.312 87.9294 179.508 112.403 179.508 132.266C179.508 142.198 175.959 149.291 170.281 152.484L183.767 144.68C189.445 141.488 192.994 134.394 192.994 124.463C192.639 104.6 178.443 80.1261 161.054 70.1946Z" fill="#0AD3B6"/>
<path d="M179.153 132.267C179.153 142.198 175.604 149.292 169.926 152.484C164.248 155.676 156.44 155.322 147.568 150.356C130.533 140.425 116.338 115.951 116.338 96.0877C116.338 86.1563 119.887 79.0624 125.565 75.8702C131.243 72.3232 139.051 73.0326 147.923 77.9983C164.957 87.9298 179.153 112.404 179.153 132.267Z" fill="#92EFE4"/>
<path d="M167.441 111.694L164.247 106.373C161.763 102.117 158.214 99.989 155.73 101.408L144.018 108.147L139.76 100.698C137.63 96.442 133.727 94.3139 131.242 95.7326L128.048 97.5061C125.564 98.9249 125.564 103.181 128.048 107.438L139.76 127.655C142.244 131.911 146.148 134.04 148.277 132.621L167.441 121.625C169.57 120.561 169.57 115.95 167.441 111.694Z" fill="#FFFBEB"/>
</g>
<defs>
<filter id="filter0_d" x="0.55249" y="0" width="262.441" height="281" filterUnits="userSpaceOnUse" color-interpolation-filters="sRGB">
<feFlood flood-opacity="0" result="BackgroundImageFix"/>
<feColorMatrix in="SourceAlpha" type="matrix" values="0 0 0 0 0 0 0 0 0 0 0 0 0 0 0 0 0 0 127 0"/>
<feOffset dy="4"/>
<feGaussianBlur stdDeviation="35"/>
<feColorMatrix type="matrix" values="0 0 0 0 1 0 0 0 0 1 0 0 0 0 1 0 0 0 0.5 0"/>
<feBlend mode="normal" in2="BackgroundImageFix" result="effect1_dropShadow"/>
<feBlend mode="normal" in="SourceGraphic" in2="effect1_dropShadow" result="shape"/>
</filter>
<linearGradient id="paint0_linear" x1="143.767" y1="128.629" x2="156.809" y2="128.629" gradientUnits="userSpaceOnUse">
<stop stop-color="#D2D2D2"/>
<stop offset="0.3329" stop-color="#E6E5E5"/>
<stop offset="0.6784" stop-color="#F3F1F1"/>
<stop offset="1" stop-color="#F7F5F5"/>
</linearGradient>
<linearGradient id="paint1_linear" x1="130.956" y1="121.238" x2="143.997" y2="121.238" gradientUnits="userSpaceOnUse">
<stop stop-color="#D2D2D2"/>
<stop offset="0.3329" stop-color="#E6E5E5"/>
<stop offset="0.6784" stop-color="#F3F1F1"/>
<stop offset="1" stop-color="#F7F5F5"/>
</linearGradient>
<linearGradient id="paint2_linear" x1="118.145" y1="113.846" x2="131.185" y2="113.846" gradientUnits="userSpaceOnUse">
<stop stop-color="#D2D2D2"/>
<stop offset="0.3329" stop-color="#E6E5E5"/>
<stop offset="0.6784" stop-color="#F3F1F1"/>
<stop offset="1" stop-color="#F7F5F5"/>
</linearGradient>
<linearGradient id="paint3_linear" x1="105.333" y1="106.454" x2="118.37" y2="106.454" gradientUnits="userSpaceOnUse">
<stop stop-color="#D2D2D2"/>
<stop offset="0.3329" stop-color="#E6E5E5"/>
<stop offset="0.6784" stop-color="#F3F1F1"/>
<stop offset="1" stop-color="#F7F5F5"/>
</linearGradient>
<linearGradient id="paint4_linear" x1="92.5214" y1="99.0642" x2="105.56" y2="99.0642" gradientUnits="userSpaceOnUse">
<stop stop-color="#D2D2D2"/>
<stop offset="0.3329" stop-color="#E6E5E5"/>
<stop offset="0.6784" stop-color="#F3F1F1"/>
<stop offset="1" stop-color="#F7F5F5"/>
</linearGradient>
<linearGradient id="paint5_linear" x1="79.7089" y1="91.6712" x2="92.7479" y2="91.6712" gradientUnits="userSpaceOnUse">
<stop stop-color="#D2D2D2"/>
<stop offset="0.3329" stop-color="#E6E5E5"/>
<stop offset="0.6784" stop-color="#F3F1F1"/>
<stop offset="1" stop-color="#F7F5F5"/>
</linearGradient>
<linearGradient id="paint6_linear" x1="74.2377" y1="143.159" x2="166.941" y2="143.159" gradientUnits="userSpaceOnUse">
<stop stop-color="#F7F5F5"/>
<stop offset="0.5845" stop-color="#F3F1F1"/>
<stop offset="1" stop-color="#EBE9E9"/>
</linearGradient>
</defs>
</svg>
