<svg width="108" height="24" viewBox="0 0 108 24" fill="none" xmlns="http://www.w3.org/2000/svg">
<path d="M19.1466 21.2711C18.9209 21.2711 18.6853 21.2711 18.4596 21.2711C17.9395 21.2711 17.7923 21.0682 17.9199 20.5408C17.9886 20.2669 18.1848 20.3785 18.3124 20.3886C18.6559 20.419 18.7737 20.3075 18.7442 19.9423C18.705 19.5568 18.8423 19.0902 18.6755 18.8062C18.5087 18.5222 18.0082 18.6845 17.6647 18.5627C17.5273 18.512 17.3801 18.4917 17.2427 18.4512C17.1249 18.4207 17.0563 18.4714 17.0072 18.5729C16.9581 18.6845 16.9777 18.7656 17.0857 18.8265C17.5273 19.0699 17.1053 19.3134 17.0563 19.5365C16.9876 19.8408 16.7717 19.6278 16.6244 19.5771C16.3889 19.496 16.1632 19.4148 15.9473 19.2829C15.7903 19.1917 15.4272 19.2424 15.5351 18.9279C15.6136 18.7048 15.5351 18.1874 16.0651 18.3802C16.1632 18.4106 16.1828 18.3091 16.2319 18.2381C16.3006 18.1164 16.2515 18.0556 16.1534 17.9947C15.7314 17.7614 15.3389 17.4977 14.9757 17.1832C14.858 17.0818 14.7697 17.1528 14.6813 17.2441C14.5145 17.4266 14.3477 17.6194 14.1612 17.7817C13.7981 18.0758 13.6214 18.3497 14.1121 18.6845C14.3771 18.8671 14.1514 19.0091 14.0238 19.1004C13.8864 19.2018 13.8177 19.5771 13.5429 19.3032C13.0523 18.8163 12.5518 18.3294 12.0807 17.802C11.7863 17.4774 12.2475 17.4266 12.3359 17.2339C12.4144 17.0615 12.5812 16.9905 12.7088 17.2035C13.0032 17.7208 13.2387 17.5078 13.5429 17.1832C14.1808 16.4833 14.2005 16.4934 13.6901 15.7022C13.5822 15.5298 13.4841 15.3573 13.3859 15.1849C13.3369 15.0835 13.2878 15.0124 13.17 15.0733C13.0719 15.124 12.9541 15.1342 13.013 15.3168C13.17 15.8037 12.699 15.6819 12.5125 15.8037C12.2672 15.966 12.2475 15.6616 12.1788 15.5196C12.0709 15.2965 11.9826 15.053 11.8942 14.8197C11.698 14.3227 11.8157 14.1198 12.326 14.0285C12.4634 14.0082 12.5125 14.0589 12.5419 14.1604C12.6008 14.3328 12.6891 14.3531 12.8462 14.272C12.9934 14.2009 12.9443 14.0995 12.9149 13.9778C12.7971 13.5518 12.6891 13.1359 12.6695 12.6895C12.6597 12.4867 12.5518 12.4359 12.3849 12.4359C12.1592 12.4359 11.9237 12.4562 11.698 12.4359C11.2563 12.3954 10.9129 12.4157 11.0208 13.0446C11.0699 13.3489 10.8147 13.2982 10.6577 13.2779C10.4811 13.2576 10.1866 13.4402 10.1768 13.0547C10.167 12.3649 10.1768 11.665 10.1768 10.9753C10.1768 10.5898 10.4516 10.7318 10.6381 10.7217C10.8147 10.7115 11.0895 10.6405 11.0306 10.9854C10.9227 11.6042 11.2563 11.6042 11.698 11.594C12.591 11.5636 12.591 11.5839 12.7677 10.7014C12.8069 10.4884 12.8462 10.2652 12.905 10.0623C12.9443 9.92031 12.905 9.83916 12.7873 9.78844C12.6793 9.73772 12.6106 9.76815 12.5518 9.87973C12.3162 10.3261 12.0807 9.87973 11.8648 9.83916C11.5508 9.77829 11.7863 9.54499 11.8255 9.40298C11.8942 9.15953 12.012 8.93637 12.1003 8.70306C12.3064 8.19588 12.5223 8.14516 12.9541 8.44947C13.1013 8.55091 13.0326 8.6422 13.0032 8.74364C12.9639 8.85522 13.0032 8.92622 13.1111 8.97694C13.2485 9.0378 13.3172 8.99723 13.3859 8.8755C13.6018 8.45961 13.8472 8.05386 14.1514 7.69884C14.2495 7.57711 14.2299 7.5061 14.1318 7.40467C13.9649 7.24237 13.7981 7.08007 13.6509 6.89748C13.3565 6.56274 13.1111 6.21785 12.699 6.80619C12.4831 7.12064 12.3653 6.7149 12.2279 6.60332C12.1101 6.51202 11.8746 6.41059 12.1101 6.17728C12.591 5.69038 13.0621 5.20349 13.5331 4.70644C13.8374 4.39199 13.906 4.77745 14.0533 4.88903C14.2103 5.00061 14.3869 5.16291 14.1219 5.35564C13.6705 5.65995 13.8275 5.9034 14.1612 6.18742C14.4164 6.40044 14.6126 6.7859 14.8776 6.83662C15.0837 6.8772 15.3683 6.51202 15.6136 6.33958C15.7805 6.228 15.9473 6.12656 16.1239 6.03527C16.2417 5.97441 16.2417 5.88311 16.1926 5.78168C16.1534 5.70053 16.1338 5.58895 15.9866 5.63966C15.4664 5.83239 15.6136 5.30492 15.4959 5.10205C15.3389 4.83831 15.6725 4.8586 15.8001 4.77745C16.016 4.65572 16.2417 4.55429 16.4772 4.48328C16.6441 4.43256 16.8796 4.14854 16.9974 4.43256C17.0857 4.64558 17.5371 4.94989 16.9974 5.21363C16.8698 5.27449 16.9777 5.38607 17.0072 5.47737C17.0563 5.61938 17.1446 5.58895 17.2427 5.55851C17.6647 5.4165 18.0965 5.31507 18.5381 5.29478C18.7246 5.28463 18.7933 5.1832 18.7835 5.00061C18.7737 4.74702 18.7638 4.49343 18.7835 4.23983C18.8227 3.79351 18.7835 3.46891 18.2143 3.58049C17.8806 3.64135 17.9689 3.34719 17.9689 3.1646C17.9689 2.99216 17.861 2.72842 18.2045 2.73857C18.8718 2.74871 19.5489 2.74871 20.2163 2.73857C20.5598 2.73857 20.442 3.0023 20.4518 3.17474C20.4616 3.35733 20.5401 3.64135 20.2065 3.58049C19.5784 3.46891 19.5882 3.84423 19.598 4.31084C19.6176 5.21363 19.6078 5.21363 20.442 5.37593C20.6481 5.4165 20.8542 5.45708 21.0603 5.51794C21.1878 5.54837 21.286 5.56866 21.335 5.4165C21.3645 5.31507 21.3841 5.23392 21.2663 5.16291C20.8149 4.89917 21.2565 4.64558 21.3056 4.41228C21.3841 4.09782 21.6 4.3717 21.7374 4.41228C21.9729 4.47314 22.1888 4.62529 22.4244 4.68616C22.8463 4.79774 22.9347 5.0209 22.709 5.39622C22.6206 5.54837 22.6108 5.78168 22.3458 5.60923C22.2379 5.54837 22.1692 5.61938 22.1299 5.73096C22.0907 5.84254 22.1005 5.92369 22.2085 5.98455C22.6304 6.21785 23.023 6.48159 23.3861 6.79605C23.5137 6.90763 23.5922 6.83662 23.6707 6.74533C23.8473 6.56274 24.0044 6.37001 24.1908 6.20771C24.5343 5.91354 24.7502 5.63966 24.2497 5.30492C23.9847 5.12234 24.1908 4.98032 24.3282 4.88903C24.4852 4.78759 24.5441 4.3717 24.8483 4.67601C25.3292 5.16291 25.7905 5.65995 26.2713 6.14685C26.5461 6.43087 26.2223 6.51202 26.1143 6.65403C26.0064 6.7859 25.869 7.05978 25.6727 6.76561C25.3587 6.28886 25.1133 6.44102 24.8287 6.79605C24.6324 7.03949 24.289 7.23223 24.2203 7.49596C24.1418 7.79013 24.5343 7.993 24.6815 8.26688C24.7698 8.44947 24.8876 8.61177 24.9857 8.78421C25.0446 8.89579 25.1035 8.94651 25.2115 8.89579C25.3096 8.84507 25.4175 8.81464 25.3587 8.6422C25.2213 8.16545 25.6727 8.29731 25.8592 8.16545C26.1241 7.98286 26.1143 8.30746 26.183 8.43933C26.3106 8.71321 26.4382 8.98709 26.5265 9.27111C26.5657 9.40298 26.8209 9.616 26.5069 9.71743C26.291 9.77829 26.0456 10.1739 25.8101 9.75801C25.7218 9.60585 25.6531 9.64643 25.5353 9.69714C25.4175 9.74786 25.4077 9.81887 25.4372 9.93045C25.5648 10.3869 25.6727 10.8434 25.7021 11.3201C25.712 11.4824 25.7905 11.5534 25.9573 11.5433C26.2026 11.5332 26.448 11.5129 26.6933 11.5433C27.1448 11.594 27.4588 11.5332 27.3508 10.9347C27.292 10.5898 27.5668 10.6709 27.7434 10.6811C27.9299 10.6811 28.1948 10.5695 28.185 10.955C28.1752 11.6346 28.1752 12.3041 28.185 12.9837C28.185 13.3692 27.9102 13.2373 27.7336 13.2474C27.5569 13.2576 27.292 13.3184 27.3508 12.9837C27.4392 12.4664 27.2036 12.3852 26.762 12.3954C25.8003 12.4258 25.8003 12.4055 25.604 13.3793C25.5647 13.5416 25.5255 13.7039 25.4862 13.8662C25.4666 13.9778 25.4077 14.0995 25.5647 14.1705C25.6923 14.2212 25.7708 14.2009 25.8493 14.0792C26.0947 13.6836 26.3106 14.0894 26.5265 14.1401C26.7915 14.2009 26.6246 14.4038 26.5658 14.5458C26.4774 14.7791 26.3989 15.0226 26.2812 15.2457C26.1928 15.4283 26.2517 15.8037 25.918 15.7022C25.6923 15.6312 25.2213 15.6921 25.3881 15.1545C25.4175 15.053 25.3194 15.0226 25.2409 14.982C25.1133 14.9212 25.0544 14.9922 25.0054 15.0835C24.7895 15.4993 24.5441 15.8949 24.2497 16.2601C24.1221 16.4123 24.2203 16.5036 24.3086 16.5949C24.4852 16.7774 24.6717 16.9397 24.8287 17.1325C25.1133 17.4977 25.3685 17.6295 25.6727 17.1629C25.8788 16.8485 26.0064 17.1629 26.1045 17.2846C26.2223 17.4165 26.5461 17.5078 26.2615 17.7918C25.7807 18.2787 25.3194 18.7758 24.8385 19.2525C24.5343 19.5568 24.4754 19.1308 24.3184 19.0294C24.1712 18.9381 24.0044 18.7859 24.2595 18.6135C24.7502 18.2889 24.5245 18.0454 24.2203 17.7411C23.5628 17.0818 23.5726 17.0818 22.8169 17.5889C22.6403 17.7107 22.4538 17.8121 22.2673 17.9237C22.1692 17.9845 22.1299 18.0556 22.1888 18.1671C22.2379 18.2686 22.287 18.3396 22.4047 18.299C22.915 18.1367 22.7777 18.6439 22.8856 18.8468C23.023 19.1004 22.6991 19.0902 22.5716 19.1714C22.3458 19.2931 22.1005 19.4047 21.8552 19.4858C21.6981 19.5365 21.4822 19.8206 21.3841 19.4858C21.3154 19.2627 20.8934 18.9888 21.3645 18.7453C21.4921 18.6743 21.443 18.583 21.3939 18.4917C21.3448 18.3903 21.286 18.3497 21.1584 18.3903C20.7168 18.5323 20.2752 18.6236 19.8139 18.6642C19.6176 18.6845 19.5784 18.796 19.5882 18.9685C19.598 19.1511 19.598 19.3438 19.5882 19.5264C19.5588 20.0133 19.4999 20.4799 20.2359 20.3582C20.5696 20.2973 20.4224 20.6422 20.4322 20.8045C20.442 20.9769 20.5499 21.2407 20.2065 21.2407C19.8335 21.2711 19.4901 21.2711 19.1466 21.2711ZM19.1171 17.8425C22.2772 17.8425 24.8385 15.2559 24.8385 12.0505C24.8385 8.75378 22.3262 6.10627 19.2055 6.09613C16.0356 6.09613 13.4742 8.71321 13.4742 11.949C13.4742 15.2052 15.9964 17.8425 19.1171 17.8425Z" fill="white"/>
<path d="M4.83911 11.9403C6.85092 12.5895 7.53788 13.6444 7.40049 15.8152C7.31216 17.1643 7.23365 18.5134 7.1944 19.8625C7.16496 20.9885 7.73415 21.6377 8.82348 21.8304C9.31416 21.9115 9.80485 21.9014 10.2857 21.8912C10.5311 21.8811 10.6586 21.9521 10.6194 22.226C10.6096 22.297 10.6194 22.3579 10.6194 22.4289C10.6096 22.9158 10.7862 23.5751 10.5507 23.849C10.2759 24.1634 9.6282 23.9403 9.14733 23.9403C8.50944 23.9403 7.88136 23.8084 7.28272 23.5751C5.73215 22.9868 4.85873 21.5869 4.94706 19.8118C5.01575 18.4322 5.10408 17.0527 5.20221 15.6732C5.33961 13.7864 4.86855 13.1677 3.0432 13.0561C2.15996 13.0054 1.27673 13.0257 0.393491 13.0459C0.0794515 13.0561 0.000941753 12.9546 0.0205692 12.6402C0.0500104 12.204 0.0401966 11.7577 0.0205692 11.3215C0.000941753 11.0273 0.108893 10.9563 0.383677 10.9563C1.16877 10.9766 1.95387 10.9665 2.73897 10.9665C2.88618 10.9665 3.03338 10.9665 3.18059 10.9665C4.73116 10.8955 5.30035 10.2666 5.22184 8.674C5.15315 7.32489 5.07464 5.97578 4.9765 4.63681C4.78022 2.01974 6.08545 0.376456 8.61739 0.0924326C9.16696 0.0315704 9.72634 0.0315704 10.2759 0.0214267C10.5409 0.011283 10.6586 0.0822889 10.639 0.376456C10.6194 0.782204 10.6096 1.18795 10.639 1.5937C10.6685 1.97916 10.5703 2.13132 10.168 2.10089C9.61839 2.07045 9.05901 2.07045 8.51925 2.23275C7.66546 2.48635 7.18459 3.09497 7.21403 4.0079C7.25328 5.42802 7.35142 6.83799 7.43974 8.24797C7.46918 8.72472 7.479 9.20148 7.36123 9.65794C6.98831 10.9766 6.16396 11.7374 4.83911 11.9403Z" fill="white"/>
<path d="M33.7003 12.0097C31.8161 11.6952 30.8936 10.6099 30.923 8.70284C30.9427 7.28272 31.0702 5.87274 31.1291 4.45262C31.1978 2.87021 30.5207 2.13986 28.9995 2.09928C28.5776 2.08914 27.9299 2.29201 27.7925 2.00799C27.5471 1.47038 27.7238 0.790747 27.714 0.161838C27.714 0.0299695 27.8121 -0.000461651 27.9102 -0.000461651C29.0879 -0.0207491 30.2753 -0.0106054 31.3647 0.527011C32.6797 1.1965 33.3667 2.3123 33.3667 3.81357C33.3568 5.26412 33.2391 6.71467 33.1606 8.16522C33.1409 8.59125 33.1311 9.00715 33.1704 9.43318C33.2587 10.2548 33.6611 10.7113 34.456 10.8533C35.5747 11.0562 36.7033 10.9243 37.8319 10.9446C38.1754 10.9446 38.3324 11.0055 38.2931 11.4011C38.2539 11.817 38.2637 12.243 38.2931 12.669C38.303 12.9429 38.2146 13.0038 37.9595 13.0038C36.929 13.0139 35.8986 12.9328 34.8682 13.0545C33.5531 13.2066 33.1115 13.6834 33.1409 15.0629C33.1704 16.3918 33.2685 17.7307 33.3372 19.0596C33.3667 19.5972 33.4255 20.1449 33.3372 20.6825C33.0428 22.407 31.9829 23.4518 30.187 23.8271C29.4412 23.9792 28.6855 23.9387 27.9397 23.9488C27.7532 23.9488 27.6845 23.8981 27.6845 23.6952C27.6943 23.188 27.6943 22.6809 27.6845 22.1737C27.6747 21.9404 27.7728 21.8998 27.9691 21.8998C28.4402 21.8998 28.9112 21.9201 29.3921 21.8491C30.6384 21.6563 31.1978 20.9869 31.1291 19.6783C31.0702 18.2988 30.9427 16.9192 30.9132 15.5295C30.874 13.3994 31.6394 12.4459 33.7003 12.0097Z" fill="white"/>
<path d="M93.7799 12.0093C93.7799 11.1167 93.7996 10.2241 93.7701 9.33141C93.7603 8.96624 93.8781 8.87495 94.2117 8.89523C94.7809 8.92566 95.3501 8.89523 95.9291 8.90538C97.1362 8.93581 97.8723 9.71687 97.8723 10.9544C97.8723 11.6949 97.8821 12.4354 97.8723 13.186C97.8624 14.3018 97.1166 15.093 96.0273 15.1336C95.3894 15.1539 94.7515 15.1235 94.1136 15.1438C93.8192 15.1539 93.7603 15.0322 93.7701 14.7583C93.7799 13.8352 93.7799 12.9223 93.7799 12.0093ZM95.0557 12.0195C95.0557 12.547 95.0557 13.0643 95.0557 13.5918C95.0557 13.7033 95.0165 13.8251 95.1637 13.8961C95.7819 14.2004 96.5768 13.7439 96.6161 13.0237C96.6455 12.4658 96.6259 11.9079 96.6259 11.35C96.6259 10.3255 96.3609 10.082 95.3501 10.1226C95.1146 10.1328 95.0459 10.2038 95.0459 10.4472C95.0655 10.9747 95.0557 11.492 95.0557 12.0195Z" fill="white"/>
<path d="M78.5981 11.9892C78.5981 11.6037 78.5981 11.2081 78.5981 10.8227C78.5981 9.717 79.1673 8.9968 80.2272 8.84464C81.8072 8.61133 82.9456 9.43298 82.8376 11.1067C82.7984 11.8167 82.8376 12.5268 82.8278 13.2369C82.8082 14.4845 81.9838 15.2453 80.659 15.2352C79.3538 15.225 78.5981 14.4845 78.5883 13.2166C78.5981 12.8007 78.5981 12.3949 78.5981 11.9892ZM79.8739 11.979C79.8739 12.3848 79.8739 12.7905 79.8739 13.1963C79.8739 13.2267 79.8739 13.2673 79.8739 13.2977C79.9033 13.7542 80.1585 14.0281 80.6197 14.0788C81.0515 14.1194 81.503 13.8455 81.5226 13.4296C81.5618 12.5065 81.5618 11.5733 81.5226 10.6502C81.503 10.2242 81.0613 9.93002 80.6393 9.97059C80.1781 10.0112 79.8837 10.3053 79.8739 10.7821C79.8641 11.1675 79.8739 11.5733 79.8739 11.979Z" fill="white"/>
<path d="M64.9276 10.8329C65.2122 10.5387 65.4771 10.3358 65.8304 10.2851C66.8314 10.1533 67.5773 10.7619 67.6165 11.8168C67.6558 12.8312 67.6165 13.8456 67.6362 14.8599C67.6362 15.1135 67.538 15.1541 67.3221 15.1642C66.3506 15.2048 66.3506 15.215 66.3506 14.2209C66.3506 13.5615 66.3604 12.9022 66.3506 12.2429C66.3408 11.7154 66.0758 11.4314 65.6145 11.4415C65.1729 11.4516 64.9374 11.7154 64.9374 12.2429C64.9276 13.0746 64.9276 13.8963 64.9374 14.7281C64.9472 15.0222 64.8883 15.1338 64.5645 15.1338C63.642 15.1338 63.6518 15.1541 63.642 14.1904C63.6322 12.5573 63.6322 10.914 63.6027 9.2809C63.5929 8.88529 63.7107 8.80414 64.064 8.81429C64.9178 8.83457 64.9178 8.81429 64.9178 9.72722C64.9276 10.062 64.9276 10.4068 64.9276 10.8329Z" fill="white"/>
<path d="M43.8673 13.704C43.779 13.6939 43.6907 13.6634 43.622 13.6736C43.2 13.7547 43.2098 13.491 43.1902 13.1664C43.1706 12.8114 43.3178 12.7201 43.6122 12.7708C43.936 12.8215 44.093 12.7099 44.093 12.3448C44.093 12.1825 44.1323 12.01 44.1814 11.8477C44.3188 11.4115 44.2795 11.1478 43.7299 11.2391C43.4257 11.2898 43.4846 11.0261 43.5042 10.8638C43.5239 10.6812 43.3374 10.387 43.7005 10.3465C43.7986 10.3363 43.8968 10.3363 43.9949 10.3465C44.3089 10.387 44.4856 10.3059 44.4954 9.94071C44.5052 9.68712 44.6034 9.44367 44.623 9.20022C44.6426 8.97706 44.7211 8.89591 44.9567 8.88577C45.5945 8.87562 45.5945 8.85534 45.4768 9.48424C45.467 9.55525 45.4572 9.61611 45.4473 9.68712C45.3492 10.3465 45.5062 10.4885 46.1736 10.3566C46.3796 10.316 46.3796 10.174 46.4091 10.032C46.4582 9.74798 46.4974 9.46396 46.5367 9.17993C46.5661 8.9872 46.6446 8.90605 46.8507 8.88577C47.4886 8.85533 47.4984 8.84519 47.4003 9.49439C47.3806 9.64654 47.3512 9.78856 47.312 9.94071C47.2531 10.2146 47.2629 10.387 47.626 10.3566C48.1167 10.316 47.8517 10.7218 47.9106 10.9348C47.9793 11.229 47.8026 11.2898 47.5769 11.2492C47.1647 11.1681 47.0372 11.3913 47.0175 11.7666C47.0077 11.9289 46.9685 12.1013 46.939 12.2636C46.8703 12.5984 46.8605 12.8621 47.3218 12.7708C47.6652 12.6998 47.6456 12.9534 47.6162 13.1664C47.5966 13.3591 47.7634 13.7243 47.3512 13.6533C46.782 13.562 46.5857 13.8257 46.5955 14.3634C46.5955 14.4648 46.5563 14.5561 46.5367 14.6575C46.468 15.043 45.9577 15.2966 45.6436 15.1039C45.516 15.0328 45.5946 14.9314 45.6044 14.8401C45.6436 14.5561 45.6829 14.2721 45.7418 13.988C45.8006 13.7142 45.7025 13.6533 45.4473 13.6533C44.7702 13.6432 44.7702 13.633 44.6622 14.3228C44.6426 14.4344 44.6328 14.5561 44.6034 14.6677C44.5249 15.0531 44.093 15.2662 43.7496 15.1039C43.5925 15.0328 43.6612 14.901 43.6809 14.7995C43.7398 14.4547 43.8085 14.0895 43.8673 13.704ZM46.1932 11.2898C45.1922 11.158 45.1922 11.158 45.0548 12.1013C44.9567 12.7809 44.9567 12.7708 45.6142 12.7708C45.8791 12.7708 45.9871 12.6897 46.0165 12.4259C46.0656 12.0506 46.1343 11.6753 46.1932 11.2898Z" fill="white"/>
<path d="M105.969 12.6389C105.262 12.9026 104.595 12.8113 104.084 12.2331C103.535 11.6144 103.496 10.8536 103.751 10.0928C104.016 9.29148 104.644 8.91616 105.429 8.82487C106.705 8.68285 107.647 9.23061 107.912 10.2856C108.079 10.9348 108 11.5941 107.735 12.2129C107.303 13.2069 106.646 14.0489 106.086 14.9618C106.008 15.0937 105.91 15.1342 105.762 15.1342C105.39 15.1241 105.017 15.1342 104.555 15.1342C105.095 14.2923 105.596 13.5214 106.086 12.7403C106.126 12.6998 106.204 12.6592 106.155 12.6085C106.106 12.5476 106.018 12.5577 105.969 12.6389ZM105.762 11.655C106.204 11.6347 106.597 11.1985 106.587 10.7522C106.567 10.2856 106.175 9.9001 105.723 9.91024C105.262 9.92039 104.909 10.3058 104.909 10.8029C104.909 11.2695 105.321 11.6651 105.762 11.655Z" fill="white"/>
<path d="M85.7425 14.0281C86.0958 12.4558 86.4393 10.9647 86.7435 9.47355C86.8318 9.03737 86.9692 8.81421 87.4206 8.89536C87.5482 8.91565 87.6856 8.91565 87.8132 8.89536C88.1174 8.86493 88.1665 8.96637 88.0781 9.26053C87.5875 11.0965 87.1164 12.9326 86.6552 14.7787C86.5865 15.0323 86.4883 15.1236 86.2234 15.1236C84.8592 15.1439 84.8593 15.154 84.5158 13.8049C84.133 12.2935 83.7601 10.7719 83.3676 9.26053C83.2891 8.96637 83.3283 8.88522 83.6325 8.88522C84.5845 8.86493 84.5845 8.85478 84.7906 9.79815C85.1046 11.1777 85.4088 12.5572 85.7425 14.0281Z" fill="white"/>
<path d="M73.6127 12.0405C73.6127 11.5637 73.5931 11.0971 73.6127 10.6204C73.6422 9.97118 73.9169 9.45385 74.4665 9.11911C75.4381 8.52063 77.3812 8.67279 77.7639 10.2146C77.8621 10.6001 77.8719 10.8233 77.3812 10.7725C76.9886 10.732 76.5863 10.874 76.3606 10.3059C76.2134 9.92046 75.7423 9.96104 75.389 10.0625C75.0455 10.1639 74.8689 10.4378 74.8787 10.8334C74.8885 11.6246 74.8885 12.426 74.8787 13.2172C74.8787 13.6533 75.0553 13.9272 75.4675 14.0185C75.9091 14.1098 76.2821 14.0185 76.498 13.5519C76.6059 13.3287 77.6069 13.1259 77.7737 13.3085C77.813 13.349 77.8228 13.4302 77.813 13.491C77.7934 13.6229 77.7737 13.7548 77.7345 13.8867C77.4499 14.8706 76.5176 15.3778 75.2811 15.2155C74.2604 15.0836 73.6127 14.3533 73.6029 13.3186C73.6029 12.8926 73.6127 12.4665 73.6127 12.0405Z" fill="white"/>
<path d="M56.2326 13.0746C55.8401 13.0746 55.4475 13.0949 55.055 13.0644C54.7606 13.0442 54.7311 13.1862 54.7606 13.4195C54.79 13.7441 54.9274 13.9977 55.2316 14.1295C55.5849 14.2716 55.9775 14.2716 56.2522 14.0078C56.6448 13.6325 57.0864 13.8455 57.5084 13.8151C57.7145 13.7948 57.636 13.9977 57.5869 14.1093C57.4495 14.444 57.214 14.7077 56.9098 14.8802C56.0363 15.3671 55.1531 15.3671 54.2993 14.8599C53.7988 14.5657 53.5437 14.0788 53.5142 13.4803C53.4946 12.9934 53.4946 12.5065 53.5142 12.0095C53.524 11.5733 53.6811 11.198 53.9853 10.8836C54.6232 10.2242 55.9088 10.0619 56.7724 10.5285C57.5378 10.9444 57.9108 11.8675 57.7341 12.8819C57.6949 13.0847 57.5967 13.0746 57.4691 13.0746C57.0471 13.0746 56.635 13.0746 56.2326 13.0746ZM55.6045 12.2631C55.7714 12.2631 55.9284 12.2631 56.0952 12.2631C56.4878 12.253 56.5761 12.1109 56.3994 11.7458C56.2424 11.4313 55.9775 11.2893 55.6438 11.2792C55.3199 11.269 55.0353 11.3907 54.8685 11.695C54.6428 12.1008 54.7311 12.253 55.1727 12.2631C55.3101 12.2631 55.4573 12.2631 55.6045 12.2631Z" fill="white"/>
<path d="M72.3958 8.89582C71.5518 10.0623 70.7766 11.1173 70.0111 12.1824C69.9031 12.3345 69.6872 12.4968 69.7952 12.7098C69.9031 12.9229 70.1485 12.8011 70.3251 12.8113C70.6293 12.8214 71.0121 12.9026 71.2378 12.7606C71.493 12.5881 71.3163 12.1722 71.3359 11.8578C71.3457 11.6448 71.4046 11.5738 71.6205 11.5636C72.6215 11.4926 72.6215 11.4825 72.6215 12.5273C72.6215 13.2678 72.6117 14.0082 72.6313 14.7589C72.6412 15.0429 72.5528 15.1646 72.2781 15.124C72.1799 15.1139 72.0818 15.124 71.9836 15.124C71.3556 15.124 71.3261 15.124 71.3556 14.4546C71.3752 14.0792 71.2672 13.9575 70.9041 13.9778C70.2368 14.0082 69.5695 13.9778 68.8923 13.988C68.6372 13.9981 68.5488 13.9169 68.5586 13.6532C68.5783 13.288 68.5783 12.9127 68.5586 12.5374C68.5488 12.2635 68.6273 12.0505 68.7844 11.8476C69.4124 11.0057 70.0405 10.1638 70.6293 9.30156C70.8452 8.98711 71.071 8.85524 71.4341 8.89582C71.7187 8.92625 72.0131 8.89582 72.3958 8.89582Z" fill="white"/>
<path d="M100.483 10.1335C99.9528 10.4886 99.4817 10.8132 98.9321 11.1783C98.9321 10.7523 98.9321 10.3973 98.9321 10.0422C98.9321 9.99151 98.9223 9.91036 98.9517 9.90022C99.5111 9.55533 99.9429 8.93657 100.659 8.90614C101.758 8.86556 101.758 8.88585 101.758 10.0118C101.758 11.2088 101.768 12.4159 101.749 13.6128C101.739 13.9273 101.827 14.049 102.131 13.9983C102.18 13.9881 102.23 13.9983 102.279 13.9983C103.074 13.9983 103.172 14.1301 103.044 14.9518C103.005 15.1851 102.877 15.1648 102.74 15.1648C101.543 15.1648 100.355 15.1648 99.1578 15.1648C98.9321 15.1648 98.8144 15.0938 98.8536 14.8503C98.8536 14.8199 98.8536 14.7793 98.8536 14.7489C98.8438 13.9983 98.8438 13.9983 99.5602 13.9983C100.493 13.9983 100.493 13.9983 100.493 13.0245C100.483 12.071 100.483 11.1276 100.483 10.1335Z" fill="white"/>
<path d="M90.7279 15.1237C90.2176 15.1237 89.7171 15.1035 89.2067 15.1339C88.9025 15.144 88.7847 15.0426 88.8338 14.7383C88.8534 14.6064 88.8534 14.4644 88.8338 14.3325C88.8044 14.0688 88.9025 13.9978 89.1577 13.9876C90.09 13.9674 90.09 13.9572 90.09 12.9834C90.09 12.1415 90.0802 11.2996 90.0998 10.4475C90.1096 10.1229 90.0311 9.97074 89.7072 10.0316C89.6582 10.0417 89.6091 10.0316 89.56 10.0316C88.8142 10.0316 88.6964 9.8693 88.8338 9.09838C88.8731 8.90565 88.9712 8.90565 89.1086 8.90565C90.1979 8.90565 91.2971 8.9158 92.3864 8.89551C92.6121 8.89551 92.671 8.97666 92.6514 9.18968C92.6416 9.3114 92.6317 9.42298 92.6514 9.5447C92.7102 9.93017 92.5827 10.062 92.1901 10.0417C91.3952 10.0113 91.3952 10.0316 91.3952 10.8431C91.3952 11.756 91.405 12.669 91.3854 13.5819C91.3756 13.9166 91.4639 14.0485 91.7878 13.9978C91.8859 13.9775 91.984 14.0079 92.0822 13.9978C92.5532 13.9065 92.671 14.0891 92.671 14.5861C92.671 15.0629 92.5336 15.1846 92.1018 15.144C91.6504 15.0933 91.1891 15.1237 90.7279 15.1237Z" fill="white"/>
<path d="M50.8449 12.6283C50.8351 14.0383 50.7664 13.947 52.0716 13.9267C52.4151 13.9166 52.5132 14.0282 52.5034 14.3832C52.4838 15.1237 52.5034 15.1237 51.7772 15.1237C51.63 15.1237 51.4828 15.1237 51.3356 15.1237C50.0598 15.1237 49.5691 14.6063 49.5691 13.2775C49.5691 12.8211 49.5495 12.3646 49.5789 11.9081C49.5985 11.614 49.4906 11.5125 49.2158 11.5531C49.1864 11.5632 49.1471 11.5531 49.1177 11.5531C48.362 11.5531 48.2148 11.3299 48.3718 10.5387C48.4209 10.3054 48.5583 10.3561 48.6957 10.346C49.5691 10.3054 49.5985 10.3054 49.5495 9.41277C49.5298 8.93602 49.6869 8.82444 50.0892 8.8853C50.2168 8.90559 50.3542 8.90559 50.4818 8.8853C50.7467 8.85487 50.8547 8.93602 50.8449 9.24033C50.8351 9.6055 50.6781 10.0924 50.9234 10.2953C51.1295 10.4677 51.5809 10.3257 51.9244 10.346C52.1207 10.3561 52.4445 10.2243 52.5034 10.4373C52.5917 10.7416 52.5525 11.1068 52.5328 11.4415C52.523 11.5937 52.3464 11.5429 52.2482 11.5429C51.9244 11.5531 51.5907 11.5734 51.2669 11.5328C50.8743 11.4821 50.786 11.6545 50.8253 12.0096C50.8645 12.2226 50.8449 12.4255 50.8449 12.6283Z" fill="white"/>
<path d="M62.7882 13.4503C62.5723 14.6879 61.6792 15.3168 60.3446 15.2153C59.1964 15.124 58.5487 14.4038 58.5388 13.1967C58.5388 12.8417 58.529 12.4867 58.5388 12.1316C58.5487 11.7868 58.6075 11.452 58.8038 11.168C59.3534 10.3666 60.1483 10.2145 61.0217 10.3159C61.8363 10.4072 62.4153 10.8535 62.7097 11.6549C62.8078 11.9186 62.8274 12.1012 62.4545 12.0606C62.0227 12.0201 61.5811 12.1621 61.2572 11.6549C61.0413 11.3404 60.6095 11.381 60.2562 11.5129C59.9128 11.6447 59.8146 11.9389 59.8244 12.2838C59.8244 12.5881 59.8244 12.8924 59.8244 13.1967C59.8244 13.5213 59.8735 13.8155 60.1875 13.9575C60.5507 14.13 61.0119 14.1908 61.2376 13.8561C61.6792 13.217 62.2582 13.5619 62.7882 13.4503Z" fill="white"/>
<path d="M105.969 12.6385C106.018 12.5573 106.096 12.537 106.155 12.5979C106.204 12.6486 106.126 12.6892 106.086 12.7298C106.047 12.6993 106.008 12.6689 105.969 12.6385Z" fill="#FEFEFE"/>
<path d="M20.4027 11.9589C20.4125 12.6385 19.8237 13.2573 19.1564 13.2674C18.4891 13.2776 17.9002 12.6588 17.9002 11.969C17.9002 11.2894 18.4596 10.7112 19.1171 10.6909C19.7943 10.6706 20.3929 11.2691 20.4027 11.9589ZM18.754 11.9893C18.7933 12.2023 18.9012 12.3646 19.1368 12.3646C19.3821 12.3646 19.5293 12.2226 19.5293 11.9589C19.5293 11.7256 19.3821 11.5836 19.1662 11.5734C18.911 11.5734 18.7933 11.7357 18.754 11.9893Z" fill="#EB5B6A"/>
<path d="M21.7668 10.5588C21.0406 10.5689 20.5205 10.0414 20.5205 9.30094C20.5205 8.58074 21.0602 8.0127 21.757 8.0127C22.444 8.0127 22.9837 8.58074 22.9739 9.31109C22.9739 10.0313 22.4636 10.5486 21.7668 10.5588ZM22.1398 9.2908C22.1005 9.07778 22.0122 8.91548 21.7668 8.91548C21.5313 8.91548 21.3939 9.03721 21.3841 9.28066C21.3743 9.53425 21.5215 9.70669 21.7668 9.69655C21.9729 9.68641 22.1103 9.52411 22.1398 9.2908Z" fill="#EB5B6A"/>
<path d="M17.7825 14.6373C17.7923 15.3778 17.2721 15.9357 16.5656 15.9357C15.8688 15.9357 15.3094 15.3778 15.3094 14.6576C15.3094 13.9678 15.8492 13.3997 16.5165 13.3794C17.2231 13.3592 17.7726 13.9171 17.7825 14.6373ZM16.9581 14.6677C16.9287 14.4648 16.8403 14.2924 16.6048 14.2721C16.3791 14.2518 16.2221 14.3431 16.1926 14.5967C16.1632 14.8604 16.3006 15.0227 16.5459 15.043C16.7815 15.0633 16.8894 14.901 16.9581 14.6677Z" fill="#EB5B6A"/>
<path d="M22.9739 14.657C22.9739 15.3772 22.4342 15.9351 21.7276 15.925C21.0504 15.9148 20.5205 15.3671 20.5205 14.6773C20.5107 13.9571 21.0504 13.389 21.7374 13.3789C22.4342 13.3789 22.9739 13.9368 22.9739 14.657ZM22.1201 14.6469C22.1201 14.4339 22.0122 14.2817 21.7767 14.2716C21.5509 14.2614 21.3939 14.373 21.3841 14.6164C21.3645 14.8802 21.5019 15.0425 21.7472 15.0526C21.9631 15.0526 22.0907 14.9106 22.1201 14.6469Z" fill="#EB5B6A"/>
<path d="M16.5165 10.5593C15.8295 10.539 15.2898 9.94054 15.3192 9.23048C15.3487 8.55085 15.9179 7.99294 16.5852 8.01323C17.2722 8.02338 17.8021 8.60157 17.7923 9.33191C17.7727 10.0623 17.2427 10.5796 16.5165 10.5593ZM16.9581 9.29134C16.9287 9.07832 16.8207 8.92617 16.5852 8.90588C16.3497 8.89573 16.2123 9.01746 16.1926 9.26091C16.173 9.52464 16.3202 9.68694 16.5656 9.69709C16.7815 9.69709 16.9189 9.53479 16.9581 9.29134Z" fill="#EB5B6A"/>
<path d="M18.3418 16.1483C18.3418 15.6412 18.6853 15.2861 19.1662 15.2861C19.6373 15.2861 19.9905 15.6817 19.9807 16.1585C19.9709 16.615 19.6078 17.0004 19.1662 17.0106C18.7148 17.0207 18.3418 16.6454 18.3418 16.1483Z" fill="white"/>
<path d="M23.1898 12.8212C22.709 12.8212 22.3557 12.456 22.3655 11.959C22.3753 11.4619 22.7188 11.117 23.2095 11.1272C23.6707 11.1373 24.0044 11.4721 24.0044 11.959C24.0142 12.4661 23.6707 12.8212 23.1898 12.8212Z" fill="white"/>
<path d="M19.1466 6.90723C19.6078 6.90723 19.9807 7.29269 19.9807 7.76944C19.9807 8.23605 19.6274 8.60123 19.1858 8.61137C18.6951 8.62151 18.3517 8.28677 18.3418 7.77958C18.332 7.2724 18.6755 6.90723 19.1466 6.90723Z" fill="white"/>
<path d="M15.9571 11.9999C15.9473 12.4868 15.5646 12.852 15.0935 12.8317C14.6224 12.8114 14.2692 12.4158 14.2888 11.939C14.3182 11.4724 14.6715 11.1377 15.1229 11.1377C15.6038 11.1377 15.9669 11.513 15.9571 11.9999Z" fill="white"/>
</svg>
