<svg width="36" height="36" viewBox="0 0 36 36" fill="none" xmlns="http://www.w3.org/2000/svg">
<g clip-path="url(#clip0)">
<path fill-rule="evenodd" clip-rule="evenodd" d="M18.0741 0C8 0 0 8 0 18.0741C0 28.1481 8 36.1481 18.0741 36.1481C28.1481 36.1481 36.1481 28.1481 36.1481 18.0741C36.1481 8 28 0 18.0741 0ZM22.5185 26.2222C19.1111 26.0741 13.7778 23.4074 10.0741 17.037C8.74074 14.6667 8.88889 12 10.8148 10.2222C11.4074 9.62963 12.2963 9.77778 13.037 9.92593C13.1852 9.92593 13.4815 10.2222 13.4815 10.5185C13.9259 11.7037 14.5185 12.7407 14.8148 13.9259C15.1111 14.5185 14.6667 15.1111 13.7778 16.1481C13.4815 16.4444 13.4815 16.7407 13.6296 17.1852C15.1111 19.5556 17.037 21.3333 19.7037 22.3704C20.1481 22.5185 20.4444 22.3704 20.5926 22.0741C21.9259 20.4444 22.0741 19.8519 22.8148 20.2963C26.3704 21.9259 26.6667 22.0741 26.6667 22.3704C26.963 25.1852 24.1481 26.2222 22.5185 26.2222Z" fill="#0A86FF"/>
</g>
<defs>
<clipPath id="clip0">
<rect width="36" height="36" fill="white"/>
</clipPath>
</defs>
</svg>
