<svg xmlns="http://www.w3.org/2000/svg" viewBox="0 0 228.51 87.86"><defs><style>.cls-1{fill:#393839;}.cls-2{fill:#0ad3b6;}.cls-3{fill:#0a86ff;}</style></defs><title>Asset 17</title><g id="Layer_2" data-name="Layer 2"><g id="Layer_1-2" data-name="Layer 1"><path class="cls-1" d="M27.62,41.13v-23L18.91,31.66H15.36L6.57,18.15v23H0V6.89H7l10,16.05,10.12-16h7V41.13Z"/><path class="cls-1" d="M52,41.58a15.18,15.18,0,0,1-5.51-1,10.24,10.24,0,0,1-4.08-2.81,12.14,12.14,0,0,1-2.58-4.09A12.86,12.86,0,0,1,39,28.87,13,13,0,0,1,39.87,24a13.67,13.67,0,0,1,2.58-4.08,13,13,0,0,1,4.08-2.82,13.22,13.22,0,0,1,5.51-1,14.29,14.29,0,0,1,5.41,1,13.21,13.21,0,0,1,4.09,2.82A12.22,12.22,0,0,1,64.11,24,12.85,12.85,0,0,1,65,28.87a12.94,12.94,0,0,1-3.46,8.9,13.18,13.18,0,0,1-4.09,2.81A14,14,0,0,1,52,41.58ZM45.55,28.87a8,8,0,0,0,.54,3,7.91,7.91,0,0,0,1.42,2.37,6.78,6.78,0,0,0,2,1.54,6.41,6.41,0,0,0,5.15,0,5.83,5.83,0,0,0,2-1.54,6.93,6.93,0,0,0,1.42-2.37,8,8,0,0,0,.54-3,8.09,8.09,0,0,0-.54-3A7,7,0,0,0,54.7,22a6.41,6.41,0,0,0-5.15,0,5.85,5.85,0,0,0-2,1.55,6.8,6.8,0,0,0-1.42,2.36A6.84,6.84,0,0,0,45.55,28.87Z"/><path class="cls-1" d="M83.83,41.58a10.18,10.18,0,0,1-5.06-1.27,9.43,9.43,0,0,1-3.56-3.45v4.27H69.62V6.89H76v14a10.15,10.15,0,0,1,3.47-3.54,9.94,9.94,0,0,1,5.06-1.27,10.22,10.22,0,0,1,4.44,1,11.6,11.6,0,0,1,3.46,2.82A12.78,12.78,0,0,1,94.66,24a15,15,0,0,1,.8,4.91,13.14,13.14,0,0,1-.89,5,12.09,12.09,0,0,1-2.48,4,12.4,12.4,0,0,1-3.73,2.72A9.27,9.27,0,0,1,83.83,41.58Zm-1.78-5.36a7.55,7.55,0,0,0,2.84-.54,6.57,6.57,0,0,0,2.22-1.55,7.31,7.31,0,0,0,1.42-2.27,7.4,7.4,0,0,0,.54-2.81,10.35,10.35,0,0,0-.45-2.91,8.49,8.49,0,0,0-1.33-2.36,5.73,5.73,0,0,0-2-1.63,6.33,6.33,0,0,0-2.67-.64,5.76,5.76,0,0,0-3.81,1.36,9.36,9.36,0,0,0-2.58,3.36v5.91a4.73,4.73,0,0,0,1,1.72A6.54,6.54,0,0,0,80.36,36,4.79,4.79,0,0,0,82.05,36.22Z"/><path class="cls-1" d="M100.08,13.06V6.89h6.39v6.26h-6.39Zm0,28.07V16.51h6.39V41.13Z"/><path class="cls-1" d="M112.42,6.89h6.39V33.32a2.62,2.62,0,0,0,.71,2.09,2.24,2.24,0,0,0,1.87.72,6.74,6.74,0,0,0,1.24-.18A7.44,7.44,0,0,0,124,35.5l.89,4.81a13.27,13.27,0,0,1-3,.91,21.91,21.91,0,0,1-3.1.36A6.45,6.45,0,0,1,114.11,40a6.09,6.09,0,0,1-1.69-4.45Z"/><path class="cls-1" d="M127.78,13.06V6.89h6.4v6.26h-6.4Zm0,28.07V16.51h6.4V41.13Z"/><path class="cls-1" d="M155.13,39.86A32.55,32.55,0,0,1,152,41a14.2,14.2,0,0,1-3.91.54,7.58,7.58,0,0,1-2.49-.36,4.51,4.51,0,0,1-2-1.09,4.45,4.45,0,0,1-1.42-1.91,6.57,6.57,0,0,1-.53-2.82v-14h-3.29V16.51h3.29V6.89H148v9.72h5.24v4.81H148v12a2.14,2.14,0,0,0,.71,1.81,2.66,2.66,0,0,0,1.69.55,4.7,4.7,0,0,0,1.95-.36,10.24,10.24,0,0,0,1.51-.55Z"/><path class="cls-1" d="M159.31,45.94a10,10,0,0,0,1.6.36,6.39,6.39,0,0,0,1.24.1,2.42,2.42,0,0,0,1.15-.28,2.78,2.78,0,0,0,1-.81,12.29,12.29,0,0,0,.89-1.64c.26-.73.62-1.54.89-2.54L156.2,16.51h6.57l6.75,19.17,6-19.17h6L171,46a9.11,9.11,0,0,1-3.11,4.27,8.75,8.75,0,0,1-5.42,1.64,7.28,7.28,0,0,1-1.51-.1,14.21,14.21,0,0,1-1.68-.36Z"/><path class="cls-2" d="M187.47,22.1l19.1-17.83L210.18.75a.45.45,0,0,0-.34-.75H195.3a8.52,8.52,0,0,0-8.61,8.37v13.4A.45.45,0,0,0,187.47,22.1Z"/><path class="cls-2" d="M194,25.63h19.29a.4.4,0,0,0,.43-.42V7.2a.47.47,0,0,0-.78-.34L193.6,24.78A.49.49,0,0,0,194,25.63Z"/><path class="cls-3" d="M220.24,0a.47.47,0,0,0-.5.42V25.21a.4.4,0,0,0,.42.42h7.93a.4.4,0,0,0,.42-.42V8.29A8.38,8.38,0,0,0,220.24,0Z"/><path class="cls-3" d="M186.69,32.28a.62.62,0,0,1,.52-.58h25.95a.54.54,0,0,1,.51.49v8.46a.46.46,0,0,1-.43.49H195.46A8.86,8.86,0,0,1,186.69,32.28Z"/><path class="cls-3" d="M228.09,31.7h-7.93a.4.4,0,0,0-.42.41v8.62a.39.39,0,0,0,.42.41h.25a8.36,8.36,0,0,0,8.1-8.11V32.2C228.51,31.87,228.34,31.7,228.09,31.7Z"/><path class="cls-1" d="M25.92,55.54v30a2,2,0,1,1-4.07,0V72.24H4.07V85.46a2.15,2.15,0,0,1-2,2.18,2.14,2.14,0,0,1-2-2.18v-30a2.14,2.14,0,0,1,2-2.19,2.15,2.15,0,0,1,2,2.19V68.33H21.85V55.54a2.14,2.14,0,0,1,2-2.19A2.09,2.09,0,0,1,25.92,55.54Z"/><path class="cls-1" d="M86.73,53.35a2.06,2.06,0,0,1,2,2.1V81.19a3.08,3.08,0,0,0,.68,2.09,2.43,2.43,0,0,0,2,.73,6.25,6.25,0,0,0,1.18-.19,1.24,1.24,0,0,1,1.53,1l.17.82a1.33,1.33,0,0,1-.85,1.46,6.72,6.72,0,0,0-1.27.36,12.54,12.54,0,0,1-2.37.27,4.79,4.79,0,0,1-3.64-1.36,5.08,5.08,0,0,1-1.36-3.82V55.26A2,2,0,0,1,86.73,53.35Z"/><path class="cls-1" d="M109.68,85.1a1.27,1.27,0,0,1-.68,1.54c-.42.18-.84.37-1.35.55a8.62,8.62,0,0,1-1.61.45,11.94,11.94,0,0,1-1.86.19,6.25,6.25,0,0,1-3.81-1.28,4.79,4.79,0,0,1-1.61-4V65.27H97.15a1.73,1.73,0,0,1,0-3.46h1.61V55.45a2,2,0,1,1,4.06,0v6.36h3.73a1.73,1.73,0,0,1,0,3.46h-3.73V81.19a3.14,3.14,0,0,0,.85,2.09,2.56,2.56,0,0,0,1.78.63,5.32,5.32,0,0,0,2.12-.45c.08,0,.08-.09.16-.09a1.11,1.11,0,0,1,1.53.82Z"/><path class="cls-1" d="M132.3,87.77a2.07,2.07,0,0,1-2-2.09V73.82A10.06,10.06,0,0,0,129,68.18a4.14,4.14,0,0,0-3.72-1.82,7.31,7.31,0,0,0-2.37.45,8.19,8.19,0,0,0-2.21,1.37,9.76,9.76,0,0,0-1.78,2,8.5,8.5,0,0,0-1.1,2.27,1.79,1.79,0,0,0-.08.64V85.77a2.12,2.12,0,0,1-2,2.09,2.06,2.06,0,0,1-2-2.09V55.45a2.12,2.12,0,0,1,2-2.1,2.06,2.06,0,0,1,2,2.1V68.36a10.3,10.3,0,0,1,3.81-4.18,9.8,9.8,0,0,1,5.25-1.46,7.37,7.37,0,0,1,3.56.82,6.16,6.16,0,0,1,2.29,2.18A9.41,9.41,0,0,1,133.91,69a20.94,20.94,0,0,1,.42,4V85.86A2.09,2.09,0,0,1,132.3,87.77Z"/><path class="cls-1" d="M203.41,64.63a1.42,1.42,0,0,1-1.18,1.44,9.58,9.58,0,0,0-4.09,1.54,8.24,8.24,0,0,0-3.13,4,1.54,1.54,0,0,0-.1.56V85.33a2.06,2.06,0,0,1-2,2.13h0a2.06,2.06,0,0,1-2-2.13v-22a1.39,1.39,0,0,1,1.33-1.45h1.05a1.39,1.39,0,0,1,1.33,1.45V68.1a11.7,11.7,0,0,1,3.21-4.23,7.7,7.7,0,0,1,4.17-1.8h.85a2.76,2.76,0,0,1,.54,0Z"/><path class="cls-1" d="M55.05,74.09a11.88,11.88,0,0,0-.23-2.23,13.32,13.32,0,0,0-3-6.27,11.18,11.18,0,0,0-1.92-1.71,12.43,12.43,0,0,0-1.84-1.1,10.72,10.72,0,0,0-3.45-1l-.34,0c-.32,0-.65-.05-1-.05h-.22a11.64,11.64,0,0,0-4.94,1,11.88,11.88,0,0,0-3.8,2.79,12.3,12.3,0,0,0-2.47,4.12,14.51,14.51,0,0,0-.86,5v0a14.32,14.32,0,0,0,.89,5,13,13,0,0,0,2.48,4.16A11.7,11.7,0,0,0,38.2,86.7a11.53,11.53,0,0,0,4.92,1,11.87,11.87,0,0,0,3.39-.48A12.24,12.24,0,0,0,49.45,86a9.75,9.75,0,0,0,2.3-2l.09-.11a2,2,0,0,0-.91-3.18l-.19-.06a1.61,1.61,0,0,0-.78-.06,2,2,0,0,0-1.22.77l-.29.36A7.39,7.39,0,0,1,47,82.93a8.14,8.14,0,0,1-1.87.84,7,7,0,0,1-2.07.31A6.77,6.77,0,0,1,40,83.36a7.76,7.76,0,0,1-2.5-2,9.78,9.78,0,0,1-1.71-3,9.34,9.34,0,0,1-.43-1.57c0-.21-.06-.42-.07-.64H55a4.61,4.61,0,0,0,.07-.68C55.05,75.07,55.06,74.61,55.05,74.09ZM51.27,73H35.15a9.81,9.81,0,0,1,.79-3.27,8.6,8.6,0,0,1,1.73-2.57,7.71,7.71,0,0,1,2.49-1.68,7.71,7.71,0,0,1,6,0,7.91,7.91,0,0,1,2.48,1.65,8.68,8.68,0,0,1,1.25,1.6,9.12,9.12,0,0,1,.53,1A9.39,9.39,0,0,1,51.27,73Z"/><path class="cls-1" d="M228.51,74.09a11.88,11.88,0,0,0-.23-2.23,13.32,13.32,0,0,0-3-6.27,11.18,11.18,0,0,0-1.92-1.71,12.43,12.43,0,0,0-1.84-1.1,10.79,10.79,0,0,0-3.45-1l-.35,0c-.31,0-.64-.05-1-.05h-.22a11.64,11.64,0,0,0-4.94,1,11.93,11.93,0,0,0-3.81,2.79,12.45,12.45,0,0,0-2.46,4.12,14.51,14.51,0,0,0-.86,5v0a14.09,14.09,0,0,0,.89,5,13,13,0,0,0,2.48,4.16,11.7,11.7,0,0,0,3.83,2.81,11.5,11.5,0,0,0,4.92,1,11.87,11.87,0,0,0,3.39-.48A12.24,12.24,0,0,0,222.91,86a9.75,9.75,0,0,0,2.3-2l.09-.11a2,2,0,0,0-.92-3.18l-.18-.06a1.62,1.62,0,0,0-.78-.06,2,2,0,0,0-1.22.77l-.29.36a7.39,7.39,0,0,1-1.48,1.23,8.14,8.14,0,0,1-1.87.84,7.07,7.07,0,0,1-2.07.31,6.77,6.77,0,0,1-3.08-.72,7.9,7.9,0,0,1-2.51-2,10,10,0,0,1-1.7-3,9.34,9.34,0,0,1-.43-1.57c0-.21-.06-.42-.07-.64h19.72a6.57,6.57,0,0,0,.07-.68C228.51,75.07,228.52,74.61,228.51,74.09ZM224.73,73H208.6a10.06,10.06,0,0,1,.8-3.27,8.6,8.6,0,0,1,1.73-2.57,7.71,7.71,0,0,1,2.49-1.68,7.71,7.71,0,0,1,6,0,7.91,7.91,0,0,1,2.48,1.65,8.23,8.23,0,0,1,1.24,1.6,9.16,9.16,0,0,1,.54,1,9.39,9.39,0,0,1,.84,3.29Z"/><path class="cls-1" d="M138.94,74.74a14.67,14.67,0,0,1,.86-5,12.29,12.29,0,0,1,2.42-4.12A11.75,11.75,0,0,1,146,62.8a11.21,11.21,0,0,1,4.87-1,10.43,10.43,0,0,1,8.36,3.71,2.07,2.07,0,0,1-.86,3.23l-.06,0a1.86,1.86,0,0,1-2.09-.63,6.67,6.67,0,0,0-1.84-1.67,6.77,6.77,0,0,0-3.6-1,6.85,6.85,0,0,0-3,.7,7.32,7.32,0,0,0-2.47,2,9.72,9.72,0,0,0-1.65,3,11,11,0,0,0-.6,3.71,10.84,10.84,0,0,0,.63,3.72,10.2,10.2,0,0,0,1.68,3,7.79,7.79,0,0,0,2.48,2,6.45,6.45,0,0,0,3,.73,6.9,6.9,0,0,0,2.05-.32A7.52,7.52,0,0,0,154.7,83a7,7,0,0,0,1.46-1.23l.29-.36a1.78,1.78,0,0,1,2-.72l.18.06a2.06,2.06,0,0,1,.91,3.2l-.09.11a9.8,9.8,0,0,1-2.27,2,11.76,11.76,0,0,1-2.9,1.3,11.6,11.6,0,0,1-3.35.48A11,11,0,0,1,146,86.8,11.76,11.76,0,0,1,142.27,84a12.88,12.88,0,0,1-2.45-4.18A14.37,14.37,0,0,1,138.94,74.74Z"/><path class="cls-1" d="M171.74,87.86a8.12,8.12,0,0,1-3.13-.6,7.76,7.76,0,0,1-2.52-1.65,7.65,7.65,0,0,1-1.67-2.47,7.73,7.73,0,0,1-.62-3.1,6.82,6.82,0,0,1,.73-3.14,7,7,0,0,1,2.06-2.42,10.3,10.3,0,0,1,3.18-1.59,13.45,13.45,0,0,1,4-.57,19,19,0,0,1,3.49.33c.59.11,1.14.25,1.66.4a1.2,1.2,0,0,0,1.47-1.22v-.28a6.81,6.81,0,0,0-1.63-4.82A6,6,0,0,0,174.14,65a11.92,11.92,0,0,0-6.46,2.19,1.14,1.14,0,0,1-1.66-.5l-.23-.48a1.28,1.28,0,0,1,.41-1.63,15.32,15.32,0,0,1,8.3-2.65,9.77,9.77,0,0,1,7.28,2.64q2.61,2.64,2.61,7.44V82.2a1.4,1.4,0,0,0,.64,1.39,1.23,1.23,0,0,1,.63,1.1V86.3a1.22,1.22,0,0,1-1,1.23h0a7.81,7.81,0,0,1-.86,0,2.46,2.46,0,0,1-1.88-.75A3.09,3.09,0,0,1,181,85l-.09-1.77a10.36,10.36,0,0,1-4,3.43A11.81,11.81,0,0,1,171.74,87.86Zm1-3.16a9.46,9.46,0,0,0,4-.84,6.72,6.72,0,0,0,2.79-2.23,2.75,2.75,0,0,0,.86-1.88V76.94a1.24,1.24,0,0,0-.78-1.18,15.66,15.66,0,0,0-5.25-.9,8.26,8.26,0,0,0-4.88,1.34,4.15,4.15,0,0,0-1.88,3.51,4.9,4.9,0,0,0,.39,2,4.61,4.61,0,0,0,1.09,1.59,5,5,0,0,0,1.65,1A5.33,5.33,0,0,0,172.78,84.7Z"/><path class="cls-1" d="M65.53,87.86a8.12,8.12,0,0,1-3.13-.6,7.76,7.76,0,0,1-2.52-1.65,7.65,7.65,0,0,1-1.67-2.47,7.73,7.73,0,0,1-.62-3.1,6.82,6.82,0,0,1,.73-3.14,7,7,0,0,1,2.06-2.42,10.3,10.3,0,0,1,3.18-1.59,13.45,13.45,0,0,1,4-.57,19,19,0,0,1,3.49.33c.59.11,1.14.25,1.66.4a1.2,1.2,0,0,0,1.47-1.22v-.28a6.81,6.81,0,0,0-1.63-4.82A6,6,0,0,0,67.93,65a11.87,11.87,0,0,0-6.45,2.19,1.15,1.15,0,0,1-1.67-.5l-.23-.48A1.28,1.28,0,0,1,60,64.55a15.32,15.32,0,0,1,8.3-2.65,9.77,9.77,0,0,1,7.28,2.64q2.61,2.64,2.61,7.44V82.2a1.4,1.4,0,0,0,.64,1.39,1.23,1.23,0,0,1,.63,1.1V86.3a1.22,1.22,0,0,1-1,1.23h0a7.81,7.81,0,0,1-.86,0,2.46,2.46,0,0,1-1.88-.75,3.09,3.09,0,0,1-.84-1.8l-.09-1.77a10.36,10.36,0,0,1-4,3.43A11.81,11.81,0,0,1,65.53,87.86Zm1-3.16a9.46,9.46,0,0,0,4-.84,6.72,6.72,0,0,0,2.79-2.23,2.75,2.75,0,0,0,.86-1.88V76.94a1.24,1.24,0,0,0-.78-1.18,15.66,15.66,0,0,0-5.25-.9,8.26,8.26,0,0,0-4.88,1.34,4.15,4.15,0,0,0-1.88,3.51,4.9,4.9,0,0,0,.39,2,4.61,4.61,0,0,0,1.09,1.59,5,5,0,0,0,1.65,1A5.33,5.33,0,0,0,66.57,84.7Z"/></g></g></svg>