<?xml version="1.0" encoding="utf-8"?>
<!-- Generator: Adobe Illustrator 21.0.2, SVG Export Plug-In . SVG Version: 6.00 Build 0)  -->
<svg version="1.1" id="Layer_1" xmlns="http://www.w3.org/2000/svg" xmlns:xlink="http://www.w3.org/1999/xlink" x="0px" y="0px"
	 viewBox="0 0 261.4 100.5" style="enable-background:new 0 0 261.4 100.5;" xml:space="preserve">
<style type="text/css">
	.st0{fill:#FFFFFF;}
	.st1{fill:#0AD3B6;}
</style>
<title>Asset 14</title>
<g id="Layer_2">
	<g id="Layer_1-2">
		<path class="st0" d="M31.6,47.1V20.8l-10,18.8h-4.1l-10-18.8v26.3H0V7.9h8l11.5,21.7L31.1,7.9h8v39.2H31.6z"/>
		<path class="st0" d="M59.5,47.6c-2.2,0-4.3-0.4-6.3-1.2c-1.8-0.7-3.4-1.8-4.7-3.2c-1.3-1.3-2.3-2.9-2.9-4.7c-0.7-1.8-1-3.6-1-5.5
			c0-1.9,0.3-3.8,1-5.6c0.7-1.7,1.7-3.3,2.9-4.7c2.9-3,6.9-4.6,11-4.4c2.1,0,4.2,0.4,6.2,1.1c1.7,0.8,3.3,1.9,4.7,3.2
			c1.3,1.3,2.3,2.9,3,4.7c0.7,1.8,1,3.7,1,5.6c0,1.9-0.3,3.8-1,5.5c-0.7,1.7-1.7,3.3-3,4.7c-1.3,1.4-2.9,2.5-4.7,3.2
			C63.8,47.2,61.7,47.6,59.5,47.6z M52.1,33c0,1.2,0.2,2.3,0.6,3.4c0.4,1,0.9,1.9,1.6,2.7c0.7,0.7,1.5,1.3,2.3,1.8
			c1.9,0.8,4,0.8,5.9,0c0.9-0.4,1.7-1,2.3-1.8c0.7-0.8,1.3-1.7,1.6-2.7c0.8-2.2,0.8-4.6,0-6.9c-0.4-1-0.9-1.9-1.6-2.7
			c-0.7-0.7-1.5-1.3-2.3-1.8c-1.9-0.8-4-0.8-5.9,0c-0.9,0.4-1.7,1-2.3,1.8c-0.7,0.8-1.3,1.7-1.6,2.7C52.3,30.7,52.1,31.8,52.1,33z"
			/>
		<path class="st0" d="M95.9,47.6c-2,0-4-0.5-5.8-1.5c-1.7-0.9-3.1-2.3-4.1-4V47h-6.4V7.9H87v16c1-1.7,2.3-3.1,4-4
			c1.8-1,3.8-1.5,5.8-1.5c1.8,0,3.5,0.4,5.1,1.1c1.5,0.8,2.9,1.9,4,3.2c1.1,1.4,2,3,2.5,4.7c0.6,1.8,0.8,3.7,0.8,5.6
			c0,2-0.3,3.9-1,5.7c-0.6,1.7-1.6,3.3-2.8,4.6c-1.2,1.3-2.7,2.3-4.3,3.1C99.5,47.2,97.7,47.6,95.9,47.6z M93.9,41.4
			c1.1,0,2.2-0.2,3.2-0.6c1-0.4,1.8-1,2.5-1.8c1.4-1.6,2.2-3.7,2.2-5.8c0-1.1-0.2-2.2-0.5-3.3c-0.4-1-0.9-1.9-1.5-2.7
			c-0.6-0.8-1.4-1.4-2.3-1.9c-0.9-0.4-2-0.7-3-0.7c-1.6,0-3.1,0.5-4.4,1.5c-1.3,1-2.3,2.3-3,3.8v6.8c0.2,0.7,0.6,1.4,1.1,2
			c1,1.1,2.2,2,3.7,2.4C92.5,41.4,93.2,41.5,93.9,41.4L93.9,41.4z"/>
		<path class="st0" d="M114.5,14.9V7.9h7.3v7.2h-7.3V14.9z M114.5,47.1V18.9h7.3v28.2H114.5z"/>
		<path class="st0" d="M128.6,7.9h7.3v30.2c-0.1,0.9,0.2,1.8,0.8,2.4c0.5,0.6,1.3,0.9,2.1,0.8c0.5,0,1-0.1,1.4-0.2
			c0.5-0.1,1-0.3,1.5-0.5l1,5.5c-1.1,0.5-2.3,0.8-3.4,1c-1.2,0.2-2.4,0.4-3.6,0.4c-1.9,0.1-3.8-0.5-5.3-1.8c-1.3-1.4-2-3.2-1.9-5.1
			L128.6,7.9z"/>
		<path class="st0" d="M146.2,14.9V7.9h7.3v7.2h-7.3V14.9z M146.2,47.1V18.9h7.3v28.2H146.2z"/>
		<path class="st0" d="M177.5,45.6c-1.2,0.5-2.4,0.9-3.6,1.2c-1.5,0.4-3,0.6-4.5,0.6c-1,0-1.9-0.1-2.8-0.4c-0.9-0.2-1.7-0.6-2.3-1.2
			c-0.7-0.6-1.3-1.3-1.6-2.2c-0.4-1-0.7-2.1-0.6-3.2v-16h-3.8v-5.5h3.8v-11h7.3V19h6v5.5h-6v13.7c-0.1,0.8,0.2,1.5,0.8,2.1
			c0.6,0.4,1.2,0.6,1.9,0.6c0.8,0,1.5-0.1,2.2-0.4c0.6-0.2,1.2-0.4,1.7-0.6L177.5,45.6z"/>
		<path class="st0" d="M182.2,52.6c0.6,0.2,1.2,0.3,1.8,0.4c0.5,0.1,0.9,0.1,1.4,0.1c0.5,0,0.9-0.1,1.3-0.3c0.4-0.2,0.8-0.5,1.1-0.9
			c0.4-0.6,0.7-1.2,1-1.9c0.3-0.8,0.7-1.8,1-2.9l-11.2-28.2h7.5l7.7,21.9l6.9-21.9h6.9l-12.1,33.8c-0.7,1.9-1.9,3.6-3.6,4.9
			c-1.8,1.3-4,2-6.2,1.9c-0.6,0-1.2,0-1.7-0.1c-0.7-0.1-1.3-0.2-1.9-0.4L182.2,52.6z"/>
		<path class="st1" d="M214.4,25.3l21.8-20.4l4.1-4c0.2-0.2,0.2-0.5,0-0.7C240.3,0,240.2,0,240,0h-16.6c-5.4-0.1-9.8,4.2-9.8,9.6
			v15.3c0,0.3,0.2,0.5,0.5,0.6C214.2,25.5,214.3,25.4,214.4,25.3z"/>
		<path class="st1" d="M221.8,29.3h21.3c0.3,0,0.5-0.2,0.5-0.4c0,0,0,0,0-0.1V8.2c0-0.3-0.2-0.5-0.5-0.5c-0.1,0-0.3,0-0.4,0.1
			l-21.3,20.5c-0.2,0.2-0.2,0.6,0,0.8C221.5,29.3,221.7,29.3,221.8,29.3z"/>
		<path class="st0" d="M251.9,0c-0.3,0-0.5,0.2-0.6,0.5v28.4c0,0.2,0.2,0.5,0.4,0.5c0,0,0,0,0.1,0h9.1c0.2,0,0.5-0.2,0.5-0.4
			c0,0,0,0,0-0.1V9.5C261.3,4.3,257.1,0.1,251.9,0z"/>
		<path class="st0" d="M213.6,36.9c0-0.3,0.3-0.6,0.6-0.7h29.7c0.3,0,0.6,0.3,0.6,0.6v9.7c0,0.3-0.2,0.5-0.5,0.6h-20.3
			C218,47,213.6,42.5,213.6,36.9z"/>
		<path class="st0" d="M260.9,36.3h-9.1c-0.2,0-0.5,0.2-0.5,0.4c0,0,0,0,0,0.1v9.8c0,0.2,0.2,0.5,0.4,0.5c0,0,0,0,0,0h0.3
			c5.1-0.2,9.1-4.2,9.3-9.3v-1C261.4,36.5,261.2,36.3,260.9,36.3z"/>
		<path class="st0" d="M29.6,63.5v34.3c0.1,1.3-0.9,2.4-2.2,2.5s-2.4-0.9-2.5-2.2c0-0.1,0-0.2,0-0.3V82.6H4.7v15.1
			c0,1.3-1,2.4-2.3,2.5C1,100.2,0,99.1,0,97.8V63.4c0-1.3,1-2.4,2.3-2.5c1.3,0.1,2.3,1.2,2.3,2.5v14.7H25V63.5c0-1.3,1-2.5,2.3-2.5
			C28.6,61,29.7,62.1,29.6,63.5C29.7,63.5,29.7,63.5,29.6,63.5z"/>
		<path class="st0" d="M99.2,61c1.3,0,2.3,1.1,2.3,2.4c0,0,0,0,0,0v29.5c0,0.9,0.2,1.7,0.8,2.4c0.6,0.6,1.4,0.9,2.2,0.8
			c0.5,0,0.9-0.1,1.4-0.2c0.7-0.2,1.5,0.2,1.7,1c0,0,0,0.1,0,0.1l0.2,0.9c0.1,0.7-0.3,1.4-1,1.7c-0.5,0.1-1,0.2-1.4,0.4
			c-0.9,0.2-1.8,0.3-2.7,0.3c-1.5,0.1-3.1-0.5-4.2-1.6c-1.1-1.2-1.6-2.7-1.5-4.3V63.2C97,62,98,61,99.2,61z"/>
		<path class="st0" d="M125.5,97.3c0.2,0.7-0.1,1.5-0.8,1.8c-0.5,0.2-1,0.4-1.6,0.6c-0.6,0.2-1.2,0.4-1.8,0.5
			c-0.7,0.1-1.4,0.2-2.1,0.2c-1.6,0-3.1-0.5-4.4-1.5c-1.3-1.2-2-2.8-1.8-4.6V74.7h-1.8c-1.1,0-2-0.9-2-2s0.9-2,2-2h1.8v-7.2
			c-0.1-1.3,0.9-2.4,2.2-2.5c1.3-0.1,2.4,0.9,2.5,2.2c0,0.1,0,0.2,0,0.3v7.3h4.3c1.1,0,2,0.9,2,2s-0.9,2-2,2h-4.3v18.2
			c0,0.9,0.4,1.7,1,2.4c0.6,0.5,1.3,0.7,2,0.7c0.8,0,1.7-0.2,2.4-0.5c0.1,0,0.1-0.1,0.2-0.1c0.6-0.3,1.4,0,1.7,0.6
			c0,0.1,0.1,0.2,0.1,0.3L125.5,97.3z"/>
		<path class="st0" d="M151.3,100.4c-1.3,0-2.4-1.1-2.3-2.4c0,0,0,0,0,0V84.4c0-2.9-0.5-5-1.4-6.4c-1-1.4-2.6-2.2-4.3-2.1
			c-0.9,0-1.8,0.2-2.7,0.5c-0.9,0.4-1.8,0.9-2.5,1.6c-0.8,0.7-1.4,1.4-2,2.3c-0.6,0.8-1,1.7-1.3,2.6c-0.1,0.2-0.1,0.5-0.1,0.7v14.5
			c0,1.3-1,2.3-2.3,2.4c-1.3,0-2.4-1-2.4-2.3c0,0,0,0,0-0.1V63.4c0-1.3,1-2.4,2.4-2.4c1.3,0,2.3,1.1,2.3,2.4v14.8
			c1-2,2.5-3.6,4.3-4.8c1.8-1.1,3.9-1.7,6-1.7c1.4,0,2.8,0.3,4.1,0.9c1.1,0.6,2,1.5,2.6,2.5c0.7,1.1,1.2,2.4,1.5,3.8
			c0.3,1.5,0.5,3,0.5,4.6v14.7C153.5,99.4,152.5,100.3,151.3,100.4z"/>
		<path class="st0" d="M232.7,73.9c0,0.8-0.5,1.5-1.4,1.7c-1.7,0.2-3.3,0.8-4.7,1.8c-1.7,1.1-2.9,2.8-3.6,4.7
			c-0.1,0.2-0.1,0.4-0.1,0.6v15c0,1.3-1,2.4-2.3,2.4l0,0c-1.3,0-2.3-1.1-2.3-2.4V72.5c0-0.9,0.6-1.6,1.5-1.7h1.2
			c0.9,0,1.6,0.8,1.5,1.7c0,0,0,0,0,0v5.4c0.8-1.9,2.1-3.5,3.7-4.8c1.4-1.2,3-1.9,4.8-2.1h1c0.2,0,0.4,0,0.6,0.1L232.7,73.9z"/>
		<path class="st0" d="M63,84.8c0-0.9-0.1-1.7-0.3-2.5c-0.5-2.7-1.7-5.2-3.5-7.2c-0.7-0.7-1.4-1.4-2.2-2c-0.7-0.5-1.4-0.9-2.1-1.2
			c-1.3-0.6-2.6-1-4-1.1h-0.4c-0.4,0-0.7-0.1-1.1-0.1h-0.2c-1.9,0-3.9,0.4-5.7,1.2c-1.6,0.8-3.1,1.8-4.3,3.2c-1.2,1.4-2.2,3-2.8,4.7
			c-0.7,1.8-1,3.8-1,5.7l0,0c0,2,0.3,3.9,1,5.8c0.6,1.8,1.6,3.4,2.9,4.8c2.5,2.8,6.2,4.5,10,4.4c1.3,0,2.6-0.2,3.9-0.6
			c1.2-0.3,2.3-0.8,3.4-1.5c1-0.6,1.9-1.4,2.6-2.3c0,0,0.1-0.1,0.1-0.1c0.8-1,0.7-2.5-0.3-3.3c-0.2-0.2-0.4-0.3-0.7-0.4L58,92.2
			c-0.3-0.1-0.6-0.1-0.9-0.1c-0.6,0.1-1.1,0.4-1.4,0.9l-0.3,0.4c-0.5,0.5-1.1,1-1.7,1.4c-0.7,0.4-1.4,0.8-2.1,1
			c-0.8,0.2-1.6,0.4-2.4,0.4c-1.2,0-2.4-0.3-3.5-0.8c-1.1-0.6-2.1-1.3-2.9-2.3c-0.8-1-1.5-2.2-2-3.4c-0.2-0.6-0.4-1.2-0.5-1.8
			c0-0.2-0.1-0.5-0.1-0.7h22.6c0-0.3,0.1-0.5,0.1-0.8C63,85.9,63,85.4,63,84.8z M58.7,83.5H40.2c0.1-1.3,0.4-2.6,0.9-3.7
			c0.5-1.1,1.2-2.1,2-2.9c1.7-1.7,3.9-2.6,6.3-2.6c1.2,0,2.3,0.2,3.4,0.7c1.1,0.4,2,1.1,2.8,1.9c0.5,0.5,1,1.2,1.4,1.8
			c0.2,0.4,0.4,0.7,0.6,1.1C58.3,80.9,58.6,82.2,58.7,83.5L58.7,83.5z"/>
		<path class="st0" d="M261.4,84.8c0-0.9-0.1-1.7-0.3-2.5c-0.5-2.7-1.7-5.2-3.4-7.2c-0.6-0.7-1.4-1.4-2.2-2
			c-0.7-0.5-1.4-0.9-2.1-1.3c-1.3-0.6-2.6-1-4-1.1H249c-0.4,0-0.7-0.1-1.1-0.1h-0.3c-1.9,0-3.9,0.4-5.6,1.2
			c-1.6,0.8-3.1,1.9-4.3,3.2c-1.2,1.4-2.2,3-2.8,4.7c-0.7,1.8-1,3.8-1,5.7l0,0c0,2,0.3,3.9,1,5.8c0.6,1.8,1.6,3.4,2.9,4.8
			c2.5,2.8,6.2,4.4,10,4.4c1.3,0,2.6-0.2,3.9-0.6c1.2-0.4,2.3-0.9,3.4-1.5c1-0.6,1.9-1.4,2.6-2.3c0,0,0.1-0.1,0.1-0.1
			c0.8-1,0.6-2.5-0.4-3.3c-0.2-0.2-0.4-0.3-0.7-0.4l-0.2-0.1c-0.3-0.1-0.6-0.1-0.9-0.1c-0.6,0.1-1.1,0.4-1.4,0.9
			c-0.1,0.1-0.2,0.3-0.3,0.4c-0.5,0.5-1.1,1-1.7,1.4c-0.7,0.4-1.4,0.8-2.1,1c-0.8,0.2-1.6,0.4-2.4,0.4c-1.2,0-2.4-0.3-3.5-0.8
			c-1.1-0.6-2.1-1.3-2.9-2.3c-1.2-1.5-2.1-3.3-2.4-5.2c0-0.2-0.1-0.5-0.1-0.7h22.6c0-0.3,0.1-0.5,0.1-0.8
			C261.4,85.9,261.4,85.4,261.4,84.8z M257.1,83.5h-18.5c0.1-1.3,0.4-2.6,0.9-3.7c0.5-1.1,1.2-2.1,2-2.9c2.5-2.6,6.4-3.3,9.7-1.9
			c1.1,0.4,2,1.1,2.9,1.9c0.5,0.5,1,1.2,1.4,1.8c0.2,0.4,0.4,0.7,0.6,1.1C256.7,80.9,257,82.2,257.1,83.5L257.1,83.5z"/>
		<path class="st0" d="M158.9,85.5c0-2,0.3-3.9,1-5.7c0.6-1.7,1.5-3.4,2.8-4.8c1.2-1.3,2.7-2.4,4.3-3.2c1.7-0.8,3.7-1.2,5.6-1.2
			c2.4-0.1,4.9,0.6,6.9,1.9c1,0.6,1.9,1.4,2.6,2.3c0.8,1,0.7,2.5-0.3,3.3c-0.2,0.2-0.4,0.3-0.7,0.4H181c-0.9,0.3-1.8,0-2.4-0.7
			c-0.6-0.8-1.3-1.4-2.1-1.9c-1.2-0.8-2.7-1.1-4.1-1.1c-1.2,0-2.4,0.3-3.5,0.8c-1.1,0.5-2.1,1.3-2.8,2.2c-0.8,1-1.5,2.1-1.9,3.4
			c-0.5,1.4-0.7,2.8-0.7,4.2c0,1.4,0.2,2.9,0.7,4.2c0.4,1.3,1.1,2.4,1.9,3.4c0.8,1,1.7,1.8,2.8,2.4c1.1,0.5,2.3,0.8,3.5,0.8
			c0.8,0,1.6-0.1,2.3-0.3c0.8-0.2,1.5-0.5,2.2-1c0.6-0.4,1.2-0.9,1.7-1.4c0.1-0.1,0.2-0.3,0.3-0.4c0.5-0.7,1.4-1.1,2.2-0.8l0.2,0.1
			c1.2,0.5,1.8,1.8,1.4,3c-0.1,0.2-0.2,0.4-0.4,0.6l-0.1,0.1c-0.7,0.9-1.6,1.7-2.6,2.3c-1,0.6-2.1,1.1-3.3,1.5
			c-1.2,0.4-2.5,0.6-3.8,0.6c-1.9,0-3.8-0.4-5.6-1.2c-1.7-0.8-3.1-1.9-4.3-3.3c-1.2-1.4-2.2-3-2.8-4.8
			C159.3,89.4,158.9,87.5,158.9,85.5z"/>
		<path class="st0" d="M196.4,100.5c-1.2,0-2.4-0.2-3.6-0.7c-3.4-1.4-5.5-4.6-5.5-8.3c0-1.2,0.3-2.5,0.8-3.6c0.6-1.1,1.4-2,2.4-2.8
			c1.1-0.8,2.3-1.4,3.6-1.8c1.5-0.5,3-0.7,4.6-0.7c1.3,0,2.7,0.1,4,0.4c0.7,0.1,1.3,0.3,1.9,0.4c0.7,0.2,1.5-0.3,1.6-1
			c0-0.1,0-0.3,0-0.4v-0.3c0.1-2-0.6-4-1.9-5.5c-1.4-1.4-3.3-2.1-5.3-2c-2.7,0.1-5.2,1-7.4,2.5c-0.6,0.4-1.4,0.2-1.8-0.4
			c0-0.1-0.1-0.1-0.1-0.2l-0.3-0.6c-0.3-0.7-0.1-1.4,0.5-1.9c2.8-1.9,6.1-2.9,9.5-3c3.6,0,6.3,1,8.3,3c2,2,3,4.8,3,8.5V94
			c-0.1,0.6,0.2,1.3,0.7,1.6c0.5,0.3,0.7,0.7,0.7,1.2v1.8c0,0.7-0.5,1.3-1.2,1.4l0,0c-0.3,0-0.7,0.1-1,0.1c-0.8,0-1.6-0.3-2.2-0.8
			c-0.5-0.6-0.9-1.3-1-2.1l-0.1-2c-1.2,1.7-2.7,3-4.6,3.9C200.5,100.1,198.5,100.5,196.4,100.5z M197.6,96.9c1.6,0,3.1-0.3,4.5-1
			c1.3-0.5,2.4-1.4,3.2-2.6c0.6-0.6,1-1.3,1-2.1V88c0-0.6-0.3-1.1-0.9-1.3c-1.9-0.7-4-1-6-1c-2-0.1-3.9,0.5-5.6,1.5
			c-1.4,0.9-2.2,2.4-2.2,4c0,0.8,0.1,1.5,0.4,2.2c0.3,0.7,0.7,1.3,1.2,1.8c0.5,0.5,1.2,0.9,1.9,1.2
			C196.1,96.7,196.9,96.9,197.6,96.9z"/>
		<path class="st0" d="M75,100.5c-1.2,0-2.4-0.2-3.6-0.7c-1.1-0.4-2.1-1.1-2.9-1.9c-0.8-0.8-1.5-1.8-1.9-2.8
			c-0.5-1.1-0.7-2.3-0.7-3.5c0-1.2,0.2-2.5,0.8-3.6c0.6-1.1,1.4-2,2.4-2.8c1.1-0.8,2.3-1.4,3.6-1.8c1.5-0.5,3-0.7,4.6-0.7
			c1.3,0,2.7,0.1,4,0.4c0.7,0.1,1.3,0.3,1.9,0.4c0.7,0.2,1.5-0.3,1.6-1c0-0.1,0-0.3,0-0.4v-0.3c0.1-2-0.5-4-1.9-5.5
			c-1.4-1.4-3.3-2.1-5.3-2c-2.7,0.1-5.2,1-7.4,2.5c-0.6,0.4-1.4,0.2-1.8-0.4c0-0.1-0.1-0.1-0.1-0.2l-0.3-0.6
			c-0.3-0.7-0.1-1.4,0.5-1.9c2.8-1.9,6.1-2.9,9.5-3c3.6,0,6.3,1,8.3,3s3,4.8,3,8.5V94c-0.1,0.6,0.2,1.2,0.7,1.6
			c0.5,0.3,0.7,0.7,0.7,1.2v1.8c0,0.7-0.5,1.3-1.2,1.4l0,0c-0.3,0-0.7,0.1-1,0.1c-0.8,0-1.6-0.3-2.2-0.8c-0.6-0.6-0.9-1.3-1-2.1
			l-0.1-2c-1.2,1.7-2.7,3-4.6,3.9C79,100,77,100.5,75,100.5z M76.2,96.9c1.6,0,3.1-0.3,4.5-1c1.3-0.5,2.4-1.4,3.2-2.6
			c0.6-0.6,1-1.3,1-2.1V88c0-0.6-0.4-1.1-0.9-1.3c-1.9-0.7-4-1-6-1c-2-0.1-3.9,0.5-5.6,1.5c-1.4,0.9-2.2,2.4-2.2,4
			c0,0.8,0.1,1.5,0.4,2.2c0.3,0.7,0.7,1.3,1.2,1.8c0.6,0.5,1.2,0.9,1.9,1.2C74.6,96.8,75.4,96.9,76.2,96.9L76.2,96.9z"/>
	</g>
</g>
</svg>
